<svg width="23" height="19" viewBox="0 0 23 19" fill="none" xmlns="http://www.w3.org/2000/svg">
<path fill-rule="evenodd" clip-rule="evenodd" d="M21 19H2C0.8955 19 0 18.1045 0 17V2C0 0.8955 0.8955 0 2 0H21C22.1045 0 23 0.8955 23 2V17C23 18.1045 22.1045 19 21 19ZM22 2C22 1.448 21.552 1 21 1H2C1.448 1 1 1.448 1 2V5H22V2ZM22 6H1V17C1 17.552 1.448 18 2 18H21C21.552 18 22 17.552 22 17V6ZM20 13H19C18.724 13 18.5 12.7765 18.5 12.5V11.5C18.5 11.224 18.724 11 19 11H20C20.2765 11 20.5 11.224 20.5 11.5V12.5C20.5 12.7765 20.2765 13 20 13ZM20 9.5H19C18.724 9.5 18.5 9.2765 18.5 9V8C18.5 7.7235 18.724 7.5 19 7.5H20C20.2765 7.5 20.5 7.7235 20.5 8V9C20.5 9.2765 20.2765 9.5 20 9.5ZM16 13H15C14.724 13 14.5 12.7765 14.5 12.5V11.5C14.5 11.224 14.724 11 15 11H16C16.2765 11 16.5 11.224 16.5 11.5V12.5C16.5 12.7765 16.2765 13 16 13ZM16 9.5H15C14.724 9.5 14.5 9.2765 14.5 9V8C14.5 7.7235 14.724 7.5 15 7.5H16C16.2765 7.5 16.5 7.7235 16.5 8V9C16.5 9.2765 16.2765 9.5 16 9.5ZM12 13H11C10.7235 13 10.5 12.7765 10.5 12.5V11.5C10.5 11.224 10.7235 11 11 11H12C12.2765 11 12.5 11.224 12.5 11.5V12.5C12.5 12.7765 12.2765 13 12 13ZM12 9.5H11C10.7235 9.5 10.5 9.2765 10.5 9V8C10.5 7.7235 10.7235 7.5 11 7.5H12C12.2765 7.5 12.5 7.7235 12.5 8V9C12.5 9.2765 12.2765 9.5 12 9.5ZM8 16.5H7C6.7235 16.5 6.5 16.2765 6.5 16V15C6.5 14.7235 6.7235 14.5 7 14.5H8C8.2765 14.5 8.5 14.7235 8.5 15V16C8.5 16.2765 8.2765 16.5 8 16.5ZM8 13H7C6.7235 13 6.5 12.7765 6.5 12.5V11.5C6.5 11.224 6.7235 11 7 11H8C8.2765 11 8.5 11.224 8.5 11.5V12.5C8.5 12.7765 8.2765 13 8 13ZM8 9.5H7C6.7235 9.5 6.5 9.2765 6.5 9V8C6.5 7.7235 6.7235 7.5 7 7.5H8C8.2765 7.5 8.5 7.7235 8.5 8V9C8.5 9.2765 8.2765 9.5 8 9.5ZM4 16.5H3C2.7235 16.5 2.5 16.2765 2.5 16V15C2.5 14.7235 2.7235 14.5 3 14.5H4C4.2765 14.5 4.5 14.7235 4.5 15V16C4.5 16.2765 4.2765 16.5 4 16.5ZM4 13H3C2.7235 13 2.5 12.7765 2.5 12.5V11.5C2.5 11.224 2.7235 11 3 11H4C4.2765 11 4.5 11.224 4.5 11.5V12.5C4.5 12.7765 4.2765 13 4 13ZM11 14.5H12C12.2765 14.5 12.5 14.7235 12.5 15V16C12.5 16.2765 12.2765 16.5 12 16.5H11C10.7235 16.5 10.5 16.2765 10.5 16V15C10.5 14.7235 10.7235 14.5 11 14.5Z" fill="#4A4A4A"/>
</svg>
