<svg width="17" height="20" viewBox="0 0 17 20" fill="none" xmlns="http://www.w3.org/2000/svg">
<path d="M13.6028 10.627C13.5776 8.09362 15.6687 6.87854 15.7622 6.81715C14.587 5.0988 12.756 4.86302 12.1044 4.83619C10.5474 4.67805 9.06483 5.75329 8.27497 5.75329C7.48673 5.75329 6.26636 4.85936 4.97526 4.88213C3.27683 4.90733 1.71132 5.86997 0.837309 7.39034C-0.926574 10.4502 0.386073 14.9849 2.10483 17.4683C2.94511 18.6822 3.94717 20.0481 5.26185 19.9981C6.52897 19.9481 7.00704 19.1786 8.5388 19.1786C10.0706 19.1786 10.5007 19.9981 11.8409 19.9725C13.2036 19.9477 14.0674 18.7355 14.9008 17.5167C15.8655 16.1065 16.2626 14.741 16.2862 14.6719C16.2565 14.6581 13.63 13.6519 13.6028 10.627Z" fill="#4A4A4A"/>
<path d="M11.0834 3.1932C11.7806 2.34683 12.253 1.17077 12.1245 0C11.1184 0.0406518 9.90044 0.668723 9.17806 1.51428C8.53088 2.26471 7.96501 3.45947 8.11664 4.6091C9.23904 4.6961 10.3838 4.03795 11.0834 3.1932Z" fill="#4A4A4A"/>
</svg>
