<svg width="24" height="24" viewBox="0 0 24 24" fill="none" xmlns="http://www.w3.org/2000/svg">
<g clip-path="url(#clip0_500_2721)">
<g clip-path="url(#clip1_500_2721)">
<path d="M11.0772 16.6162C10.9557 16.6169 10.8353 16.5936 10.7228 16.5476C10.6103 16.5017 10.508 16.434 10.4218 16.3485L6.72948 12.6562C6.55566 12.4823 6.45801 12.2466 6.45801 12.0008C6.45801 11.755 6.55566 11.5192 6.72948 11.3454C6.9033 11.1716 7.13904 11.0739 7.38486 11.0739C7.63068 11.0739 7.86643 11.1716 8.04025 11.3454L11.0772 14.3915L16.8833 8.57616C17.0571 8.40234 17.2929 8.30469 17.5387 8.30469C17.7845 8.30469 18.0203 8.40234 18.1941 8.57616C18.3679 8.74998 18.4656 8.98572 18.4656 9.23154C18.4656 9.47736 18.3679 9.71311 18.1941 9.88693L11.7326 16.3485C11.6463 16.434 11.544 16.5017 11.4315 16.5476C11.3191 16.5936 11.1987 16.6169 11.0772 16.6162Z" fill="white"/>
<path d="M12 24C9.62663 24 7.30655 23.2962 5.33316 21.9776C3.35977 20.6591 1.8217 18.7849 0.913451 16.5922C0.00519941 14.3995 -0.232441 11.9867 0.230582 9.65892C0.693605 7.33115 1.83649 5.19295 3.51472 3.51472C5.19295 1.83649 7.33115 0.693605 9.65892 0.230582C11.9867 -0.232441 14.3995 0.00519941 16.5922 0.913451C18.7849 1.8217 20.6591 3.35977 21.9776 5.33316C23.2962 7.30655 24 9.62663 24 12C24 15.1826 22.7357 18.2348 20.4853 20.4853C18.2348 22.7357 15.1826 24 12 24ZM12 1.84616C9.99176 1.84616 8.02862 2.44167 6.35883 3.55739C4.68904 4.67311 3.38759 6.25892 2.61907 8.1143C1.85055 9.96967 1.64947 12.0113 2.04126 13.9809C2.43305 15.9506 3.40011 17.7598 4.82015 19.1799C6.24019 20.5999 8.04943 21.567 10.0191 21.9587C11.9887 22.3505 14.0303 22.1495 15.8857 21.3809C17.7411 20.6124 19.3269 19.311 20.4426 17.6412C21.5583 15.9714 22.1538 14.0082 22.1538 12C22.1538 9.30704 21.0841 6.72437 19.1799 4.82015C17.2756 2.91594 14.693 1.84616 12 1.84616Z" fill="white"/>
</g>
</g>
<defs>
<clipPath id="clip0_500_2721">
<rect width="24" height="24" fill="white"/>
</clipPath>
<clipPath id="clip1_500_2721">
<rect width="24" height="24" fill="white"/>
</clipPath>
</defs>
</svg>
