<svg width="28" height="28" viewBox="0 0 28 28" fill="none" xmlns="http://www.w3.org/2000/svg">
<path d="M23.7617 3.95312V22.5305C23.7617 24.368 22.2578 25.8719 20.4258 25.8719H6.92891C6.62266 25.8719 6.32734 25.8172 6.04297 25.7352C6.46953 27.0312 7.68359 27.9828 9.11641 27.9828H22.7828C24.5711 27.9828 26.0367 26.5172 26.0367 24.7289V7.04297C26.0367 5.59375 25.0742 4.37422 23.7617 3.95312Z" fill="#303A3F"/>
<path d="M18.8777 0H5.2168C3.42852 0 1.96289 1.46562 1.96289 3.25391V20.9453C1.96289 22.7336 3.42852 24.1992 5.2168 24.1992H18.8832C20.6715 24.1992 22.1371 22.7336 22.1371 20.9453V3.25391C22.1316 1.46562 20.6715 0 18.8777 0ZM19.9168 19.1297C19.9168 20.5352 18.7629 21.6891 17.3574 21.6891H6.61133C5.20586 21.6891 4.05195 20.5352 4.05195 19.1297V5.21719C4.05195 3.81172 5.20586 2.65781 6.61133 2.65781H17.3629C18.7684 2.65781 19.9223 3.81172 19.9223 5.21719V19.1297H19.9168Z" fill="#303A3F"/>
<path d="M17.4889 6.42656H10.4178C10.1225 6.42656 9.88184 6.18594 9.88184 5.89062V5.85234C9.88184 5.55703 10.1225 5.31641 10.4178 5.31641H17.4889C17.7842 5.31641 18.0248 5.55703 18.0248 5.85234V5.89062C18.0303 6.18594 17.7842 6.42656 17.4889 6.42656Z" fill="#303A3F"/>
<path d="M17.4885 9.58281H6.58379C6.28848 9.58281 6.04785 9.34219 6.04785 9.04688V9.00859C6.04785 8.71328 6.28848 8.47266 6.58379 8.47266H17.4939C17.7893 8.47266 18.0299 8.71328 18.0299 9.00859V9.04688C18.0299 9.33672 17.7838 9.58281 17.4885 9.58281Z" fill="#303A3F"/>
<path d="M17.4885 12.7313H6.58379C6.28848 12.7313 6.04785 12.4906 6.04785 12.1953V12.157C6.04785 11.8617 6.28848 11.6211 6.58379 11.6211H17.4939C17.7893 11.6211 18.0299 11.8617 18.0299 12.157V12.1953C18.0299 12.4906 17.7838 12.7313 17.4885 12.7313Z" fill="#303A3F"/>
<path d="M17.4885 15.8875H6.58379C6.28848 15.8875 6.04785 15.6469 6.04785 15.3516V15.3133C6.04785 15.018 6.28848 14.7773 6.58379 14.7773H17.4939C17.7893 14.7773 18.0299 15.018 18.0299 15.3133V15.3516C18.0299 15.6469 17.7838 15.8875 17.4885 15.8875Z" fill="#303A3F"/>
<path d="M17.4885 19.0438H6.58379C6.28848 19.0438 6.04785 18.8031 6.04785 18.5078V18.4695C6.04785 18.1742 6.28848 17.9336 6.58379 17.9336H17.4939C17.7893 17.9336 18.0299 18.1742 18.0299 18.4695V18.5078C18.0299 18.7977 17.7838 19.0438 17.4885 19.0438Z" fill="#303A3F"/>
</svg>
