<svg width="35" height="35" viewBox="0 0 35 35" fill="none" xmlns="http://www.w3.org/2000/svg">
<circle cx="17.5" cy="17.5" r="17.5" fill="#201E0D"/>
<path d="M25.5656 19.5H19.5V25.5656C19.5 26.3578 18.8297 27 18 27C17.1703 27 16.5 26.3578 16.5 25.5656V19.5H10.4344C9.64219 19.5 9 18.8297 9 18C9 17.1703 9.64219 16.5 10.4344 16.5H16.5V10.4344C16.5 9.64219 17.1703 9 18 9C18.8297 9 19.5 9.64219 19.5 10.4344V16.5H25.5656C26.3578 16.5 27 17.1703 27 18C27 18.8297 26.3578 19.5 25.5656 19.5Z" fill="white"/>
</svg>
