<svg width="20" height="20" viewBox="0 0 20 20" fill="none" xmlns="http://www.w3.org/2000/svg">
<path d="M19.8072 8.12639C16.6063 8.12484 13.4053 8.12562 10.2044 8.12598C10.2048 9.42703 10.2028 10.7281 10.2052 12.0287C12.0589 12.0283 13.9127 12.028 15.7661 12.0287C15.5513 13.2755 14.7952 14.4156 13.723 15.1175C13.049 15.5616 12.2746 15.8498 11.4762 15.9869C10.6727 16.1213 9.84244 16.1385 9.04092 15.9795C8.22584 15.8201 7.4478 15.4873 6.76905 15.0182C5.68374 14.271 4.85547 13.1778 4.4302 11.9474C3.99535 10.696 3.99215 9.30355 4.43219 8.05331C4.73751 7.17213 5.2457 6.35815 5.91328 5.69574C6.73674 4.86964 7.80732 4.27909 8.96078 4.03692C9.94845 3.83031 10.9899 3.86974 11.9569 4.15642C12.7788 4.40095 13.5365 4.84228 14.157 5.42308C14.7844 4.8118 15.4086 4.19702 16.0347 3.58461C16.3632 3.25496 16.7083 2.93975 17.0264 2.60113C16.0754 1.73869 14.9606 1.04543 13.7425 0.607179C11.5495 -0.183718 9.07638 -0.200505 6.86868 0.548282C4.38076 1.38295 2.26232 3.20619 1.08775 5.51067C0.67882 6.30474 0.380263 7.1523 0.200913 8.02408C-0.250283 10.1961 0.0642018 12.5119 1.08655 14.4902C1.75098 15.7815 2.70356 16.9294 3.85905 17.8293C4.94917 18.6812 6.2198 19.3104 7.567 19.6616C9.26693 20.1084 11.0764 20.0982 12.7876 19.7167C14.334 19.3679 15.7972 18.6437 16.9654 17.5868C18.2002 16.4748 19.081 15.0097 19.5474 13.4352C20.056 11.7179 20.1261 9.88442 19.8072 8.12639Z" fill="#4A4A4A"/>
</svg>
