<svg width="19" height="19" viewBox="0 0 19 19" fill="none" xmlns="http://www.w3.org/2000/svg">
<path d="M3.13366 12.6539C1.38833 12.6539 0 11.2656 0 9.52033C0 7.77503 1.38833 6.38672 3.13366 6.38672C4.879 6.38672 6.26734 7.77503 6.26734 9.52033C6.26734 11.226 4.879 12.6539 3.13366 12.6539ZM3.13366 7.53704C2.06266 7.53704 1.19 8.40969 1.19 9.48067C1.19 10.5516 2.06266 11.4243 3.13366 11.4243C4.20466 11.4243 5.07734 10.5516 5.07734 9.48067C5.07734 8.44935 4.20466 7.53704 3.13366 7.53704Z" fill="#4A4A4A"/>
<path d="M15.8661 6.26721C14.1208 6.26721 12.7324 4.8789 12.7324 3.1336C12.7324 1.3883 14.1208 0 15.8661 0C17.6114 0 18.9998 1.3883 18.9998 3.1336C18.9998 4.8789 17.5718 6.26721 15.8661 6.26721ZM15.8661 1.18998C14.7951 1.18998 13.9224 2.06262 13.9224 3.1336C13.9224 4.20458 14.7951 5.07723 15.8661 5.07723C16.9371 5.07723 17.8098 4.20458 17.8098 3.1336C17.8098 2.06262 16.9371 1.18998 15.8661 1.18998Z" fill="#4A4A4A"/>
<path d="M15.8661 18.9977C14.1208 18.9977 12.7324 17.6094 12.7324 15.8641C12.7324 14.1188 14.1208 12.7305 15.8661 12.7305C17.6114 12.7305 18.9998 14.1188 18.9998 15.8641C18.9998 17.6094 17.5718 18.9977 15.8661 18.9977ZM15.8661 13.9204C14.7951 13.9204 13.9224 14.7931 13.9224 15.8641C13.9224 16.9351 14.7951 17.8077 15.8661 17.8077C16.9371 17.8077 17.8098 16.9351 17.8098 15.8641C17.8098 14.7931 16.9371 13.9204 15.8661 13.9204Z" fill="#4A4A4A"/>
<path d="M13.2875 15.3062L5.11621 11.2206L5.67155 10.0703L13.8825 14.1559L13.2875 15.3062Z" fill="#4A4A4A"/>
<path d="M5.67253 8.9228L5.11719 7.81214L13.2885 3.72656L13.8835 4.8372L5.67253 8.9228Z" fill="#4A4A4A"/>
</svg>
