<svg width="23" height="20" viewBox="0 0 23 20" fill="none" xmlns="http://www.w3.org/2000/svg">
<path d="M13.7627 4.8807C13.685 4.7657 13.5802 4.67154 13.4575 4.60653C13.3349 4.54151 13.1981 4.50761 13.0593 4.50782H9.19491C9.02616 4.50698 8.86099 4.55653 8.72058 4.65014C8.58017 4.74375 8.4709 4.87715 8.40678 5.03325L6.95762 8.60951L5.5 5.03325C5.43587 4.87715 5.3266 4.74375 5.18619 4.65014C5.04578 4.55653 4.88062 4.50698 4.71186 4.50782H0.847457C0.622698 4.50782 0.407143 4.59711 0.248214 4.75604C0.0892854 4.91497 0 5.13052 0 5.35528C0 5.58004 0.0892854 5.79559 0.248214 5.95452C0.407143 6.11345 0.622698 6.20274 0.847457 6.20274H4.14407L6.16949 11.1773C6.23361 11.3334 6.34288 11.4668 6.48329 11.5604C6.62371 11.654 6.78887 11.7036 6.95762 11.7027C7.12638 11.7036 7.29154 11.654 7.43195 11.5604C7.57237 11.4668 7.68163 11.3334 7.74576 11.1773L9.76271 6.20274H11.7966L6.8644 18.3044H4.83051L5.81356 15.8976C5.89832 15.6913 5.89832 15.4599 5.81356 15.2536L3.16949 8.79596C3.1272 8.69301 3.06505 8.59941 2.98658 8.52048C2.90812 8.44156 2.81487 8.37887 2.71218 8.33598C2.60948 8.29309 2.49935 8.27085 2.38806 8.27052C2.27677 8.2702 2.1665 8.2918 2.06356 8.33409C1.96062 8.37638 1.86701 8.43853 1.78809 8.517C1.70916 8.59547 1.64647 8.68871 1.60358 8.7914C1.56069 8.8941 1.53845 9.00423 1.53813 9.11553C1.5378 9.22682 1.5594 9.33708 1.60169 9.44002L4.14407 15.5926L2.77966 18.8298C2.72664 18.9589 2.7063 19.099 2.72045 19.2378C2.7346 19.3766 2.7828 19.5098 2.86077 19.6255C2.93874 19.7412 3.04407 19.8359 3.16741 19.9011C3.29075 19.9663 3.42828 20 3.56779 19.9993H7.4322C7.60095 20.0002 7.76612 19.9506 7.90653 19.857C8.04694 19.7634 8.15621 19.63 8.22033 19.4739L13.8475 5.67731C13.9001 5.54784 13.9199 5.40735 13.9051 5.26836C13.8904 5.12937 13.8414 4.9962 13.7627 4.8807Z" fill="#4A4A4A"/>
<path d="M22.5936 0.372882C22.5159 0.257874 22.4111 0.163723 22.2884 0.0987046C22.1658 0.0336863 22.029 -0.000208182 21.8902 9.62032e-07H18.0258C17.8585 0.000836115 17.6952 0.0511775 17.5564 0.14468C17.4177 0.238183 17.3097 0.370663 17.2461 0.525425L13.5597 9.64406C13.5072 9.77179 13.4867 9.91041 13.5 10.0479C13.5133 10.1853 13.56 10.3174 13.6361 10.4327C13.7121 10.548 13.8151 10.643 13.9362 10.7093C14.0573 10.7757 14.1928 10.8115 14.3309 10.8136H18.1953C18.3626 10.8127 18.5259 10.7624 18.6647 10.6689C18.8034 10.5754 18.9114 10.4429 18.975 10.2881L22.6783 1.16102C22.7295 1.03269 22.7486 0.893797 22.7338 0.756431C22.719 0.619064 22.6709 0.487392 22.5936 0.372882ZM17.619 9.11864H15.5851L18.6444 1.69492H20.6783L17.619 9.11864Z" fill="#4A4A4A"/>
<path d="M14.7551 11.4062C14.1835 11.4062 13.6248 11.5757 13.1496 11.8933C12.6743 12.2108 12.3039 12.6621 12.0852 13.1902C11.8665 13.7182 11.8093 14.2993 11.9208 14.8599C12.0323 15.4204 12.3075 15.9353 12.7116 16.3395C13.1158 16.7436 13.6307 17.0189 14.1913 17.1304C14.7519 17.2419 15.3329 17.1847 15.861 16.9659C16.389 16.7472 16.8403 16.3768 17.1579 15.9016C17.4754 15.4264 17.6449 14.8676 17.6449 14.2961C17.6449 13.5296 17.3404 12.7946 16.7985 12.2527C16.2565 11.7107 15.5215 11.4062 14.7551 11.4062ZM14.7551 15.491C14.5187 15.491 14.2877 15.4209 14.0912 15.2896C13.8947 15.1583 13.7415 14.9717 13.6511 14.7534C13.5607 14.535 13.537 14.2948 13.5831 14.063C13.6292 13.8312 13.743 13.6183 13.9101 13.4511C14.0772 13.284 14.2902 13.1702 14.5219 13.1241C14.7537 13.078 14.994 13.1017 15.2123 13.1921C15.4307 13.2826 15.6173 13.4357 15.7486 13.6322C15.8799 13.8287 15.95 14.0597 15.95 14.2961C15.95 14.613 15.8241 14.9169 15.6 15.141C15.3759 15.3651 15.072 15.491 14.7551 15.491Z" fill="#4A4A4A"/>
</svg>
