<svg width="21" height="21" viewBox="0 0 21 21" fill="none" xmlns="http://www.w3.org/2000/svg">
<circle cx="10.5" cy="10.5" r="10.5" fill="#201E0D"/>
<path d="M15.1234 11.4167H11.4167V15.1234C11.4167 15.6076 11.007 16 10.5 16C9.99297 16 9.58333 15.6076 9.58333 15.1234V11.4167H5.87656C5.39245 11.4167 5 11.007 5 10.5C5 9.99297 5.39245 9.58333 5.87656 9.58333H9.58333V5.87656C9.58333 5.39245 9.99297 5 10.5 5C11.007 5 11.4167 5.39245 11.4167 5.87656V9.58333H15.1234C15.6076 9.58333 16 9.99297 16 10.5C16 11.007 15.6076 11.4167 15.1234 11.4167Z" fill="white"/>
</svg>
