<svg width="24" height="25" viewBox="0 0 24 25" fill="none" xmlns="http://www.w3.org/2000/svg">
<path d="M12.8563 24.0018H11.142C10.1949 24.0018 9.42773 23.2611 9.42773 22.3466V20.6914H14.5706V22.3466C14.5706 23.2611 13.8034 24.0018 12.8563 24.0018Z" stroke="white" stroke-miterlimit="10" stroke-linejoin="round"/>
<path d="M18 11.5861C18 13.67 16.9834 15.6322 15.2571 16.8827L14.5714 17.3793V20.6896H9.42857V17.3793L8.74286 16.8827C7.01657 15.6322 6 13.67 6 11.5861C6 8.38665 8.68629 5.79297 12 5.79297C15.3137 5.79297 18 8.38665 18 11.5861Z" stroke="white" stroke-miterlimit="10" stroke-linejoin="round"/>
<path d="M12 3.31037V0" stroke="white" stroke-miterlimit="10" stroke-linejoin="round"/>
<path d="M5.93951 5.73579L3.51465 3.39453" stroke="white" stroke-miterlimit="10" stroke-linejoin="round"/>
<path d="M18.0605 5.73579L20.4854 3.39453" stroke="white" stroke-miterlimit="10" stroke-linejoin="round"/>
<path d="M3.42857 11.5859H0" stroke="white" stroke-miterlimit="10" stroke-linejoin="round"/>
<path d="M20.5723 11.5859H24.0008" stroke="white" stroke-miterlimit="10" stroke-linejoin="round"/>
</svg>
