<svg width="102" height="101" viewBox="0 0 102 101" fill="none" xmlns="http://www.w3.org/2000/svg">
<path d="M71.8143 29.3997C71.0333 28.6177 69.7673 28.6177 68.9863 29.3997L51.0313 47.3567L33.0763 29.3997C32.2953 28.6177 31.0293 28.6177 30.2483 29.3997C29.4673 30.1807 29.4673 31.4467 30.2483 32.2277L48.2033 50.1847L30.2483 68.1417C29.4673 68.9217 29.4673 70.1887 30.2483 70.9697C30.6393 71.3597 31.1503 71.5547 31.6623 71.5547C32.1743 71.5547 32.6853 71.3597 33.0763 70.9697L51.0313 53.0137L68.9863 70.9697C69.3773 71.3597 69.8883 71.5547 70.4003 71.5547C70.9123 71.5547 71.4233 71.3597 71.8143 70.9697C72.5953 70.1887 72.5953 68.9217 71.8143 68.1417L53.8593 50.1847L71.8143 32.2277C72.5963 31.4477 72.5963 30.1807 71.8143 29.3997ZM51.0313 0.0546875C23.3893 0.0546875 0.902344 22.5417 0.902344 50.1817C0.904344 77.8247 23.3933 100.313 51.0353 100.313C78.6743 100.313 101.16 77.8237 101.16 50.1817C101.16 22.5417 78.6733 0.0546875 51.0313 0.0546875ZM51.0353 96.3137H51.0333C25.5983 96.3137 4.90434 75.6187 4.90234 50.1827C4.90234 24.7477 25.5953 4.05569 51.0313 4.05569C76.4673 4.05569 97.1603 24.7487 97.1603 50.1827C97.1603 75.6177 76.4693 96.3137 51.0353 96.3137Z" fill="white"/>
</svg>
