<svg width="22" height="23" viewBox="0 0 22 23" fill="none" xmlns="http://www.w3.org/2000/svg">
<path d="M11.379 22.0031H9.86188C9.02365 22.0031 8.34473 21.3241 8.34473 20.4859V18.9688H12.8962V20.4859C12.8962 21.3241 12.2173 22.0031 11.379 22.0031Z" stroke="black" stroke-miterlimit="10" stroke-linejoin="round"/>
<path d="M15.9297 10.6186C15.9297 12.5287 15.03 14.3273 13.5022 15.4736L12.8954 15.9287V18.963H8.34389V15.9287L7.73702 15.4736C6.20924 14.3273 5.30957 12.5287 5.30957 10.6186C5.30957 7.68598 7.68696 5.30859 10.6196 5.30859C13.5523 5.30859 15.9297 7.68598 15.9297 10.6186Z" stroke="black" stroke-miterlimit="10" stroke-linejoin="round"/>
<path d="M10.6201 3.03432V0" stroke="black" stroke-miterlimit="10" stroke-linejoin="round"/>
<path d="M5.25637 5.2593L3.11035 3.11328" stroke="black" stroke-miterlimit="10" stroke-linejoin="round"/>
<path d="M15.9834 5.2593L18.1294 3.11328" stroke="black" stroke-miterlimit="10" stroke-linejoin="round"/>
<path d="M3.03432 10.6211H0" stroke="black" stroke-miterlimit="10" stroke-linejoin="round"/>
<path d="M18.2061 10.6211H21.2404" stroke="black" stroke-miterlimit="10" stroke-linejoin="round"/>
</svg>
