<?xml version="1.0" encoding="UTF-8"?>
<svg id="Layer_1" data-name="Layer 1" xmlns="http://www.w3.org/2000/svg" xmlns:xlink="http://www.w3.org/1999/xlink" viewBox="0 0 259.13 127.99">
  <defs>
    <style>
      .cls-1 {
        fill: #1a181c;
      }

      .cls-2 {
        fill: #0b9d58;
      }

      .cls-3 {
        fill: #f2b41c;
      }

      .cls-4 {
        clip-path: url(#clippath-1);
      }

      .cls-5 {
        clip-path: url(#clippath);
      }

      .cls-6 {
        fill: none;
      }

      .cls-7 {
        fill: #db4536;
      }

      .cls-8 {
        fill: #f3b41b;
      }

      .cls-9 {
        fill: #db4535;
        fill-rule: evenodd;
      }
    </style>
    <clipPath id="clippath">
      <rect class="cls-6" x="54.56" width="205.33" height="57"/>
    </clipPath>
    <clipPath id="clippath-1">
      <rect class="cls-6" x="219.9" y="57.81" width="25.31" height="20.98"/>
    </clipPath>
  </defs>
  <path class="cls-1" d="M.83,127.89c-.38-.08-.66-.46-.83-1.13,0-.47,.09-1.08,.27-1.83,.38-2.54,1.22-5.93,2.54-10.17,.47-1.5,.8-3.15,1-4.94,.38-9.03,.75-15.9,1.13-20.6,.18-2.54,.51-6.09,.98-10.65,.47-4.57,.76-7.46,.85-8.69l1.42-14.1c1.03-12.61,2.34-22.58,3.94-29.92l.71-3.25c.09-.19,.21-.48,.35-.85,.14-.38,.21-.61,.21-.71,.09-.28,.33-.42,.71-.42,.28,0,.61,.19,1,.56,.08,.29,.13,.95,.13,1.98-.28,1.89-.6,4.72-.98,8.48-.75,6.11-1.27,10.95-1.56,14.52-.28,2.36-.64,5.95-1.06,10.75-.42,4.79-.72,8.41-.9,10.85-1.42,13.64-2.36,23.28-2.83,28.92v2.27c.47-.29,.9-1.05,1.27-2.27,2.64-7.33,7.96-20.78,15.96-40.35,3.38-8.09,6.05-14.11,8.04-18.06,2.44-4.89,4.89-8.98,7.33-12.27,.47-.67,1.17-1.56,2.1-2.69,1.98-1.79,3.26-1.42,3.81,1.13,.19,.95,.29,1.7,.29,2.25,0,3.21-.1,5.56-.29,7.06-.38,4.04-1.5,11.85-3.38,23.44-1.7,10.25-3.06,18.62-4.1,25.1-.18,1.32-.42,3.25-.71,5.79-.28,2.54-.51,4.47-.69,5.79,.38-.28,.8-.94,1.27-1.98,1.59-5.08,3.24-9.46,4.94-13.13,.93-2.17,2.05-4.14,3.38-5.92,.57-.84,1.09-1.42,1.56-1.71,.47-.47,1.01-.66,1.63-.56,.61,.1,1.05,.47,1.33,1.13,.38,1.14,.61,1.99,.71,2.54,.28,1.89,.6,5.04,.98,9.46,.57,4.14,1.14,7.2,1.71,9.17,.38,1.42,.94,2.69,1.69,3.81,.94,1.7,2.26,2.88,3.96,3.54,1.3,.56,2.61,.65,3.94,.27,2.54-.55,5.27-1.92,8.19-4.08,3.58-2.92,6.64-5.83,9.17-8.75,.29-.29,.57-.59,.85-.92,.28-.33,.63-.69,1.04-1.06,.43-.38,.74-.66,.94-.85,.18,0,.32,.05,.42,.15,.09,.1,.15,.29,.15,.56l-.98,1.27c-.2,.2-.7,.79-1.5,1.77-.79,.99-1.33,1.63-1.63,1.92s-.79,.84-1.54,1.69c-.75,.85-1.39,1.48-1.92,1.9-.52,.42-1.18,.96-1.98,1.63-.79,.66-1.61,1.29-2.46,1.9-.85,.61-1.74,1.2-2.67,1.77-1.7,1.04-3.2,1.79-4.52,2.25-4.33,1.52-7.82,.44-10.46-3.23-.93-1.32-1.73-3.01-2.4-5.08-.56-2.17-1.12-5.42-1.69-9.75-.38-3.94-.7-6.95-.98-9.02,0-.29-.1-.71-.29-1.27-.18-.67-.56-.8-1.13-.42-.95,1.31-1.66,2.34-2.13,3.1-1.7,2.72-3.39,6.44-5.08,11.15-.46,1.32-1.11,3.3-1.96,5.94-.85,2.63-1.51,4.6-1.98,5.92,0,.08-.05,.29-.15,.63-.1,.33-.2,.57-.29,.71-.08,.14-.22,.29-.42,.44-.18,.14-.42,.16-.71,.06-.28,0-.47-.09-.56-.27-.1-.19-.17-.36-.21-.5-.04-.15-.04-.39,0-.71,.04-.33,.06-.55,.06-.65-.08-1.97,.2-6.01,.85-12.13,.84-6.68,2.4-16.61,4.67-29.79,1.22-7.15,2.34-14.68,3.38-22.58,.47-3.29,.52-6.3,.15-9.02,0-.47-.14-.8-.42-1-.29-.08-.68,.11-1.15,.58-.47,.46-1.08,1.16-1.83,2.1-2.63,3.39-5.4,8.1-8.31,14.13-1.61,3.47-5.47,12.45-11.58,26.94-4.79,11.67-8.98,22.54-12.56,32.6-1.22,3.29-1.89,6.4-1.98,9.31-.28,5.46-1.45,10.59-3.52,15.4-.38,1.13-.85,1.93-1.42,2.4-.38,.38-.8,.47-1.27,.27Z"/>
  <path class="cls-1" d="M103.44,84.99c.28,0,.32,.17,.13,.5-.18,.33-.6,.5-1.27,.5l-7.9,.42h-1.27c0,.1-.03,.29-.08,.56-.04,.28-.06,.52-.06,.71-.38,1.5-.75,2.63-1.13,3.38-.57,1.14-1.28,2.14-2.13,2.98-1.97,1.5-3.71,1.27-5.21-.71-.85-.94-1.27-2.4-1.27-4.38,.18-1.97,.98-3.9,2.4-5.79,1.04-1.03,1.89-1.35,2.54-.98,.19,.08,.24,.27,.15,.56,.55-.19,1.02-.29,1.4-.29,1.61,0,2.65,.85,3.13,2.54h1.54c1.42-.09,3.96-.15,7.63-.15,.09,0,.3,.03,.63,.08,.33,.04,.59,.06,.79,.06Zm-12,0c-.57-1.59-1.37-2.11-2.4-1.54-.29,.18-.44,.41-.44,.69,0,.57,.94,.85,2.83,.85Zm-1.98,7.33c1.32-1.22,2.07-2.96,2.25-5.21v-.71c-2.72-.19-4.08-.95-4.08-2.27v-.42c-1.6,2.17-2.07,4.71-1.42,7.63,.19,.95,.61,1.52,1.27,1.71,.67,.18,1.32-.06,1.98-.73Z"/>
  <path class="cls-1" d="M104.71,93.47c-1.04,.83-1.75,.6-2.13-.71-.28-.94-.32-2.26-.13-3.96,.08-.84,.31-1.88,.69-3.1,.19-.57,.48-.85,.85-.85,.38,.1,.56,.48,.56,1.15-.18,.75-.27,1.41-.27,1.96-.2,1.52-.2,2.65,0,3.4,1.22-1.22,2.07-2.11,2.54-2.69,1.68-1.69,3.23-2.92,4.65-3.67,2.07-1.32,4.09-1.22,6.06,.29,.84,.66,1.93,1.54,3.25,2.67,.75,.95,2.18,1.26,4.29,.94,2.13-.33,4.01-.76,5.65-1.27,1.65-.53,3.23-1.11,4.75-1.77,.28-.19,.72-.41,1.33-.65,.61-.23,1.05-.4,1.33-.48,.47,0,.8,.14,1,.42,.09,.18,0,.42-.29,.71-1.7,1.22-3.74,2.33-6.15,3.31-2.39,.99-4.89,1.67-7.48,2.04-2.58,.38-4.63,0-6.13-1.13-1.52-.94-2.6-1.69-3.25-2.25-1.13-.76-2.35-.86-3.67-.29-1.97,1.13-3.76,2.49-5.35,4.08l-2.13,1.85Z"/>
  <g class="cls-5">
    <path class="cls-1" d="M243.49,46V12.99h-33.27v15.44L156.76,0,54.68,53.95l1.52,2.9L156.76,3.67l100.7,53.33,1.52-2.9-15.49-8.1Zm-29.92-29.65h26.73v27.96l-26.73-14.21v-13.76Z"/>
  </g>
  <path class="cls-7" d="M148.74,98.58c-3.99,0-7.02-1.82-9.1-5.48-.08-.33-.23-.78-.44-1.35-.21-.58-.39-1-.54-1.25-1.58-3.15-1.67-9.46-.25-18.92,1.32-9.39,3.93-18.52,7.83-27.4,1.58-3.57,3.28-6.59,5.1-9.08,.83-1.17,2.03-2.49,3.6-3.98,1-.83,2.13-1.58,3.38-2.25,1.57-.67,3.09-.67,4.58,0,1.5,.67,2.54,1.79,3.13,3.38,.5,1.32,.75,3.02,.75,5.08-.08,3.08-.75,6.33-2,9.73-1.32,3.56-3.6,8.16-6.83,13.81-4.07,7.06-9.18,14.56-15.31,22.52-.25,.17-.54,.5-.88,1s-.58,.83-.75,1c-.67,.75-.88,1.58-.63,2.48,.83,2.67,1.42,4.29,1.75,4.85,1.82,3.16,4.55,4.6,8.21,4.35,3.48-.4,7.3-3.8,11.46-10.19,.17-.42,.5-.96,1-1.63,.08-.08,.21-.13,.38-.13,.25,.08,.38,.29,.38,.63l-.38,.75c-4.41,7.79-9.22,11.81-14.44,12.06Zm-8.48-14.44c.33-.17,.92-.79,1.75-1.88,.67-.98,1.93-2.76,3.79-5.33,1.88-2.58,3.3-4.57,4.29-5.98,4.73-7.05,8.47-13.4,11.21-19.04,2.15-4.23,3.52-8.39,4.1-12.46,.33-2.82,.21-5.02-.38-6.6-.5-1.4-1.38-2.33-2.63-2.79-1.24-.46-2.52-.27-3.83,.56-.58,.42-1.38,1.12-2.38,2.1-2.24,2.33-4.23,5.2-5.98,8.6-2.74,5.39-5.02,11.41-6.83,18.04-2.08,7.31-3.25,14.9-3.5,22.77,0,1,.13,1.67,.38,2Z"/>
  <path class="cls-8" d="M164.4,79.41c-.25,0-.44-.04-.56-.13s-.15-.21-.06-.38c.17-1.48,.58-2.73,1.25-3.73,0-.08,.21-.13,.63-.13,.08,0,.25,.13,.5,.38,.08,.17,.13,.42,.13,.75-.42,1.49-.71,2.35-.88,2.6-.25,.42-.58,.63-1,.63Zm-.38,13.06c-1.91-.57-2.85-1.85-2.85-3.85,0-1.32,.29-2.52,.88-3.6,.25-.5,.66-.71,1.23-.63,.58,.17,.88,.54,.88,1.13v1.38c0,.32-.04,.6-.13,.85v.38c-.08,.92,.15,1.65,.69,2.19s1.27,.81,2.19,.81c.67,0,1.49-.21,2.48-.63,1.5-.58,3.2-1.63,5.1-3.13l3-2.23c.4-.25,.69-.33,.85-.25,.17,0,.25,.13,.25,.38s-.08,.38-.25,.38c-3.72,3.07-6.79,5.19-9.21,6.35-1.74,.82-3.44,.98-5.1,.48Z"/>
  <path class="cls-2" d="M205.34,85.14v.38c-.58,.33-1.37,.5-2.35,.5-4.41,.17-11.88,1.95-22.42,5.35-.75,.33-1.17,.7-1.25,1.1,0,.5,.33,.92,1,1.25,2.4,.83,4.56,2.7,6.48,5.6,1.32,2.32,1.78,4.97,1.38,7.96,0,.25-.08,.63-.25,1.13-.92,2.49-2.58,3.24-4.98,2.25-1-.42-1.96-1.29-2.88-2.63-1.66-2.57-2.73-5.3-3.23-8.21l-.63-4.73c0-.75-.42-1.17-1.25-1.25h-1.73c-.58-.17-.88-.38-.88-.63,0-.42,.29-.71,.88-.88,.17,0,.5-.04,1-.13,.49-.08,.88-.18,1.17-.29,.29-.13,.52-.35,.69-.69,.17-.25,.27-.54,.31-.88s.06-.71,.06-1.13v-.88c.58-5.97,1.53-11.03,2.85-15.19,1.08-3.23,2.42-6.09,4-8.58,1.82-2.73,4.43-4.98,7.83-6.73,.83-.42,1.74-.7,2.73-.85,1.25-.17,2.34,.08,3.29,.75,.96,.66,1.56,1.56,1.81,2.73,.08,.25,.17,.63,.25,1.13,.08,.49,.13,.77,.13,.85-.17,2.92-1.12,5.95-2.85,9.1-1.5,2.74-3.99,5.6-7.48,8.58-3.16,2.49-5.81,4.35-7.96,5.6-.92,.58-1.42,1.37-1.5,2.35-.17,1.08-.15,1.73,.06,1.94s.9,.15,2.06-.19c.42-.08,1.68-.48,3.79-1.19,2.11-.71,3.92-1.28,5.42-1.73,1.5-.46,3.51-.92,6.04-1.38,2.53-.46,4.95-.73,7.27-.81,.5,0,.88,.04,1.13,.13v.25Zm-23.52-9.58c-1,3.82-1.54,6.72-1.63,8.71v.5l.63-.5c5.47-3.48,9.71-7.14,12.71-10.96,1.82-2.23,3.1-4.8,3.85-7.71,.5-1.5,.63-2.99,.38-4.48-.42-1.92-1.58-2.79-3.5-2.63-1.07,0-2.06,.33-2.98,1-2.57,1.5-4.44,3.41-5.6,5.73-1.41,2.74-2.69,6.18-3.85,10.33Zm-2.38,19.42c-.25,1.25-.13,2.95,.38,5.1,.5,2.74,1.42,5.18,2.75,7.33,.5,.92,1.16,1.54,1.98,1.88,.83,.25,1.5,0,2-.75,.33-.75,.58-1.61,.75-2.6,.25-2.25-.4-4.47-1.94-6.67-1.53-2.19-3.25-3.63-5.17-4.29h-.75Z"/>
  <path class="cls-3" d="M206.82,94.72c-2.07-.17-3.35-1.32-3.85-3.48-.08-.5-.13-1.21-.13-2.13,0-2.57,.54-4.81,1.63-6.73,.65-.98,1.19-1.65,1.6-1.98,.67-.5,1.42-.75,2.25-.75,.92,0,1.54,.33,1.88,1,.48,.75,.4,1.54-.25,2.35-1.5,1.58-2.92,2.54-4.25,2.88-.91,.17-1.44,.83-1.6,1.98-.17,1.42-.04,2.58,.38,3.5,.5,1.24,1.28,1.94,2.35,2.1,3.07,.33,7.22-2.11,12.46-7.33l1.1-1.13c.25,0,.42,.04,.5,.13,.08,.17,.13,.29,.13,.38,0,.25-.08,.46-.25,.63-1.82,2.16-4.16,4.15-7.02,5.98-2.86,1.82-5.17,2.69-6.92,2.6Zm-1.73-10.46c1.73-.83,2.9-1.66,3.48-2.48,.17-.08,.17-.21,0-.38,0-.17-.13-.25-.38-.25-.5-.17-.96-.04-1.38,.38-.92,.74-1.49,1.65-1.73,2.73Z"/>
  <g class="cls-4">
    <path class="cls-9" d="M233.27,64.01c.31-.04,.68-.94,1.13-1.47,.71-.84,1.61-1.6,2.54-2.21,1.2-.79,2.47-1.42,3.95-1.38,3.26,.09,4.72,2.39,3.89,5.45-.88,3.21-4.82,8.03-7.67,10.1-1.23,.9-4.5,3.08-5.9,3.59-1.94,.71-3.74-1.82-4.79-3.1-2.81-3.44-7.79-9.49-4.66-14.38,2.44-3.8,6.73-2.31,9.33,.4,.52,.54,.29,.07,1.43,1.77,.74,1.12,.44,1.28,.75,1.24Z"/>
  </g>
  <path class="cls-1" d="M27.01,125.75v-.37l-.6-.04c-.57-.04-.64-.14-.64-1.12v-5.59c0-.98,.06-1.08,.64-1.12l.6-.04v-.38c-.61,.03-1.22,.04-1.83,.04s-1.2-.01-1.81-.04v.38l.59,.04c.57,.04,.64,.14,.64,1.12v2.22c-.26,.01-.52,.02-1.03,.02h-2.91c-.51,0-.79-.01-1.04-.02v-2.22c0-.98,.06-1.08,.64-1.12l.6-.04v-.38c-.61,.03-1.22,.04-1.83,.04s-1.2-.01-1.81-.04v.38l.59,.04c.57,.04,.64,.14,.64,1.12v5.59c0,.98-.06,1.08-.64,1.12l-.59,.04v.37c.61-.03,1.2-.04,1.81-.04s1.22,.01,1.83,.04v-.37l-.6-.04c-.57-.04-.64-.14-.64-1.12v-2.78c.34-.03,.54-.03,1.04-.03h2.91c.49,0,.7,0,1.03,.03v2.78c0,.98-.06,1.08-.64,1.12l-.59,.04v.37c.61-.03,1.2-.04,1.81-.04s1.22,.01,1.83,.04Z"/>
  <path class="cls-1" d="M40.54,121.14c0-1.36-.47-2.45-1.32-3.19,.73-.51,1.13-1.54,1.23-1.88l-.14-.08c-.4,.08-.51,.12-1.07,.23,0,.13,.02,.23,.02,.35,0,.45-.08,.81-.46,1.06-.72-.48-1.67-.74-2.76-.74-2.84,0-4.73,1.84-4.73,4.58s1.81,4.49,4.33,4.49c2.79,0,4.91-2.08,4.91-4.82Zm-1.33,.38c0,2.46-1.15,3.92-3.07,3.92-2.09,0-3.5-1.77-3.5-4.43,0-2.3,1.15-3.6,3.19-3.6s3.39,1.52,3.39,4.11Z"/>
  <path class="cls-1" d="M48.48,125.75v-.37l-.6-.04c-.57-.04-.64-.14-.64-1.12v-5.59c0-.98,.06-1.08,.64-1.12l.6-.04v-.38c-.61,.03-1.22,.04-1.83,.04s-1.2-.01-1.81-.04v.38l.59,.04c.57,.04,.64,.14,.64,1.12v5.59c0,.98-.06,1.08-.64,1.12l-.59,.04v.37c.61-.03,1.2-.04,1.81-.04s1.22,.01,1.83,.04Z"/>
  <path class="cls-1" d="M66.76,117.09l-2.69,.04h-1.97l-2.53-.04c.06,.71,.09,1.2,.09,2.01h.39l.05-.98c.02-.3,.15-.41,.5-.41h1.93c.04,.43,.05,.71,.05,1.24v5.27c0,.98-.06,1.08-.64,1.12l-.6,.04v.37c.61-.03,1.21-.04,1.82-.04s1.22,.01,1.83,.04v-.37l-.6-.04c-.57-.04-.64-.14-.64-1.12v-5.27c0-.56,.01-.83,.05-1.24h1.93c.35,0,.48,.11,.5,.41l.05,.98h.39c0-.81,.03-1.3,.09-2.01Z"/>
  <path class="cls-1" d="M80.82,125.75v-.37l-.6-.04c-.57-.04-.64-.14-.64-1.12v-5.59c0-.98,.06-1.08,.64-1.12l.6-.04v-.38c-.61,.03-1.22,.04-1.83,.04s-1.2-.01-1.81-.04v.38l.59,.04c.57,.04,.64,.14,.64,1.12v2.22c-.26,.01-.52,.02-1.03,.02h-2.91c-.51,0-.79-.01-1.04-.02v-2.22c0-.98,.06-1.08,.64-1.12l.6-.04v-.38c-.61,.03-1.22,.04-1.83,.04s-1.2-.01-1.81-.04v.38l.59,.04c.57,.04,.64,.14,.64,1.12v5.59c0,.98-.06,1.08-.64,1.12l-.59,.04v.37c.61-.03,1.2-.04,1.81-.04s1.22,.01,1.83,.04v-.37l-.6-.04c-.57-.04-.64-.14-.64-1.12v-2.78c.34-.03,.54-.03,1.04-.03h2.91c.49,0,.7,0,1.03,.03v2.78c0,.98-.06,1.08-.64,1.12l-.59,.04v.37c.61-.03,1.2-.04,1.81-.04s1.22,.01,1.83,.04Z"/>
  <path class="cls-1" d="M94.35,121.14c0-1.36-.47-2.45-1.32-3.19,.73-.51,1.13-1.54,1.23-1.88l-.14-.08c-.4,.08-.51,.12-1.07,.23,0,.13,.02,.23,.02,.35,0,.45-.08,.81-.46,1.06-.72-.48-1.67-.74-2.76-.74-2.84,0-4.73,1.84-4.73,4.58s1.81,4.49,4.33,4.49c2.79,0,4.91-2.08,4.91-4.82Zm-1.33,.38c0,2.46-1.15,3.92-3.07,3.92-2.09,0-3.5-1.77-3.5-4.43,0-2.3,1.15-3.6,3.19-3.6s3.39,1.52,3.39,4.11Zm-2.09-6.85c0-.41-.46-.73-1.1-.73-.22,0-.43,.06-.78,.18l-.3,.61,.39,.08,.15-.26c.04-.06,.18-.11,.38-.11,.32,0,.56,.14,.56,.3,0,.13-.08,.22-.4,.46-.35,.29-.44,.41-.44,.58,0,.16,.24,.38,.34,.41l.31-.15c-.15-.14-.21-.21-.21-.21,0-.08,.07-.11,.47-.39,.39-.24,.64-.51,.64-.77Z"/>
  <path class="cls-1" d="M116.75,125.75v-.37l-.6-.04c-.57-.04-.64-.14-.64-1.12v-5.59c0-.97,.06-1.08,.64-1.12l.53-.04v-.38c-.39,.03-.77,.04-1.16,.04s-.78-.01-1.18-.04l-3.26,6.92-3.29-6.92c-.4,.03-.78,.04-1.18,.04s-.78-.01-1.18-.04v.38l.55,.04c.57,.04,.64,.15,.64,1.12v5.59c0,.97-.06,1.08-.64,1.12l-.55,.04v.37c.48-.03,.96-.04,1.44-.04s1,.01,1.49,.04v-.37l-.55-.04c-.57-.04-.64-.15-.64-1.12v-5.7l3.47,7.35h.25c.31-.67,.41-1.02,.67-1.58l2.21-4.71,.55-1.07v5.7c0,.98-.05,1.07-.64,1.12l-.42,.04v.37c.54-.03,1.06-.04,1.59-.04,.63,0,1.26,.01,1.88,.04Z"/>
  <path class="cls-1" d="M130.26,121.14c0-2.61-1.74-4.26-4.51-4.26s-4.73,1.84-4.73,4.58,1.81,4.49,4.33,4.49c2.79,0,4.91-2.08,4.91-4.82Zm-1.33,.38c0,2.46-1.15,3.92-3.07,3.92-2.09,0-3.5-1.77-3.5-4.43,0-2.3,1.15-3.6,3.19-3.6s3.39,1.52,3.39,4.11Z"/>
  <path class="cls-1" d="M144.4,117.47v-.38c-.5,.03-.99,.04-1.49,.04s-.96-.01-1.44-.04v.38l.55,.04c.57,.04,.64,.15,.64,1.12v5.86l-5.99-7.4s-.41,.04-.67,.04c-.58,0-1.49-.04-1.49-.04v.38l.55,.04c.57,.04,.64,.15,.64,1.12v5.59c0,.97-.06,1.08-.64,1.12l-.55,.04v.37c.48-.03,.96-.04,1.44-.04s.99,.01,1.49,.04v-.37l-.55-.04c-.57-.04-.63-.15-.63-1.12v-5.76l5.89,7.31,1.12,.2c0-.13-.04-.34-.04-.46v-6.87c0-.97,.06-1.08,.64-1.12l.55-.04Z"/>
  <path class="cls-1" d="M155.77,117.09l-2.69,.04h-1.97l-2.53-.04c.06,.71,.09,1.2,.09,2.01h.39l.05-.98c.02-.3,.15-.41,.5-.41h1.93c.04,.43,.05,.71,.05,1.24v5.27c0,.98-.06,1.08-.64,1.12l-.6,.04v.37c.61-.03,1.21-.04,1.82-.04s1.22,.01,1.83,.04v-.37l-.6-.04c-.57-.04-.64-.14-.64-1.12v-5.27c0-.56,.01-.83,.05-1.24h1.93c.35,0,.48,.11,.5,.41l.05,.98h.39c0-.81,.03-1.3,.09-2.01Z"/>
  <path class="cls-1" d="M166.86,123.67h-.44l-.06,.42c-.07,.54-.23,.92-.41,.98-.27,.09-1.17,.15-2.29,.15-.65,0-.87-.03-1.23-.1v-3.48l1.99-.04c.55,0,.78,.05,.87,.46,.05,.27,.06,.73,.06,.73h.38c-.03-.46-.04-.92-.04-1.39s.02-.96,.04-1.44h-.38s0,.41-.06,.65c-.1,.42-.34,.47-.87,.47-.63,0-1.45-.01-1.99-.05v-3.32c.39-.09,.6-.1,1.46-.1,.71,0,1.41,.06,1.8,.17,.3,.09,.34,.14,.34,.42v.81h.44c0-.75,.06-1.34,.2-1.9l-1.55-.04c-.96,.03-1.93,.04-2.89,.04-.73,0-1.48-.01-2.21-.04v.38l.59,.04c.57,.04,.64,.14,.64,1.12v5.59c0,.98-.05,1.07-.64,1.12l-.45,.04v.37c.51-.03,1.02-.04,1.53-.04,.96,0,1.93,.01,2.89,.04l2.08-.04c0-.72,.07-1.4,.2-2.04Z"/>
  <path class="cls-1" d="M177.36,122.84c0-.58-.16-.99-.51-1.32-.44-.41-.96-.57-2.35-.76-1.52-.2-2.05-.61-2.05-1.57,0-1.05,.79-1.79,1.88-1.79,.48,0,.95,.1,1.28,.29,.41,.21,.55,.4,.58,.76l.08,.71h.4c0-.66,.05-1.08,.18-1.76-.99-.4-1.56-.52-2.24-.52-1.86,0-3.2,1.17-3.2,2.8,0,.61,.16,1.06,.53,1.4,.42,.39,.99,.58,2.2,.74,.96,.14,1.39,.29,1.72,.56,.32,.27,.47,.62,.47,1.09,0,1.12-.93,1.93-2.22,1.93-1,0-1.97-.49-2.03-1l-.1-.83h-.4c.02,.22,.02,.43,.02,.5,0,.57-.03,.84-.1,1.41,.71,.31,1.43,.47,2.15,.47,2.17,0,3.73-1.31,3.73-3.11Z"/>
  <path class="cls-1" d="M187.64,122.84c0-.58-.16-.99-.51-1.32-.44-.41-.96-.57-2.35-.76-1.52-.2-2.05-.61-2.05-1.57,0-1.05,.79-1.79,1.88-1.79,.48,0,.95,.1,1.28,.29,.41,.21,.55,.4,.58,.76l.08,.71h.4c0-.66,.05-1.08,.18-1.76-.99-.4-1.56-.52-2.24-.52-1.86,0-3.2,1.17-3.2,2.8,0,.61,.16,1.06,.53,1.4,.42,.39,.99,.58,2.2,.74,.96,.14,1.39,.29,1.72,.56,.32,.27,.47,.62,.47,1.09,0,1.12-.93,1.93-2.22,1.93-1,0-1.97-.49-2.03-1l-.1-.83h-.4c.02,.22,.02,.43,.02,.5,0,.57-.03,.84-.1,1.41,.71,.31,1.43,.47,2.15,.47,2.17,0,3.73-1.31,3.73-3.11Z"/>
  <path class="cls-1" d="M201.17,121.14c0-2.61-1.74-4.26-4.51-4.26s-4.73,1.84-4.73,4.58,1.81,4.49,4.33,4.49c2.79,0,4.91-2.08,4.91-4.82Zm-1.33,.38c0,2.46-1.15,3.92-3.07,3.92-2.09,0-3.5-1.77-3.5-4.43,0-2.3,1.15-3.6,3.19-3.6s3.39,1.52,3.39,4.11Z"/>
  <path class="cls-1" d="M213.52,125.75v-.37c-.4-.04-.6-.11-.76-.32l-2.82-3.68c.69-.18,1.02-.31,1.43-.6,.65-.46,1-1.08,1-1.8,0-1.2-.81-1.87-2.43-1.87-.75,0-1.48,.04-2.23,.04s-1.43-.01-2.16-.04v.38l.51,.04c.57,.04,.64,.15,.64,1.12v5.59c0,.98-.06,1.08-.64,1.12l-.59,.04v.37c.61-.03,1.2-.04,1.81-.04s1.22,.01,1.83,.04v-.37l-.6-.04c-.57-.04-.64-.14-.64-1.12v-6.49c.42-.1,.8-.15,1.22-.15,1.3,0,2.02,.6,2.02,1.66,0,1.15-.91,1.86-2.35,1.86h-.36v.2c.27,.3,.37,.43,.57,.71l2.29,3.07,.51,.67c.29-.03,.56-.04,.85-.04s.59,.01,.9,.04Z"/>
  <path class="cls-1" d="M221.17,125.75v-.37l-.6-.04c-.57-.04-.64-.14-.64-1.12v-5.59c0-.98,.06-1.08,.64-1.12l.6-.04v-.38c-.61,.03-1.22,.04-1.83,.04s-1.2-.01-1.81-.04v.38l.59,.04c.57,.04,.64,.14,.64,1.12v5.59c0,.98-.06,1.08-.64,1.12l-.59,.04v.37c.61-.03,1.2-.04,1.81-.04s1.22,.01,1.83,.04Z"/>
</svg>