<svg width="28" height="25" viewBox="0 0 28 25" fill="none" xmlns="http://www.w3.org/2000/svg">
<path d="M12.3106 25C5.51146 25 0 19.4037 0 12.5C0 5.59625 5.51146 3.52284e-06 12.3106 3.52284e-06C14.222 -0.00145455 16.1074 0.449719 17.8171 1.31768C19.5267 2.18564 21.0134 3.44647 22.1591 5H18.8229C17.4013 3.7272 15.6482 2.89795 13.774 2.61175C11.8997 2.32556 9.98398 2.59457 8.25658 3.38652C6.52919 4.17847 5.06353 5.4597 4.0355 7.07648C3.00747 8.69327 2.46073 10.5769 2.46089 12.5014C2.46104 14.4259 3.00809 16.3094 4.03639 17.926C5.06469 19.5426 6.53055 20.8236 8.25808 21.6153C9.98561 22.4069 11.9014 22.6756 13.7756 22.3891C15.6498 22.1026 17.4028 21.273 18.8241 20H22.1603C21.0145 21.5537 19.5276 22.8146 17.8177 23.6826C16.1079 24.5506 14.2222 25.0016 12.3106 25ZM20.928 17.5V13.75H11.0795V11.25H20.928V7.5L27.0833 12.5L20.928 17.5Z" fill="#5B712E"/>
</svg>
