<svg width="55" height="55" viewBox="0 0 55 55" fill="none" xmlns="http://www.w3.org/2000/svg">
<path d="M51.4002 9.57919H51.3066V5.62383C51.3055 5.16119 51.1329 4.71467 50.8208 4.36741C50.5087 4.02016 50.0784 3.79582 49.61 3.73618C49.2401 3.68921 48.7932 3.63931 48.2902 3.59494V3.21841C48.2911 2.90869 48.1797 2.60871 47.9758 2.37195C47.7719 2.13519 47.4888 1.97704 47.177 1.92568C45.8687 1.71176 44.5439 1.60961 43.2175 1.62039V1.21445C43.2172 0.892451 43.0865 0.583722 42.8541 0.356032C42.6216 0.128342 42.3064 0.000296094 41.9776 0H39.8963C39.0542 0.000932341 38.2469 0.329003 37.6514 0.912237C37.056 1.49547 36.721 2.28624 36.7201 3.11106V3.21282C36.1062 3.59819 35.5602 4.07859 35.1034 4.63527C35.0299 4.72724 34.936 4.80162 34.8288 4.85277C34.7215 4.90392 34.6039 4.9305 34.4846 4.9305C34.3653 4.9305 34.2477 4.90392 34.1404 4.85277C34.0332 4.80162 33.9393 4.72724 33.8658 4.63527C30.7272 0.785033 23.8313 1.58796 21.7922 1.92568C21.4804 1.97704 21.1973 2.13519 20.9934 2.37195C20.7895 2.60871 20.6781 2.90869 20.679 3.21841V3.59482C20.1761 3.63956 19.7293 3.68948 19.3592 3.73618C18.8909 3.79601 18.4607 4.0204 18.1486 4.36762C17.8366 4.71483 17.6639 5.16124 17.6626 5.62383V9.57919H3.60018C2.64573 9.58008 1.73063 9.95185 1.05573 10.6129C0.380828 11.2739 0.00127214 12.1703 0.000365299 13.1051V37.338C0.000365299 37.3392 0 37.3403 0 37.3415C0 37.3427 0.000353882 37.3438 0.000365299 37.345V41.9534C0.00127214 42.8883 0.380828 43.7846 1.05573 44.4457C1.73063 45.1067 2.64573 45.4785 3.60018 45.4794H23.183L22.0088 53.8817H19.225C19.0736 53.8817 18.9284 53.9406 18.8214 54.0455C18.7143 54.1503 18.6542 54.2926 18.6542 54.4409C18.6542 54.5892 18.7143 54.7314 18.8214 54.8362C18.9284 54.9411 19.0736 55 19.225 55H35.9938C36.1452 55 36.2904 54.9411 36.3975 54.8362C36.5045 54.7314 36.5647 54.5892 36.5647 54.4409C36.5647 54.2926 36.5045 54.1503 36.3975 54.0455C36.2904 53.9406 36.1452 53.8817 35.9938 53.8817H33.21L32.036 45.4794H51.4002C52.3546 45.4783 53.2696 45.1064 53.9444 44.4454C54.6193 43.7844 54.9989 42.8882 55 41.9534V13.1051C54.9989 12.1703 54.6193 11.2741 53.9444 10.6131C53.2696 9.9521 52.3546 9.58027 51.4002 9.57919ZM23.1612 53.8817L24.3353 45.4797H30.8837L32.0577 53.8817H23.1612ZM51.4002 10.6975C52.0519 10.6983 52.6766 10.9522 53.1374 11.4035C53.5982 11.8549 53.8575 12.4668 53.8583 13.1051V14.4381H51.3066V10.6975H51.4002ZM21.8207 3.21841C21.8204 3.17304 21.8365 3.12902 21.8662 3.0942C21.8959 3.05938 21.9372 3.03602 21.9829 3.0283C23.8655 2.7163 30.2249 1.96035 32.973 5.33308C33.2149 5.63051 33.5427 5.84964 33.9136 5.96191V18.2556C33.9112 18.3975 33.9624 18.5353 34.0575 18.6425C34.1525 18.7497 34.2847 18.8186 34.4285 18.8361C34.5078 18.8438 34.5879 18.8351 34.6635 18.8106C34.7392 18.7861 34.8088 18.7463 34.8678 18.6939C34.9268 18.6415 34.974 18.5775 35.0063 18.5062C35.0386 18.4348 35.0553 18.3577 35.0553 18.2796V5.9618C35.4263 5.84954 35.7542 5.63046 35.9962 5.33309C36.2132 5.06733 36.4556 4.82244 36.7201 4.60174V7.48914C36.7203 7.70011 36.7897 7.90544 36.9182 8.07479C37.0467 8.24413 37.2273 8.36851 37.4335 8.42956C37.6397 8.49061 37.8605 8.48509 38.0632 8.41382C38.2659 8.34254 38.4399 8.20928 38.5594 8.03374L39.0355 7.33034L39.5127 8.03374C39.6035 8.16873 39.727 8.27954 39.8723 8.35625C40.0176 8.43295 40.18 8.47314 40.345 8.47322C40.4445 8.47289 40.5433 8.4582 40.6384 8.42961C40.8451 8.36953 41.0263 8.24536 41.1548 8.07576C41.2833 7.90617 41.3521 7.70031 41.3508 7.48914V5.30066C41.3509 5.22276 41.3343 5.14571 41.3022 5.07445C41.2701 5.00319 41.2231 4.9393 41.1643 4.88688C41.1054 4.83446 41.0361 4.79466 40.9606 4.77004C40.8852 4.74543 40.8053 4.73653 40.7261 4.74394C40.582 4.76081 40.4493 4.82944 40.3538 4.93655C40.2583 5.04367 40.2068 5.18165 40.2091 5.32383V7.04071L39.5116 6.01077C39.4594 5.93406 39.3887 5.87116 39.3057 5.82766C39.2228 5.78415 39.1301 5.76139 39.036 5.76139C38.9419 5.76139 38.8493 5.78415 38.7663 5.82766C38.6834 5.87116 38.6127 5.93406 38.5605 6.01077L37.8618 7.04071V3.11107C37.8618 3.04906 37.8656 2.98793 37.8713 2.92735C37.8725 2.91425 37.8738 2.90121 37.8753 2.88821C37.9316 2.40163 38.1687 1.95234 38.5414 1.62595C38.9141 1.29955 39.3964 1.11887 39.8963 1.11833H41.9776C42.0037 1.11833 42.0287 1.12846 42.0471 1.14649C42.0655 1.16453 42.0758 1.18899 42.0758 1.2145V1.66628C41.8509 1.68194 41.6249 1.70207 41.3977 1.72667C41.151 1.75359 40.9029 1.78667 40.6549 1.8262C40.5436 1.84396 40.4424 1.89991 40.3693 1.98405C40.2962 2.0682 40.256 2.17505 40.2559 2.28553V3.37645C40.2536 3.51863 40.3051 3.65661 40.4006 3.76372C40.4961 3.87083 40.6288 3.93946 40.7729 3.95634C40.8521 3.96374 40.932 3.95485 41.0074 3.93023C41.0829 3.90562 41.1522 3.86582 41.2111 3.81339C41.2699 3.76097 41.3169 3.69708 41.349 3.62582C41.3812 3.55456 41.3977 3.47751 41.3977 3.39961V2.84158C41.6249 2.81475 41.8509 2.7935 42.0758 2.77784C42.2337 2.76642 43.3374 2.73087 43.3968 2.73087C44.5996 2.73444 45.8 2.83393 46.9863 3.02834C47.032 3.03606 47.0733 3.05941 47.103 3.09423C47.1327 3.12905 47.1488 3.17308 47.1485 3.21844V19.0197C47.1486 19.0463 47.143 19.0726 47.132 19.0969C47.121 19.1212 47.1048 19.143 47.0845 19.1607C47.0643 19.1791 47.0403 19.1932 47.0141 19.2018C46.9879 19.2105 46.9602 19.2136 46.9327 19.211C40.1641 18.6189 36.6027 20.6383 35.0553 21.9316V20.5241C35.0577 20.3822 35.0065 20.2444 34.9114 20.1372C34.8164 20.03 34.6842 19.9611 34.5404 19.9436C34.4611 19.9359 34.381 19.9446 34.3054 19.9691C34.2297 19.9936 34.1601 20.0334 34.1011 20.0858C34.0421 20.1382 33.9949 20.2021 33.9626 20.2735C33.9303 20.3448 33.9136 20.422 33.9136 20.5001V21.9312C32.5559 20.7968 29.6497 19.1047 24.3896 19.1047C23.652 19.1047 22.8688 19.1383 22.0365 19.211C22.0093 19.2134 21.9818 19.2103 21.9559 19.2018C21.93 19.1933 21.9061 19.1797 21.8858 19.1617C21.8656 19.1437 21.8493 19.1218 21.8381 19.0974C21.8269 19.073 21.821 19.0465 21.8207 19.0198V3.21841ZM18.8043 5.62383C18.8051 5.43282 18.8766 5.24857 19.0055 5.10524C19.1344 4.96191 19.312 4.86923 19.5054 4.84439C19.8229 4.80426 20.2214 4.7594 20.679 4.71815V19.0197C20.6792 19.2018 20.7181 19.3818 20.7932 19.5483C20.8683 19.7148 20.9779 19.8642 21.1152 19.987C21.2524 20.1097 21.4143 20.2031 21.5904 20.2613C21.7665 20.3195 21.953 20.3411 22.1381 20.3248C28.5694 19.7634 31.8427 21.6499 33.223 22.8241C33.5736 23.1206 34.0214 23.2837 34.4846 23.2837C34.9478 23.2837 35.3956 23.1206 35.7462 22.8241C37.1254 21.6499 40.4009 19.7634 46.8311 20.3248C47.0162 20.3411 47.2027 20.3195 47.3788 20.2613C47.5549 20.2031 47.7168 20.1097 47.854 19.987C47.9913 19.8642 48.1009 19.7148 48.176 19.5483C48.2511 19.3818 48.29 19.2018 48.2902 19.0197V4.71838C48.7474 4.75937 49.1457 4.80411 49.4638 4.84446C49.6572 4.8693 49.8348 4.96197 49.9637 5.1053C50.0926 5.24863 50.1641 5.43289 50.1649 5.6239V21.2944C50.1648 21.4017 50.1422 21.5079 50.0986 21.6063C50.0551 21.7048 49.9914 21.7935 49.9115 21.8669C49.8316 21.9404 49.7372 21.997 49.6341 22.0334C49.531 22.0697 49.4214 22.085 49.312 22.0783C42.2106 21.6243 38.1826 23.3744 36.0545 24.9232C35.5993 25.2507 35.0493 25.4273 34.4846 25.4273C33.9199 25.4273 33.3699 25.2507 32.9147 24.9232C31.0195 23.5443 27.6172 22.0056 21.8778 22.0056C21.1734 22.0056 20.4336 22.028 19.6572 22.0783C19.5478 22.085 19.4382 22.0697 19.3351 22.0334C19.232 21.997 19.1376 21.9404 19.0577 21.8669C18.9778 21.7935 18.9141 21.7048 18.8705 21.6063C18.827 21.5079 18.8044 21.4017 18.8043 21.2944V5.62383ZM3.60018 10.6975H17.6626V14.4381H1.14208V13.1051C1.14268 12.4668 1.40185 11.8547 1.86271 11.4033C2.32356 10.9519 2.94844 10.6981 3.60018 10.6975ZM51.4002 44.3611H3.60018C2.94838 44.3607 2.32339 44.1069 1.8625 43.6554C1.40161 43.204 1.14249 42.5918 1.14208 41.9534V37.9006H45.652C45.8034 37.9006 45.9486 37.8417 46.0556 37.7369C46.1627 37.632 46.2228 37.4898 46.2228 37.3415C46.2228 37.1932 46.1627 37.051 46.0556 36.9461C45.9486 36.8412 45.8034 36.7823 45.652 36.7823H1.14208V15.5564H17.6626V19.7822H13.433C13.2816 19.7822 13.1364 19.8411 13.0293 19.9459C12.9223 20.0508 12.8621 20.193 12.8621 20.3413C12.8621 20.4896 12.9223 20.6318 13.0293 20.7367C13.1364 20.8416 13.2816 20.9005 13.433 20.9005H17.6627V21.2943C17.6634 21.5673 17.7241 21.837 17.8406 22.085H13.433C13.2816 22.085 13.1364 22.1439 13.0293 22.2488C12.9223 22.3537 12.8621 22.4959 12.8621 22.6442C12.8621 22.7925 12.9223 22.9347 13.0293 23.0395C13.1364 23.1444 13.2816 23.2033 13.433 23.2033H19.694C19.7354 23.2031 19.7766 23.1985 19.817 23.1895C26.5182 22.7772 30.2676 24.3903 32.2343 25.8211C32.8838 26.2973 33.6733 26.5547 34.4846 26.5547C35.296 26.5547 36.0855 26.2973 36.735 25.8211C38.7101 24.3841 42.4823 22.7626 49.2378 23.1943C49.503 23.2108 49.7688 23.1739 50.0189 23.0859C50.269 22.9979 50.498 22.8607 50.6919 22.6826C50.8857 22.5046 51.0402 22.2896 51.146 22.0508C51.2517 21.812 51.3064 21.5546 51.3066 21.2943V15.5564H53.8583V36.7823H48.2078C48.0564 36.7823 47.9112 36.8412 47.8041 36.9461C47.6971 37.051 47.6369 37.1932 47.6369 37.3415C47.6369 37.4898 47.6971 37.632 47.8041 37.7369C47.9112 37.8417 48.0564 37.9006 48.2078 37.9006H53.8583V41.9534C53.8577 42.5918 53.5985 43.2038 53.1377 43.6552C52.6768 44.1066 52.0519 44.3605 51.4002 44.3611V44.3611Z" fill="white"/>
<path d="M27.4998 39.2662C27.1221 39.2662 26.753 39.3759 26.439 39.5814C26.125 39.7869 25.8803 40.079 25.7358 40.4208C25.5913 40.7625 25.5535 41.1385 25.6271 41.5013C25.7008 41.8641 25.8827 42.1973 26.1497 42.4588C26.4167 42.7204 26.757 42.8985 27.1273 42.9707C27.4977 43.0428 27.8816 43.0058 28.2305 42.8642C28.5794 42.7227 28.8776 42.483 29.0874 42.1754C29.2972 41.8679 29.4092 41.5063 29.4092 41.1364C29.4086 40.6406 29.2072 40.1652 28.8493 39.8146C28.4913 39.464 28.006 39.2668 27.4998 39.2662ZM27.4998 41.8883C27.3479 41.8883 27.1995 41.8442 27.0733 41.7616C26.9471 41.6789 26.8487 41.5615 26.7906 41.4241C26.7325 41.2867 26.7173 41.1355 26.7469 40.9897C26.7765 40.8438 26.8497 40.7099 26.957 40.6047C27.0644 40.4996 27.2012 40.428 27.3501 40.3989C27.499 40.3699 27.6533 40.3848 27.7936 40.4417C27.9339 40.4987 28.0538 40.595 28.1381 40.7187C28.2224 40.8423 28.2675 40.9877 28.2675 41.1364C28.2672 41.3358 28.1863 41.5269 28.0424 41.6678C27.8984 41.8088 27.7033 41.8881 27.4998 41.8883Z" fill="white"/>
<path d="M37.9287 11.9543C38.0598 11.9545 38.1871 11.9104 38.289 11.8295C38.3733 11.7626 40.3972 10.2048 44.1985 11.1838C44.271 11.2025 44.3466 11.207 44.4208 11.1971C44.4951 11.1871 44.5667 11.163 44.6314 11.126C44.6962 11.089 44.7529 11.0398 44.7982 10.9813C44.8436 10.9229 44.8767 10.8562 44.8958 10.7852C44.9149 10.7142 44.9195 10.6402 44.9093 10.5674C44.8992 10.4947 44.8745 10.4246 44.8367 10.3612C44.7989 10.2978 44.7488 10.2423 44.6891 10.1978C44.6294 10.1534 44.5614 10.1209 44.4888 10.1022C40.0881 8.96959 37.6639 10.8845 37.5628 10.9666C37.4727 11.0401 37.4079 11.1391 37.3773 11.2499C37.3467 11.3608 37.3517 11.4783 37.3917 11.5863C37.4318 11.6942 37.5048 11.7875 37.6009 11.8534C37.6969 11.9193 37.8114 11.9545 37.9287 11.9543H37.9287Z" fill="white"/>
<path d="M37.9276 14.6372C38.0606 14.6373 38.1894 14.5917 38.2917 14.5084C38.312 14.4919 40.3592 12.8762 44.1985 13.865C44.3449 13.9027 44.5007 13.8819 44.6314 13.8071C44.7622 13.7323 44.8573 13.6098 44.8958 13.4663C44.9343 13.3229 44.9131 13.1704 44.8367 13.0423C44.7604 12.9142 44.6353 12.8211 44.4888 12.7834C40.0878 11.6503 37.6639 13.5656 37.5628 13.6476C37.4723 13.7211 37.4073 13.8201 37.3764 13.9311C37.3455 14.0421 37.3504 14.1597 37.3903 14.2679C37.4302 14.3761 37.5032 14.4697 37.5993 14.5357C37.6955 14.6018 37.8101 14.6372 37.9276 14.6372Z" fill="white"/>
<path d="M44.4888 15.4645C40.0881 14.3316 37.6639 16.2467 37.5627 16.3288C37.4459 16.4231 37.3721 16.559 37.3576 16.7067C37.3431 16.8543 37.3891 17.0015 37.4854 17.1159C37.5817 17.2304 37.7205 17.3026 37.8712 17.3168C38.0219 17.331 38.1722 17.286 38.289 17.1917C38.3733 17.1249 40.3972 15.5671 44.1985 16.5461C44.3449 16.5838 44.5007 16.563 44.6314 16.4882C44.7622 16.4134 44.8573 16.2909 44.8958 16.1474C44.9343 16.004 44.9131 15.8515 44.8367 15.7234C44.7604 15.5953 44.6353 15.5022 44.4888 15.4645H44.4888Z" fill="white"/>
<path d="M23.9709 10.7851C23.9899 10.8562 24.023 10.9229 24.0684 10.9814C24.1137 11.0399 24.1704 11.089 24.2351 11.1261C24.2999 11.1631 24.3715 11.1873 24.4458 11.1972C24.5201 11.2071 24.5957 11.2025 24.6682 11.1838C28.4651 10.206 30.4888 11.7591 30.5773 11.8292C30.6941 11.9236 30.8444 11.9686 30.9951 11.9545C31.1458 11.9403 31.2846 11.8681 31.3809 11.7537C31.4773 11.6393 31.5233 11.4921 31.5088 11.3445C31.4943 11.1968 31.4206 11.0609 31.3038 10.9665C31.2027 10.8844 28.7786 8.96935 24.3778 10.1022C24.2314 10.1399 24.1063 10.2331 24.03 10.3611C23.9537 10.4892 23.9324 10.6417 23.9709 10.7851Z" fill="white"/>
<path d="M24.3778 12.7834C24.2314 12.8211 24.1062 12.9143 24.0299 13.0423C23.9536 13.1704 23.9324 13.323 23.9709 13.4664C24.0094 13.6098 24.1044 13.7324 24.2352 13.8071C24.366 13.8819 24.5217 13.9027 24.6681 13.865C28.4651 12.8872 30.4888 14.4403 30.5773 14.5104C30.6351 14.5571 30.7018 14.5922 30.7735 14.6137C30.8451 14.6352 30.9204 14.6426 30.9951 14.6356C31.0697 14.6286 31.1422 14.6073 31.2084 14.5728C31.2746 14.5383 31.3332 14.4915 31.3809 14.4348C31.4286 14.3782 31.4645 14.3129 31.4864 14.2427C31.5083 14.1725 31.5159 14.0987 31.5088 14.0256C31.5016 13.9525 31.4798 13.8815 31.4447 13.8167C31.4095 13.7518 31.3616 13.6944 31.3038 13.6477C31.2027 13.5657 28.779 11.6503 24.3778 12.7834Z" fill="white"/>
<path d="M24.3778 15.4645C24.2314 15.5022 24.1062 15.5953 24.0299 15.7234C23.9536 15.8515 23.9324 16.004 23.9709 16.1474C24.0094 16.2909 24.1044 16.4134 24.2352 16.4882C24.366 16.563 24.5217 16.5838 24.6681 16.546C28.4651 15.5682 30.4888 17.1214 30.5773 17.1915C30.6941 17.2858 30.8444 17.3309 30.9951 17.3167C31.1458 17.3025 31.2846 17.2303 31.3809 17.1159C31.4773 17.0015 31.5232 16.8543 31.5088 16.7067C31.4943 16.5591 31.4206 16.4231 31.3038 16.3288C31.2027 16.2467 28.7785 14.3317 24.3778 15.4645Z" fill="white"/>
<path d="M7.63003 24.9714C8.35578 24.9714 9.06523 24.7606 9.66867 24.3657C10.2721 23.9708 10.7424 23.4094 11.0202 22.7527C11.2979 22.0959 11.3706 21.3733 11.229 20.6761C11.0874 19.9789 10.7379 19.3385 10.2247 18.8358C9.71155 18.3332 9.05771 17.9909 8.34591 17.8522C7.6341 17.7135 6.89629 17.7847 6.22579 18.0567C5.55528 18.3287 4.98219 18.7894 4.57899 19.3805C4.17578 19.9715 3.96057 20.6664 3.96057 21.3773C3.96167 22.3302 4.34863 23.2437 5.03655 23.9175C5.72447 24.5913 6.65717 24.9703 7.63003 24.9714ZM7.63003 18.9014C8.12997 18.9014 8.61868 19.0466 9.03437 19.3187C9.45006 19.5907 9.77404 19.9774 9.96536 20.4298C10.1567 20.8822 10.2067 21.38 10.1092 21.8603C10.0117 22.3406 9.77093 22.7817 9.41742 23.128C9.06391 23.4742 8.6135 23.71 8.12317 23.8056C7.63283 23.9011 7.12459 23.8521 6.6627 23.6647C6.20082 23.4773 5.80604 23.1599 5.52828 22.7528C5.25053 22.3456 5.10228 21.8669 5.10228 21.3773C5.10304 20.7208 5.36959 20.0915 5.84347 19.6274C6.31735 19.1632 6.95986 18.9021 7.63003 18.9014V18.9014Z" fill="white"/>
<path d="M28.232 29.5242H13.433C13.2816 29.5242 13.1364 29.5831 13.0294 29.688C12.9223 29.7929 12.8622 29.9351 12.8622 30.0834C12.8622 30.2317 12.9223 30.3739 13.0294 30.4787C13.1364 30.5836 13.2816 30.6425 13.433 30.6425H28.232C28.3834 30.6425 28.5286 30.5836 28.6357 30.4787C28.7427 30.3739 28.8029 30.2317 28.8029 30.0834C28.8029 29.9351 28.7427 29.7929 28.6357 29.688C28.5286 29.5831 28.3834 29.5242 28.232 29.5242Z" fill="white"/>
<path d="M22.7266 32.0473H13.433C13.2816 32.0473 13.1364 32.1062 13.0294 32.2111C12.9223 32.316 12.8622 32.4582 12.8622 32.6065C12.8622 32.7548 12.9223 32.897 13.0294 33.0018C13.1364 33.1067 13.2816 33.1656 13.433 33.1656H22.7267C22.8781 33.1656 23.0233 33.1067 23.1303 33.0018C23.2374 32.897 23.2975 32.7548 23.2975 32.6065C23.2975 32.4582 23.2374 32.316 23.1303 32.2111C23.0233 32.1062 22.8781 32.0473 22.7267 32.0473H22.7266Z" fill="white"/>
<path d="M28.232 32.0473H25.454C25.3026 32.0473 25.1574 32.1062 25.0504 32.2111C24.9433 32.316 24.8832 32.4582 24.8832 32.6065C24.8832 32.7548 24.9433 32.897 25.0504 33.0018C25.1574 33.1067 25.3026 33.1656 25.454 33.1656H28.232C28.3834 33.1656 28.5286 33.1067 28.6356 33.0018C28.7427 32.897 28.8028 32.7548 28.8028 32.6065C28.8028 32.4582 28.7427 32.316 28.6356 32.2111C28.5286 32.1062 28.3834 32.0473 28.232 32.0473H28.232Z" fill="white"/>
<path d="M10.9295 27.3788L9.95147 28.4194C9.23532 27.8453 8.32447 27.5567 7.40067 27.6113C6.47687 27.6659 5.60806 28.0597 4.96762 28.7141C4.32717 29.3684 3.96218 30.2353 3.94548 31.1416C3.92879 32.048 4.26161 32.9271 4.87754 33.6037C5.49347 34.2803 6.34721 34.7045 7.26839 34.7917C8.18958 34.879 9.11047 34.6227 9.84729 34.0742C10.5841 33.5257 11.0827 32.7253 11.2436 31.8326C11.4044 30.9399 11.2157 30.0206 10.715 29.2582L11.7695 28.1363C11.8203 28.0823 11.8597 28.019 11.8855 27.95C11.9113 27.8811 11.923 27.8079 11.9199 27.7345C11.9168 27.6611 11.899 27.5891 11.8674 27.5224C11.8359 27.4558 11.7913 27.3959 11.7361 27.3462C11.681 27.2964 11.6164 27.2578 11.546 27.2326C11.4756 27.2073 11.4008 27.1958 11.3259 27.1989C11.251 27.2019 11.1774 27.2194 11.1094 27.2502C11.0414 27.2811 10.9803 27.3248 10.9295 27.3788L10.9295 27.3788ZM10.1578 31.2006C10.1587 31.7611 9.96581 32.3054 9.61046 32.7447C9.25512 33.184 8.75832 33.4925 8.20105 33.6198C7.64377 33.7471 7.0589 33.6858 6.54178 33.4458C6.02466 33.2058 5.60579 32.8013 5.35345 32.2983C5.10111 31.7952 5.03018 31.2233 5.15224 30.6757C5.27429 30.1281 5.58213 29.6372 6.02556 29.2829C6.46899 28.9286 7.02187 28.732 7.59405 28.7249C8.16624 28.7179 8.72399 28.9009 9.17637 29.2441L7.71327 30.8008L7.00934 30.0909C6.9572 30.0379 6.89487 29.9954 6.82593 29.966C6.757 29.9366 6.68281 29.9208 6.60764 29.9196C6.53246 29.9184 6.45778 29.9317 6.38787 29.9588C6.31797 29.9859 6.25422 30.0263 6.20029 30.0776C6.14636 30.1289 6.10331 30.1902 6.07362 30.2578C6.04392 30.3255 6.02816 30.3982 6.02724 30.4718C6.02632 30.5455 6.04026 30.6186 6.06826 30.6869C6.09627 30.7553 6.13778 30.8175 6.19041 30.8701L7.315 32.004C7.3682 32.0577 7.43185 32.1003 7.50218 32.1294C7.57252 32.1586 7.6481 32.1736 7.72446 32.1736C7.72697 32.1736 7.72954 32.1736 7.7321 32.1736C7.80974 32.1726 7.88635 32.156 7.95726 32.125C8.02816 32.094 8.09186 32.0492 8.14446 31.9932L9.90435 30.1208C10.0715 30.4572 10.1582 30.8265 10.1578 31.2006Z" fill="white"/>
<path d="M36.0023 29.7366H35.1087L34.8326 28.9042C34.7779 28.7393 34.6713 28.5956 34.5281 28.4937C34.3849 28.3918 34.2125 28.3369 34.0355 28.3369C33.8585 28.3369 33.686 28.3918 33.5429 28.4937C33.3997 28.5956 33.2931 28.7393 33.2384 28.9042L32.9623 29.7366H32.0686C31.8917 29.7366 31.7192 29.7915 31.5761 29.8934C31.4329 29.9953 31.3263 30.1389 31.2716 30.3038C31.2169 30.4686 31.2169 30.6462 31.2716 30.8111C31.3262 30.9759 31.4328 31.1196 31.5759 31.2215L32.299 31.736L32.0228 32.5685C31.9681 32.7334 31.9681 32.911 32.0228 33.0758C32.0775 33.2407 32.1841 33.3844 32.3273 33.4863C32.4705 33.5882 32.6429 33.643 32.8199 33.643C32.9969 33.643 33.1694 33.5881 33.3126 33.4862L34.0355 32.9717L34.7584 33.4861C34.9016 33.5881 35.074 33.643 35.251 33.643C35.428 33.643 35.6004 33.5881 35.7436 33.4862C35.8868 33.3844 35.9934 33.2407 36.0481 33.0758C36.1028 32.911 36.1028 32.7334 36.0481 32.5685L35.7719 31.736L36.4949 31.2215C36.638 31.1196 36.7446 30.976 36.7993 30.8111C36.8539 30.6462 36.8539 30.4687 36.7993 30.3038C36.7446 30.139 36.638 29.9953 36.4949 29.8934C36.3517 29.7915 36.1793 29.7366 36.0023 29.7366ZM35.1906 31.0438C35.0472 31.1456 34.9405 31.2892 34.8858 31.4541C34.8312 31.619 34.8313 31.7966 34.8863 31.9615L35.1078 32.629L34.528 32.2165C34.385 32.1143 34.2125 32.0592 34.0354 32.0592C33.8584 32.0592 33.6859 32.1143 33.5428 32.2165L32.9632 32.629L33.1845 31.9614C33.2396 31.7966 33.2397 31.6189 33.1851 31.454C33.1304 31.2891 33.0236 31.1454 32.8802 31.0437L32.3003 30.6312H33.017C33.1941 30.6315 33.3667 30.5767 33.5099 30.4748C33.6532 30.3729 33.7597 30.229 33.8141 30.064L34.0354 29.3964L34.2568 30.064C34.3113 30.229 34.4178 30.3729 34.561 30.4748C34.7043 30.5767 34.8769 30.6315 35.0539 30.6312H35.7706L35.1906 31.0438Z" fill="white"/>
<path d="M43.0288 29.7366H42.1351L41.8591 28.9042C41.8044 28.7393 41.6978 28.5956 41.5546 28.4937C41.4114 28.3918 41.2389 28.3369 41.0619 28.3369C40.8849 28.3369 40.7125 28.3918 40.5693 28.4937C40.4261 28.5956 40.3195 28.7393 40.2648 28.9042L39.9887 29.7366H39.0951C38.9181 29.7366 38.7457 29.7915 38.6025 29.8933C38.4593 29.9952 38.3528 30.1389 38.2981 30.3037C38.2434 30.4686 38.2433 30.6462 38.298 30.8111C38.3527 30.9759 38.4592 31.1196 38.6024 31.2215L39.3255 31.7361L39.0493 32.5685C38.9944 32.7334 38.9942 32.9111 39.0488 33.0761C39.1034 33.2411 39.21 33.3849 39.3532 33.4868C39.4965 33.5888 39.6691 33.6437 39.8461 33.6436C40.0232 33.6435 40.1957 33.5884 40.3388 33.4863L41.0619 32.9718L41.7848 33.4863C41.928 33.5882 42.1004 33.6431 42.2774 33.6431C42.4544 33.6431 42.6269 33.5882 42.7701 33.4863C42.9133 33.3844 43.0199 33.2408 43.0746 33.0759C43.1293 32.911 43.1293 32.7334 43.0746 32.5685L42.7984 31.7361L43.5214 31.2216C43.6645 31.1197 43.7711 30.976 43.8258 30.8111C43.8805 30.6463 43.8805 30.4687 43.8258 30.3038C43.7712 30.1389 43.6646 29.9953 43.5214 29.8934C43.3782 29.7915 43.2058 29.7366 43.0288 29.7366ZM42.2173 31.0438C42.0739 31.1455 41.9671 31.2892 41.9124 31.4541C41.8577 31.619 41.8578 31.7967 41.9128 31.9616L42.1342 32.6292L41.5545 32.2165C41.4114 32.1144 41.239 32.0593 41.0619 32.0593C40.8849 32.0593 40.7125 32.1144 40.5694 32.2165L39.9896 32.6291L40.2109 31.9616C40.266 31.7968 40.2662 31.6191 40.2115 31.4541C40.1568 31.2892 40.05 31.1455 39.9066 31.0439L39.3268 30.6312H40.0435C40.2205 30.6315 40.3931 30.5767 40.5364 30.4748C40.6796 30.3729 40.7861 30.229 40.8406 30.064L41.0619 29.3964L41.2834 30.064C41.3378 30.229 41.4443 30.3728 41.5875 30.4748C41.7308 30.5767 41.9033 30.6315 42.0804 30.6312H42.7971L42.2173 31.0438Z" fill="white"/>
<path d="M48.8112 33.4861C48.9544 33.5881 49.1268 33.6429 49.3038 33.643C49.4808 33.643 49.6533 33.5881 49.7965 33.4862C49.9397 33.3843 50.0462 33.2406 50.1009 33.0758C50.1557 32.9109 50.1557 32.7333 50.101 32.5684L49.8248 31.7359L50.5479 31.2214C50.691 31.1195 50.7975 30.9758 50.8522 30.811C50.9068 30.6461 50.9068 30.4685 50.8521 30.3037C50.7974 30.1389 50.6909 29.9952 50.5477 29.8933C50.4046 29.7915 50.2321 29.7366 50.0552 29.7365H49.1615L48.8854 28.9041C48.8307 28.7392 48.7241 28.5955 48.5809 28.4936C48.4377 28.3918 48.2653 28.3369 48.0883 28.3369C47.9113 28.3369 47.7389 28.3918 47.5957 28.4936C47.4525 28.5955 47.3459 28.7392 47.2912 28.9041L47.0152 29.7365H46.1215C45.9446 29.7366 45.7721 29.7914 45.6289 29.8933C45.4858 29.9952 45.3792 30.1389 45.3245 30.3037C45.2698 30.4686 45.2698 30.6462 45.3244 30.811C45.3791 30.9759 45.4857 31.1196 45.6288 31.2215L46.3519 31.7361L46.0757 32.5685C46.0207 32.7334 46.0206 32.9111 46.0752 33.076C46.1298 33.241 46.2364 33.3848 46.3796 33.4868C46.5229 33.5887 46.6954 33.6436 46.8725 33.6435C47.0496 33.6434 47.2221 33.5884 47.3652 33.4862L48.0883 32.9717L48.8112 33.4861ZM47.016 32.6289L47.2373 31.9614C47.2924 31.7966 47.2926 31.6189 47.2379 31.454C47.1832 31.2891 47.0764 31.1454 46.933 31.0437L46.3532 30.6312H47.0698C47.2469 30.6315 47.4195 30.5767 47.5627 30.4748C47.706 30.3729 47.8125 30.229 47.867 30.064L48.0883 29.3965L48.3098 30.064C48.3642 30.229 48.4707 30.3729 48.614 30.4748C48.7572 30.5767 48.9298 30.6315 49.1068 30.6312H49.8235L49.2437 31.0438C49.1003 31.1455 48.9935 31.2891 48.9388 31.4541C48.8841 31.619 48.8842 31.7967 48.9392 31.9615L49.1607 32.6291L48.5809 32.2165C48.4379 32.1143 48.2654 32.0593 48.0884 32.0593C47.9114 32.0593 47.7389 32.1143 47.5959 32.2165L47.016 32.6289Z" fill="white"/>
</svg>
