<svg width="20" height="20" viewBox="0 0 20 20" fill="none" xmlns="http://www.w3.org/2000/svg">
<path d="M10 0C4.47659 0 0 4.47663 0 10.0001C0 15.5234 4.47659 20 10 20C15.5234 20 20 15.5234 20 10.0001C20 4.47663 15.5234 0 10 0ZM10 19.2C4.92731 19.2 0.8 15.0727 0.8 10.0001C0.8 4.92739 4.92731 0.8 10 0.8C15.0726 0.8 19.2 4.92735 19.2 10.0001C19.2 15.0727 15.0726 19.2 10 19.2Z" fill="#4A4A4A"/>
<path d="M14.5198 6.02709L13.9542 5.46143L9.99442 9.42123L6.05346 5.48022L5.48779 6.04584L9.42884 9.98689L5.48779 13.9281L6.05346 14.4938L9.99442 10.5523L13.9542 14.5126L14.5198 13.9468L10.56 9.98689L14.5198 6.02709Z" fill="#4A4A4A"/>
</svg>
