<svg width="30" height="30" viewBox="0 0 30 30" fill="none" xmlns="http://www.w3.org/2000/svg">
<path d="M27.8531 26.5228L21.7594 20.429H21.6937C23.572 18.2144 24.5212 15.3593 24.3427 12.4609C24.1642 9.56256 22.8719 6.84547 20.7362 4.87802C18.6004 2.91058 15.7866 1.84519 12.8834 1.90471C9.98011 1.96423 7.21234 3.14406 5.159 5.1974C3.10567 7.25073 1.92584 10.0185 1.86632 12.9217C1.8068 15.825 2.87219 18.6388 4.83963 20.7746C6.80708 22.9103 9.52417 24.2026 12.4225 24.3811C15.3209 24.5595 18.176 23.6104 20.3906 21.7321C20.3906 21.7321 20.3906 21.779 20.3906 21.7978L26.4844 27.8915C26.5715 27.9794 26.6752 28.0491 26.7895 28.0967C26.9037 28.1443 27.0262 28.1688 27.15 28.1688C27.2738 28.1688 27.3963 28.1443 27.5105 28.0967C27.6248 28.0491 27.7285 27.9794 27.8156 27.8915C27.9117 27.8064 27.9893 27.7025 28.0436 27.5862C28.0979 27.4698 28.1278 27.3436 28.1313 27.2153C28.1348 27.0869 28.1119 26.9593 28.0641 26.8401C28.0162 26.721 27.9444 26.613 27.8531 26.5228ZM13.125 22.5009C11.2708 22.5009 9.45823 21.951 7.91652 20.9209C6.37481 19.8908 5.17319 18.4266 4.46362 16.7135C3.75405 15.0005 3.56839 13.1155 3.93013 11.2969C4.29187 9.47834 5.18475 7.80787 6.49586 6.49676C7.80698 5.18564 9.47745 4.29276 11.296 3.93102C13.1146 3.56928 14.9996 3.75494 16.7126 4.46451C18.4257 5.17408 19.8899 6.3757 20.92 7.91741C21.9502 9.45912 22.5 11.2717 22.5 13.1259C22.5 14.357 22.2575 15.5761 21.7864 16.7135C21.3152 17.851 20.6247 18.8845 19.7541 19.755C18.8836 20.6256 17.8501 21.3161 16.7126 21.7873C15.5752 22.2584 14.3561 22.5009 13.125 22.5009Z" fill="#4A4A4A"/>
</svg>
