<svg width="35" height="27" viewBox="0 0 35 27" fill="none" xmlns="http://www.w3.org/2000/svg">
<path d="M33.99 6.39233C33.99 6.39233 33.6675 3.93802 32.6643 2.86313C31.3923 1.44787 29.9771 1.43891 29.3232 1.35829C24.6564 1 17.6607 1 17.6607 1H17.6428C17.6428 1 10.6471 1 5.98029 1.35829C5.32641 1.43891 3.91114 1.44787 2.6392 2.86313C1.64493 3.94697 1.31351 6.39233 1.31351 6.39233C1.31351 6.39233 1 9.26765 1 12.143V14.8391C1 17.7144 1.33142 20.5898 1.33142 20.5898C1.33142 20.5898 1.65389 23.0441 2.65711 24.119C3.92906 25.5342 5.58617 25.4894 6.32963 25.6417C8.99893 25.9104 17.6607 26 17.6607 26C17.6607 26 24.6654 25.991 29.3321 25.6327C29.986 25.5521 31.4013 25.5432 32.6732 24.1279C33.6675 23.053 33.9989 20.5987 33.9989 20.5987C33.9989 20.5987 34.3303 17.7234 34.3303 14.8481V12.1519C34.3214 9.26765 33.99 6.39233 33.99 6.39233Z" stroke="#4A4A4A" stroke-miterlimit="10"/>
<path d="M13.4955 7.24316V19.7476L23.913 13.4954L13.4955 7.24316Z" stroke="#4A4A4A" stroke-miterlimit="10"/>
</svg>
