<svg width="54" height="50" viewBox="0 0 54 50" fill="none" xmlns="http://www.w3.org/2000/svg">
<g clip-path="url(#clip0_207_23)">
<path d="M37.5226 12.2776C31.8834 11.2947 26.1815 11.0902 20.4951 11.8451C16.1776 12.4192 11.821 13.3157 7.86331 15.1872C4.89895 16.587 1.17588 18.8203 0.362439 22.2803C-0.607435 26.3852 3.13127 30.5686 6.2599 32.6682C9.61534 34.9251 13.6513 36.0417 17.5855 36.7417C21.3087 37.4022 25.102 37.7718 28.8798 37.9684C36.021 38.3458 44.5543 37.8818 50.0372 32.6447C51.531 31.2214 52.673 29.4676 53.4396 27.549C54.2138 25.6066 53.8541 23.5857 52.8686 21.7928C50.8897 18.1833 46.9945 15.3524 43.3262 13.6538C42.3017 13.182 41.41 14.7075 42.4345 15.1794C45.4929 16.5948 48.5432 18.7417 50.569 21.4703C51.4999 22.7206 52.3132 24.2856 52.0864 25.8977C51.8597 27.5018 50.7646 29.1768 49.7399 30.3878C45.2659 35.6408 37.5148 36.3878 31.0854 36.2699C27.777 36.207 24.4529 35.9081 21.1678 35.4992C17.4604 35.0352 13.6747 34.3197 10.2332 32.8098C6.82306 31.3158 3.47543 28.7522 2.24744 25.0641C1.06638 21.494 4.53134 18.9775 7.24541 17.4756C11.078 15.3524 15.3877 14.3851 19.6816 13.7246C25.454 12.836 31.3124 12.9775 37.0613 13.9762C38.1641 14.1728 38.6334 12.4664 37.5226 12.2776Z" fill="#3D3C3C"/>
<path d="M0.252797 23.7274C-0.975187 34.1075 7.18271 43.4653 16.0445 47.5858C25.4694 51.966 36.6935 50.236 44.5776 43.5047C49.4816 39.3211 52.7354 33.4549 53.5411 27.0302C53.6819 25.9056 51.922 25.9134 51.7812 27.0302C50.4828 37.4024 41.9886 45.7222 31.9613 47.7825C22.4894 49.7248 12.9237 45.62 6.82291 38.2674C3.45181 34.2019 1.3791 29.0668 2.01264 23.7274C2.14562 22.6028 0.385763 22.6108 0.252797 23.7274Z" fill="#3D3C3C"/>
<path d="M8.78638 21.7222C11.5161 20.1651 14.4961 19.1429 17.5934 18.6632C18.0627 18.5924 18.3209 17.9947 18.2114 17.578C18.0706 17.0747 17.6013 16.886 17.132 16.9567C13.886 17.46 10.7574 18.5688 7.90254 20.1888C6.9092 20.7627 7.79304 22.2882 8.78638 21.7222Z" fill="#3D3C3C"/>
<path d="M39.7364 21.5568C44.046 23.2632 48.1758 26.6917 48.0897 31.7324C48.0741 32.8727 49.834 32.8727 49.8496 31.7324C49.9513 25.8425 45.2505 21.8477 40.2057 19.8503C39.7598 19.6774 39.2357 20.0391 39.1262 20.4716C38.9854 20.9671 39.2905 21.3759 39.7364 21.5568Z" fill="#3D3C3C"/>
<path d="M6.36976 29.688C7.30833 27.4546 8.94305 26.2514 11.2426 25.6775C13.3779 25.1426 15.6148 25.0484 17.6954 24.2856C20.2296 23.3576 22.0129 21.2109 24.4922 20.1729C27.7618 18.8124 31.6724 19.5281 35.02 20.1964C36.123 20.4167 36.6001 18.7102 35.4893 18.49C31.9619 17.7901 27.9807 17.0824 24.4845 18.2856C21.6922 19.2449 19.7681 21.6984 17.0149 22.6499C14.7857 23.4128 12.3924 23.4598 10.1397 24.144C7.70723 24.8831 5.84571 26.4246 4.84454 28.7994C4.41436 29.8374 5.93174 30.7339 6.36976 29.688Z" fill="#3D3C3C"/>
<path d="M20.6981 30.1443C24.1083 28.3433 28.4651 28.9332 31.2807 31.5597C31.5857 31.8428 31.9847 31.8821 32.3445 31.7012C34.6127 30.5373 37.4677 31.1036 39.595 32.3224C40.5805 32.8887 41.4644 31.3631 40.4866 30.7969C37.7883 29.2478 34.3076 28.7129 31.4607 30.1756C31.8127 30.2228 32.1723 30.27 32.5243 30.3172C29.1064 27.1323 23.9285 26.4482 19.8065 28.6265C18.8054 29.1456 19.697 30.6711 20.6981 30.1443Z" fill="#3D3C3C"/>
<path d="M29.7169 28.0367C29.9047 26.9671 30.5148 26 31.5315 25.5438C32.5093 25.1035 33.5574 25.2451 34.269 24.2934C35.02 23.2869 35.4424 21.9186 35.9664 20.7863C36.5608 19.4966 37.1553 18.207 37.7575 16.9252C40.1432 11.7745 42.5286 6.62374 44.9143 1.47301C44.5153 1.57523 44.1085 1.68533 43.7098 1.78756C44.6561 2.2358 45.5947 2.68402 46.5411 3.1244C46.4394 2.72333 46.33 2.31443 46.2283 1.91337C44.0618 6.92257 41.9029 11.9396 39.7364 16.9488C38.7117 19.3237 37.5933 21.6828 36.6547 24.097C36.2245 25.1979 36.5216 25.9291 37.1084 26.8807C37.7575 27.9501 37.9687 29.1218 37.6872 30.3487C37.4368 31.4574 39.134 31.9292 39.3844 30.8205C39.6033 29.8531 39.6347 28.8781 39.4235 27.9029C39.3062 27.3761 39.1107 26.8649 38.8603 26.3931C38.5788 25.8662 38.1329 25.4809 38.2504 24.8362C38.3599 24.2542 38.7822 23.5779 39.0168 23.0352C39.2749 22.4376 39.533 21.8401 39.7911 21.2423C40.3308 19.9921 40.8706 18.7339 41.4102 17.4835C43.522 12.5923 45.6339 7.70108 47.7456 2.80984C47.9177 2.40093 47.9021 1.81901 47.4328 1.59883C46.4864 1.1506 45.5478 0.702369 44.6014 0.261999C44.2024 0.0732708 43.6081 0.112585 43.3969 0.576544C40.9565 5.84524 38.5163 11.1139 36.0837 16.3826C35.4893 17.6723 34.8948 18.9619 34.2926 20.2436C33.9953 20.8886 33.6982 21.5334 33.4009 22.1781C33.1037 22.8229 32.9708 23.3184 32.259 23.5307C31.2343 23.8375 30.3818 24.0261 29.5605 24.7733C28.7549 25.5044 28.2231 26.4953 28.0353 27.5649C27.8241 28.6815 29.5215 29.1611 29.7169 28.0367Z" fill="#3D3C3C"/>
<path d="M10.1394 29.743C11.0076 31.3079 12.8144 32.3144 14.5899 32.1887C15.0513 32.1571 15.4893 31.8034 15.4659 31.3079C15.4424 30.8597 15.0748 30.3879 14.5899 30.4271C14.4178 30.443 14.2457 30.443 14.0736 30.4351C14.0267 30.4351 13.9798 30.4271 13.9407 30.4271C13.7764 30.4193 14.0971 30.4508 13.9876 30.4351C13.9094 30.4193 13.8234 30.4114 13.7451 30.3879C13.5652 30.3486 13.3932 30.2935 13.2211 30.2306C13.1898 30.2148 13.1507 30.1991 13.1194 30.1913C13.3228 30.2463 13.2133 30.2306 13.1507 30.2069C13.0647 30.1676 12.9864 30.1284 12.9082 30.0812C12.7518 29.9946 12.611 29.9081 12.4702 29.806C12.4389 29.7823 12.4155 29.7588 12.3842 29.743C12.5719 29.8689 12.4546 29.798 12.4155 29.7588C12.3451 29.7038 12.2747 29.6407 12.2121 29.5778C12.1495 29.5228 12.0948 29.4599 12.04 29.3971C11.9931 29.342 11.9227 29.2161 11.8601 29.1847C11.9149 29.2083 11.9697 29.3342 11.8836 29.2083C11.8601 29.1689 11.8289 29.1297 11.8054 29.0982C11.7585 29.0196 11.7115 28.9409 11.6646 28.8624C11.4378 28.4612 10.8512 28.2883 10.4601 28.5478C10.0455 28.7915 9.89692 29.3105 10.1394 29.743Z" fill="#3D3C3C"/>
<path d="M20.62 45.6907C23.0213 46.3984 25.532 46.7444 28.0347 46.7286C29.1689 46.7207 29.1689 44.9515 28.0347 44.9594C25.6804 44.975 23.3497 44.6526 21.0893 43.9842C19.9943 43.6618 19.5328 45.3683 20.62 45.6907Z" fill="#3D3C3C"/>
<path d="M37.7805 48.3014C39.9314 48.3014 42.0745 48.3014 44.2256 48.3014C45.3596 48.3014 45.3596 46.532 44.2256 46.532C42.0745 46.532 39.9314 46.532 37.7805 46.532C36.6543 46.532 36.6465 48.3014 37.7805 48.3014Z" fill="#3D3C3C"/>
<path d="M43.7096 45.4154C44.7577 45.2582 45.8057 45.1009 46.8538 44.9436C47.0572 44.9121 47.2841 44.7076 47.3779 44.5347C47.4873 44.3458 47.5343 44.0628 47.464 43.8505C47.3936 43.6382 47.2606 43.4337 47.0572 43.3236C46.8304 43.2057 46.6271 43.1977 46.3767 43.2371C45.3286 43.3944 44.2806 43.5516 43.2325 43.7089C43.0291 43.7404 42.8023 43.9449 42.7084 44.1179C42.599 44.3067 42.552 44.5897 42.6223 44.802C42.6928 45.0143 42.8257 45.2188 43.0291 45.3289C43.256 45.4389 43.4672 45.4468 43.7096 45.4154Z" fill="#3D3C3C"/>
<path d="M26.0954 23.0354C26.244 22.9332 26.4004 22.8466 26.5647 22.76C26.6272 22.7287 26.6819 22.6971 26.7445 22.6658C26.7914 22.6421 27.0418 22.5005 26.8462 22.6186C26.9714 22.5399 27.1512 22.5005 27.2921 22.4613C27.4563 22.4141 27.6205 22.3669 27.7848 22.3354C27.8631 22.3197 27.9412 22.304 28.0195 22.2882C28.0665 22.2804 28.1054 22.2725 28.1524 22.2647C28.0273 22.2804 28.0195 22.2804 28.1212 22.2725C28.2776 22.2568 28.4341 22.241 28.5905 22.241C28.7467 22.241 28.9032 22.2412 29.0676 22.249C29.1613 22.2568 29.2474 22.2647 29.3335 22.2725C29.4352 22.2882 29.4194 22.2804 29.3021 22.2647C29.3491 22.2725 29.3883 22.2804 29.4352 22.2882C29.8887 22.3669 30.405 22.1703 30.5145 21.6671C30.6084 21.2423 30.3816 20.6604 29.8965 20.5818C28.2697 20.3067 26.5958 20.5975 25.2037 21.5018C24.8203 21.7535 24.6249 22.2962 24.8908 22.7128C25.1412 23.1061 25.6808 23.3027 26.0954 23.0354Z" fill="#3D3C3C"/>
<path d="M44.5153 29.5466C44.5467 29.5779 44.5778 29.6173 44.6092 29.6566C44.5622 29.5938 44.5153 29.5387 44.4683 29.4757C44.5389 29.5701 44.6014 29.6723 44.6483 29.7824C44.617 29.7117 44.5858 29.641 44.5622 29.5701C44.6092 29.6882 44.6406 29.8061 44.6639 29.9318C44.6561 29.8533 44.6406 29.7745 44.6326 29.696C44.6484 29.8296 44.6484 29.9633 44.6326 30.0969C44.6406 30.0184 44.6561 29.9397 44.6639 29.8611C44.6483 29.979 44.617 30.0891 44.57 30.1992C44.6014 30.1285 44.6326 30.0578 44.6561 29.9869C44.6326 30.0341 44.6092 30.0891 44.5858 30.1363C44.4684 30.3329 44.4372 30.5925 44.4997 30.8204C44.5545 31.0249 44.7109 31.2451 44.9065 31.3473C45.1099 31.4574 45.36 31.5124 45.5869 31.4339C45.8059 31.363 45.9937 31.2294 46.111 31.0249C46.6115 30.152 46.4628 29.004 45.7668 28.2805C45.6103 28.1154 45.368 28.021 45.141 28.021C44.9221 28.021 44.6639 28.1154 44.5153 28.2805C44.3589 28.4456 44.2494 28.6736 44.2572 28.9096C44.2729 29.1613 44.3511 29.3736 44.5153 29.5466Z" fill="#3D3C3C"/>
</g>
<defs>
<clipPath id="clip0_207_23">
<rect width="54" height="50" fill="white"/>
</clipPath>
</defs>
</svg>
