<svg width="50" height="50" viewBox="0 0 50 50" fill="none" xmlns="http://www.w3.org/2000/svg">
<path d="M39.332 25.8291C39.1562 25.6545 38.9477 25.5163 38.7185 25.4223C38.4893 25.3283 38.2439 25.2804 37.9961 25.2813C37.7484 25.2821 37.5033 25.3318 37.2747 25.4274C37.0462 25.523 36.8387 25.6627 36.6642 25.8385C36.4896 26.0143 36.3514 26.2227 36.2574 26.4519C36.1634 26.6811 36.1155 26.9266 36.1164 27.1743C36.1173 27.4221 36.1669 27.6672 36.2625 27.8957C36.3581 28.1243 36.4978 28.3317 36.6736 28.5063C38.2689 30.0847 39.5353 32.3038 40.3994 34.375C41.2635 36.4462 41.7081 38.6683 41.7076 40.9125C41.7076 43.2126 35.0899 46.5686 24.7392 46.5686C14.3885 46.5686 7.77086 43.2126 7.77086 40.9125C7.76787 38.683 8.20425 36.4749 9.05506 34.4142C9.90587 32.3535 11.1544 30.1408 12.7294 28.5629C13.0805 28.2096 13.2776 27.7318 13.2776 27.2337C13.2776 26.7356 13.0805 26.2577 12.7294 25.9045C12.3761 25.5533 11.8983 25.3562 11.4002 25.3562C10.9021 25.3562 10.4243 25.5533 10.071 25.9045C8.13871 27.826 6.60708 30.112 5.56496 32.6299C4.52283 35.1479 3.99094 37.8476 4.00012 40.5727C4.00012 46.7001 14.6902 49.9995 24.7392 49.9995C34.7882 49.9995 45.4783 46.7001 45.4783 40.5727C45.4855 37.8299 44.9457 35.1133 43.8903 32.5817C42.835 30.0502 41.2853 27.7545 39.332 25.8291Z" fill="#5B712E"/>
<path d="M24.588 23.9904C30.7985 23.9904 35.8332 18.9558 35.8332 12.7452C35.8332 6.53465 30.7985 1.5 24.588 1.5C18.3774 1.5 13.3428 6.53465 13.3428 12.7452C13.3428 18.9558 18.3774 23.9904 24.588 23.9904Z" stroke="#5B712E" stroke-width="3"/>
</svg>
