<svg width="25" height="25" viewBox="0 0 25 25" fill="none" xmlns="http://www.w3.org/2000/svg">
<path d="M24.6624 7.3573L24.6626 7.35964C24.7791 9.41425 24.7791 15.5858 24.6626 17.6404L24.6625 17.642C24.5636 19.6135 24.1161 21.316 22.7164 22.716L22.7161 22.7163C21.3165 24.1215 19.6148 24.5691 17.6443 24.6624L17.642 24.6625C15.5879 24.7792 9.41215 24.7792 7.35801 24.6625L7.35636 24.6625C5.38569 24.5636 3.68878 24.1161 2.28326 22.7156C0.878333 21.3157 0.430871 19.6136 0.337562 17.6427L0.337573 17.6427L0.33744 17.6404C0.220853 15.5858 0.220853 9.40867 0.33744 7.35406L0.337446 7.35406L0.337528 7.35241C0.436383 5.38037 0.878567 3.67846 2.28326 2.27879C3.68868 0.878406 5.39099 0.430897 7.3557 0.33758L7.3557 0.33759L7.35801 0.337459C9.41215 0.220847 15.5879 0.220847 17.642 0.337465L17.6436 0.337547C19.6147 0.436395 21.3167 0.88403 22.7164 2.28403L22.7167 2.28437C24.1217 3.68427 24.5691 5.38639 24.6624 7.3573ZM19.9625 22.478L19.9634 22.4777C21.1253 22.0116 22.018 21.1191 22.4785 19.9616C22.8233 19.0949 22.948 17.6644 22.9918 16.2593C23.0234 15.2451 23.013 14.2153 23.0045 13.3821C23.0012 13.0531 22.9982 12.7547 22.9982 12.5C22.9982 12.2453 23.0012 11.9469 23.0045 11.618C23.013 10.7853 23.0234 9.75646 22.9918 8.74277C22.948 7.33825 22.8233 5.90793 22.4786 5.03866L22.4783 5.03778C22.0124 3.8757 21.12 2.98274 19.9628 2.5221L19.9621 2.52183C19.096 2.18004 17.6662 2.05528 16.2614 2.01081C15.2397 1.97846 14.2027 1.98841 13.3664 1.99643C13.0447 1.99951 12.7528 2.00232 12.5028 2.00232C12.2481 2.00232 11.9499 1.99929 11.621 1.99596C10.7884 1.98753 9.75986 1.97711 8.74639 2.00871C7.34218 2.0525 5.91216 2.17723 5.04306 2.52199L5.04218 2.52235C3.88032 2.98837 2.98757 3.88094 2.52705 5.03839L2.52678 5.03908C2.18508 5.90532 2.06035 7.33542 2.01588 8.74056C1.98354 9.76247 1.99349 10.7997 2.00151 11.6362C2.00459 11.958 2.00739 12.25 2.00739 12.5C2.00739 12.7547 2.00437 13.0531 2.00104 13.382C1.99261 14.2147 1.98219 15.2435 2.01379 16.2572C2.05756 17.6618 2.18226 19.0921 2.52694 19.9613L2.5273 19.9622C2.99321 21.1243 3.88556 22.0173 5.04279 22.4779L5.04347 22.4782C5.90955 22.82 7.33936 22.9447 8.74418 22.9892C9.76586 23.0215 10.8029 23.0116 11.6392 23.0036C11.9609 23.0005 12.2528 22.9977 12.5028 22.9977C12.7575 22.9977 13.0557 23.0007 13.3846 23.004C14.2171 23.0125 15.2457 23.0229 16.2592 22.9913C17.6634 22.9475 19.0934 22.8228 19.9625 22.478ZM6.34453 12.5C6.34453 9.0901 9.09379 6.34032 12.5028 6.34032C15.9118 6.34032 18.661 9.0901 18.661 12.5C18.661 15.9099 15.9118 18.6597 12.5028 18.6597C9.09379 18.6597 6.34453 15.9099 6.34453 12.5ZM8.08659 12.5C8.08659 14.9366 10.0726 16.9171 12.5028 16.9171C14.9329 16.9171 16.919 14.9366 16.919 12.5C16.919 10.0636 14.9387 8.08287 12.5028 8.08287C10.0668 8.08287 8.08659 10.0636 8.08659 12.5ZM20.4179 5.82813C20.4179 6.5207 19.8611 7.07316 19.1732 7.07316C18.4809 7.07316 17.9285 6.51633 17.9285 5.82813C17.9285 5.14053 18.4859 4.58309 19.1732 4.58309C19.8605 4.58309 20.4179 5.14053 20.4179 5.82813Z" stroke="#4A4A4A" stroke-width="0.5"/>
</svg>
