<svg width="25" height="25" viewBox="0 0 25 25" fill="none" xmlns="http://www.w3.org/2000/svg">
<path d="M20.3095 10.1548C20.3095 12.3956 19.5821 14.4657 18.3567 16.1451L24.5374 22.3307C25.1477 22.941 25.1477 23.932 24.5374 24.5423C23.9272 25.1526 22.9361 25.1526 22.3258 24.5423L16.1451 18.3567C14.4657 19.587 12.3956 20.3095 10.1548 20.3095C4.54523 20.3095 0 15.7643 0 10.1548C0 4.54523 4.54523 0 10.1548 0C15.7643 0 20.3095 4.54523 20.3095 10.1548ZM10.1548 17.185C14.036 17.185 17.185 14.036 17.185 10.1548C17.185 6.27349 14.036 3.12454 10.1548 3.12454C6.27349 3.12454 3.12454 6.27349 3.12454 10.1548C3.12454 14.036 6.27349 17.185 10.1548 17.185Z" fill="#4A4A4A"/>
</svg>
