<svg width="44" height="44" viewBox="0 0 44 44" fill="none" xmlns="http://www.w3.org/2000/svg">
<path d="M37.3398 6.21338V35.4063C37.3398 38.2938 34.9766 40.6571 32.0977 40.6571H10.8883C10.407 40.6571 9.94297 40.5712 9.49609 40.4423C10.1664 42.479 12.0742 43.9743 14.3258 43.9743H35.8016C38.6117 43.9743 40.9148 41.6712 40.9148 38.861V11.0688C40.9148 8.7915 39.4023 6.8751 37.3398 6.21338Z" fill="white"/>
<path d="M29.6656 0H8.19843C5.38827 0 3.08514 2.30312 3.08514 5.11328V32.9141C3.08514 35.7242 5.38827 38.0273 8.19843 38.0273H29.6742C32.4844 38.0273 34.7875 35.7242 34.7875 32.9141V5.11328C34.7789 2.30312 32.4844 0 29.6656 0ZM31.2984 30.0609C31.2984 32.2695 29.4851 34.0828 27.2766 34.0828H10.3898C8.18124 34.0828 6.36796 32.2695 6.36796 30.0609V8.19844C6.36796 5.98984 8.18124 4.17656 10.3898 4.17656H27.2851C29.4937 4.17656 31.307 5.98984 31.307 8.19844V30.0609H31.2984Z" fill="white"/>
<path d="M27.4828 10.0976H16.3711C15.907 10.0976 15.5289 9.71943 15.5289 9.25537V9.19522C15.5289 8.73115 15.907 8.35303 16.3711 8.35303H27.4828C27.9469 8.35303 28.325 8.73115 28.325 9.19522V9.25537C28.3336 9.71943 27.9469 10.0976 27.4828 10.0976Z" fill="white"/>
<path d="M27.4828 15.0561H10.3469C9.88279 15.0561 9.50467 14.6779 9.50467 14.2139V14.1537C9.50467 13.6896 9.88279 13.3115 10.3469 13.3115H27.4914C27.9555 13.3115 28.3336 13.6896 28.3336 14.1537V14.2139C28.3336 14.6693 27.9469 15.0561 27.4828 15.0561Z" fill="white"/>
<path d="M27.4828 20.0063H10.3469C9.88279 20.0063 9.50467 19.6281 9.50467 19.1641V19.1039C9.50467 18.6398 9.88279 18.2617 10.3469 18.2617H27.4914C27.9555 18.2617 28.3336 18.6398 28.3336 19.1039V19.1641C28.3336 19.6281 27.9469 20.0063 27.4828 20.0063Z" fill="white"/>
<path d="M27.4828 24.9647H10.3469C9.88279 24.9647 9.50467 24.5866 9.50467 24.1226V24.0624C9.50467 23.5983 9.88279 23.2202 10.3469 23.2202H27.4914C27.9555 23.2202 28.3336 23.5983 28.3336 24.0624V24.1226C28.3336 24.5866 27.9469 24.9647 27.4828 24.9647Z" fill="white"/>
<path d="M27.4828 29.9232H10.3469C9.88279 29.9232 9.50467 29.5451 9.50467 29.0811V29.0209C9.50467 28.5568 9.88279 28.1787 10.3469 28.1787H27.4914C27.9555 28.1787 28.3336 28.5568 28.3336 29.0209V29.0811C28.3336 29.5365 27.9469 29.9232 27.4828 29.9232Z" fill="white"/>
</svg>
