<svg width="28" height="28" viewBox="0 0 28 28" fill="none" xmlns="http://www.w3.org/2000/svg">
<path d="M23.7617 3.95386V22.5312C23.7617 24.3687 22.2578 25.8726 20.4258 25.8726H6.92891C6.62266 25.8726 6.32734 25.8179 6.04297 25.7359C6.46953 27.032 7.68359 27.9835 9.11641 27.9835H22.7828C24.5711 27.9835 26.0367 26.5179 26.0367 24.7296V7.0437C26.0367 5.59448 25.0742 4.37495 23.7617 3.95386Z" fill="#4A4A4A"/>
<path d="M18.8781 0H5.21719C3.42891 0 1.96329 1.46562 1.96329 3.25391V20.9453C1.96329 22.7336 3.42891 24.1992 5.21719 24.1992H18.8836C20.6719 24.1992 22.1375 22.7336 22.1375 20.9453V3.25391C22.132 1.46562 20.6719 0 18.8781 0ZM19.9172 19.1297C19.9172 20.5352 18.7633 21.6891 17.3578 21.6891H6.61173C5.20626 21.6891 4.05235 20.5352 4.05235 19.1297V5.21719C4.05235 3.81172 5.20626 2.65781 6.61173 2.65781H17.3633C18.7688 2.65781 19.9227 3.81172 19.9227 5.21719V19.1297H19.9172Z" fill="#4A4A4A"/>
<path d="M17.489 6.42583H10.418C10.1226 6.42583 9.88202 6.18521 9.88202 5.88989V5.85161C9.88202 5.5563 10.1226 5.31567 10.418 5.31567H17.489C17.7844 5.31567 18.025 5.5563 18.025 5.85161V5.88989C18.0305 6.18521 17.7844 6.42583 17.489 6.42583Z" fill="#4A4A4A"/>
<path d="M17.4891 9.58135H6.58437C6.28906 9.58135 6.04843 9.34072 6.04843 9.04541V9.00713C6.04843 8.71182 6.28906 8.47119 6.58437 8.47119H17.4945C17.7898 8.47119 18.0305 8.71182 18.0305 9.00713V9.04541C18.0305 9.33525 17.7844 9.58135 17.4891 9.58135Z" fill="#4A4A4A"/>
<path d="M17.4891 12.7313H6.58437C6.28906 12.7313 6.04843 12.4906 6.04843 12.1953V12.157C6.04843 11.8617 6.28906 11.6211 6.58437 11.6211H17.4945C17.7898 11.6211 18.0305 11.8617 18.0305 12.157V12.1953C18.0305 12.4906 17.7844 12.7313 17.4891 12.7313Z" fill="#4A4A4A"/>
<path d="M17.4891 15.8868H6.58437C6.28906 15.8868 6.04843 15.6461 6.04843 15.3508V15.3125C6.04843 15.0172 6.28906 14.7766 6.58437 14.7766H17.4945C17.7898 14.7766 18.0305 15.0172 18.0305 15.3125V15.3508C18.0305 15.6461 17.7844 15.8868 17.4891 15.8868Z" fill="#4A4A4A"/>
<path d="M17.4891 19.0423H6.58437C6.28906 19.0423 6.04843 18.8017 6.04843 18.5063V18.4681C6.04843 18.1728 6.28906 17.9321 6.58437 17.9321H17.4945C17.7898 17.9321 18.0305 18.1728 18.0305 18.4681V18.5063C18.0305 18.7962 17.7844 19.0423 17.4891 19.0423Z" fill="#4A4A4A"/>
</svg>
