<svg width="22" height="14" viewBox="0 0 22 14" fill="none" xmlns="http://www.w3.org/2000/svg">
<g clip-path="url(#clip0_291_1524)">
<path fill-rule="evenodd" clip-rule="evenodd" d="M0.49988 7.00003C0.49988 6.80112 0.57888 6.61035 0.71958 6.4697C0.86018 6.32905 1.05098 6.25003 1.24988 6.25003L18.9394 6.25003L14.2189 1.53106C14.078 1.39016 13.9989 1.19916 13.9989 1.00006C13.9989 0.800861 14.078 0.609861 14.2189 0.469061C14.3597 0.328161 14.5507 0.24906 14.7499 0.24906C14.949 0.24906 15.14 0.328161 15.2809 0.469061L21.2809 6.46903C21.3507 6.5387 21.4061 6.62146 21.4439 6.71258C21.4818 6.8037 21.5012 6.90138 21.5012 7.00003C21.5012 7.09868 21.4818 7.19636 21.4439 7.28748C21.4061 7.3786 21.3507 7.46136 21.2809 7.53103L15.2809 13.531C15.14 13.6719 14.949 13.751 14.7499 13.751C14.5507 13.751 14.3597 13.6719 14.2189 13.531C14.078 13.3902 13.9989 13.1992 13.9989 13C13.9989 12.8009 14.078 12.6099 14.2189 12.469L18.9394 7.75003L1.24988 7.75003C1.05098 7.75003 0.86018 7.67101 0.71958 7.53036C0.57888 7.38971 0.49988 7.19894 0.49988 7.00003Z" fill="#4A4A4A"/>
</g>
<defs>
<clipPath id="clip0_291_1524">
<rect width="22" height="14" fill="white" transform="translate(22 14) rotate(-180)"/>
</clipPath>
</defs>
</svg>
