<svg width="22" height="25" viewBox="0 0 22 25" fill="none" xmlns="http://www.w3.org/2000/svg">
<path d="M13.2812 14.8438H8.59375C3.84766 14.8438 0 18.6914 0 23.4375C0 24.3003 0.699707 25 1.5625 25H20.3125C21.1753 25 21.875 24.3003 21.875 23.4375C21.875 18.6914 18.0273 14.8438 13.2812 14.8438ZM2.39209 22.6562C2.77783 19.5752 5.41016 17.1875 8.59375 17.1875H13.2812C16.4629 17.1875 19.0967 19.5776 19.4824 22.6562H2.39209ZM10.9375 12.5C14.3892 12.5 17.1875 9.70166 17.1875 6.25C17.1875 2.79834 14.3892 0 10.9375 0C7.48584 0 4.6875 2.79834 4.6875 6.25C4.6875 9.70215 7.48535 12.5 10.9375 12.5ZM10.9375 2.34375C13.0913 2.34375 14.8438 4.09619 14.8438 6.25C14.8438 8.40381 13.0913 10.1562 10.9375 10.1562C8.78369 10.1562 7.03125 8.40332 7.03125 6.25C7.03125 4.09619 8.78418 2.34375 10.9375 2.34375Z" fill="#5B712E"/>
</svg>
