<svg width="40" height="41" viewBox="0 0 40 41" fill="none" xmlns="http://www.w3.org/2000/svg">
<path d="M27.4373 26.1692C24.8405 28.1698 21.918 29.79 18.6843 30.4718C15.3963 31.1633 11.9257 30.7928 8.98827 29.1133C3.69596 26.0853 0.417887 19.7871 1.77553 13.721C2.51111 10.446 4.52041 7.92669 7.07277 5.84211C9.52639 3.83656 12.4441 2.57199 15.6234 2.39416C21.5378 2.0632 26.9387 5.36295 29.4269 10.7275C32.1866 16.6899 30.197 23.9068 25.0627 27.9031C24.3123 28.486 25.3639 29.5282 26.1093 28.9504C31.1152 25.0578 33.3862 18.1272 31.5053 12.0514C29.6096 5.93102 24.1987 1.49018 17.8105 0.946808C14.4879 0.665242 11.0716 1.44572 8.22799 3.20427C5.23626 5.05669 2.47162 7.7291 1.09424 11.0091C-1.54698 17.3023 0.793089 24.5884 5.96692 28.8218C9.18574 31.4548 13.1895 32.6699 17.3315 32.1907C21.3403 31.7265 25.0084 29.9037 28.1778 27.4634C28.4987 27.2165 28.6616 26.8312 28.4444 26.4508C28.2765 26.1248 27.7532 25.9272 27.4373 26.1692Z" fill="#4A4A4A"/>
<path d="M27.8405 27.5859C31.1679 30.0557 34.2584 32.8418 37.0675 35.8896C37.4131 36.265 37.7833 36.6356 38.0992 37.0406C38.2228 37.1987 38.3017 37.2777 38.2375 37.4556C38.1635 37.6631 37.8377 37.9002 37.6747 38.0533C37.3045 38.4089 36.9144 38.7449 36.4997 39.0462C36.3616 39.145 36.1591 39.3474 35.9912 39.382C35.8531 39.4117 35.7148 39.2091 35.542 39.0264C33.977 37.4308 32.4318 35.8156 30.9013 34.1854C29.1833 32.3528 27.485 30.4954 25.8115 28.6184C25.1746 27.907 24.1329 28.9542 24.7648 29.6655C26.5174 31.6315 28.2946 33.5779 30.1016 35.4945C30.9754 36.4231 31.8542 37.3519 32.7428 38.2706C33.1871 38.73 33.6315 39.1895 34.0758 39.6438C34.4757 40.0538 34.8952 40.6318 35.4581 40.8195C36.5294 41.1751 37.5907 40.1131 38.3264 39.4661C39.0669 38.814 40.0593 37.9643 39.689 36.8578C39.5211 36.359 39.1261 35.9686 38.7855 35.5883C38.3658 35.1142 37.9364 34.6498 37.5019 34.1904C36.6577 33.2962 35.7888 32.4269 34.8952 31.5872C32.9007 29.7001 30.7878 27.9466 28.5859 26.3065C27.8257 25.7384 27.0851 27.0277 27.8405 27.5859Z" fill="#4A4A4A"/>
<path d="M19.9751 8.16759C22.9125 9.68409 26.0819 12.2527 26.4621 15.7749C26.8966 19.7958 23.6432 23.0412 20.4983 24.9776C16.7908 27.2647 12.2934 25.7926 9.35095 22.9177C6.44808 20.0823 5.36198 15.5278 7.73167 12.0107C8.96588 10.183 10.9061 8.81963 12.8759 7.88108C13.9472 7.37228 15.1271 7.02156 16.3218 7.0512C17.6104 7.09071 18.8347 7.59457 19.9751 8.16759C20.8242 8.5924 21.5746 7.31795 20.7206 6.88819C18.4002 5.7224 16.0255 5.17903 13.4979 6.03855C11.3553 6.76963 9.28184 8.09843 7.70698 9.71867C6.11731 11.3587 5.10525 13.4136 4.95222 15.7106C4.79917 18.057 5.54464 20.4577 6.91708 22.3546C9.55337 25.9952 14.5494 28.633 19.0618 27.2598C21.224 26.6027 23.268 25.0516 24.823 23.4364C26.393 21.8111 27.6124 19.7661 27.9037 17.4988C28.5257 12.6973 24.6404 8.90855 20.7156 6.88819C19.8763 6.4535 19.1259 7.73288 19.9751 8.16759Z" fill="#4A4A4A"/>
</svg>
