<svg width="48" height="48" viewBox="0 0 48 48" fill="none" xmlns="http://www.w3.org/2000/svg">
<path d="M24 47.4375C36.9442 47.4375 47.4375 36.9442 47.4375 24C47.4375 11.0558 36.9442 0.5625 24 0.5625C11.0558 0.5625 0.5625 11.0558 0.5625 24C0.5625 36.9442 11.0558 47.4375 24 47.4375Z" fill="#4BC190"/>
<path opacity="0.3" d="M24 42.75C34.3553 42.75 42.75 34.3553 42.75 24C42.75 13.6447 34.3553 5.25 24 5.25C13.6447 5.25 5.25 13.6447 5.25 24C5.25 34.3553 13.6447 42.75 24 42.75Z" fill="#356CB6"/>
<path d="M37.6719 31.0316C37.2575 31.0316 36.86 30.867 36.567 30.574C36.274 30.2809 36.1094 29.8835 36.1094 29.4691V12.2816C35.9981 11.0167 35.417 9.8394 34.4806 8.98177C33.5443 8.12415 32.3206 7.64844 31.0508 7.64844C29.781 7.64844 28.5573 8.12415 27.6209 8.98177C26.6845 9.8394 26.1034 11.0167 25.9922 12.2816L28.3359 31.0316C28.3359 32.2748 28.8298 33.4671 29.7089 34.3462C30.588 35.2253 31.7802 35.7191 33.0234 35.7191C34.2666 35.7191 35.4589 35.2253 36.338 34.3462C37.2171 33.4671 37.7109 32.2748 37.7109 31.0316H37.6719Z" fill="#393C54"/>
<path d="M28.2969 16.9688C30.4542 16.9688 32.2031 15.2199 32.2031 13.0625C32.2031 10.9051 30.4542 9.15625 28.2969 9.15625C26.1395 9.15625 24.3906 10.9051 24.3906 13.0625C24.3906 15.2199 26.1395 16.9688 28.2969 16.9688Z" fill="#F85565"/>
<path d="M23.6094 9.9375C26.6563 9.9375 29.5783 11.1479 31.7328 13.3023C33.8873 15.4568 35.0977 18.3789 35.0977 21.4258V23.8164C35.0977 24.9498 34.6474 26.0368 33.846 26.8382C33.0446 27.6396 31.9576 28.0898 30.8242 28.0898H16.3945C15.2611 28.0898 14.1742 27.6396 13.3728 26.8382C12.5713 26.0368 12.1211 24.9498 12.1211 23.8164V21.4258C12.1211 18.3789 13.3315 15.4568 15.4859 13.3023C17.6404 11.1479 20.5625 9.9375 23.6094 9.9375Z" fill="#393C54"/>
<path d="M32.5859 30.5391C33.9731 30.5391 35.0977 29.4145 35.0977 28.0273C35.0977 26.6402 33.9731 25.5156 32.5859 25.5156C31.1988 25.5156 30.0742 26.6402 30.0742 28.0273C30.0742 29.4145 31.1988 30.5391 32.5859 30.5391Z" fill="#FBC0AA"/>
<path d="M24 47.4375C28.5846 47.4428 33.0688 46.0948 36.8906 43.5625L35.8516 40.6562C35.5826 39.9021 35.0883 39.2489 34.4357 38.7849C33.7832 38.321 33.0038 38.0688 32.2031 38.0625H15.0352C14.2292 38.0624 13.4429 38.3116 12.7841 38.776C12.1253 39.2403 11.6263 39.8971 11.3555 40.6562L10.4688 43.1406C14.4234 45.9435 19.1528 47.4453 24 47.4375Z" fill="#F8DC25"/>
<path d="M31.3906 38.0625H15.8281C16.0025 40.0059 16.8977 41.8136 18.3377 43.1302C19.7777 44.4468 21.6582 45.1769 23.6094 45.1769C25.5605 45.1769 27.4411 44.4468 28.8811 43.1302C30.3211 41.8136 31.2163 40.0059 31.3906 38.0625Z" fill="#F2BC0F"/>
<path d="M27.125 38.5508C27.125 39.4832 26.7546 40.3774 26.0953 41.0367C25.436 41.696 24.5418 42.0664 23.6094 42.0664C22.677 42.0664 21.7828 41.696 21.1235 41.0367C20.4641 40.3774 20.0938 39.4832 20.0938 38.5508C20.0938 36.5977 21.6562 37.3789 23.6094 37.3789C25.5625 37.3789 27.125 36.6094 27.125 38.5508Z" fill="white"/>
<path d="M23.6094 33.2773V38.6484" stroke="#FBC0AA" stroke-width="12" stroke-linecap="round" stroke-linejoin="round"/>
<path d="M14.6328 30.5391C16.02 30.5391 17.1445 29.4145 17.1445 28.0273C17.1445 26.6402 16.02 25.5156 14.6328 25.5156C13.2456 25.5156 12.1211 26.6402 12.1211 28.0273C12.1211 29.4145 13.2456 30.5391 14.6328 30.5391Z" fill="#FBC0AA"/>
<path d="M23.6094 37.6094C21.2266 37.6094 18.9414 36.6628 17.2565 34.9779C15.5716 33.293 14.625 31.0078 14.625 28.625V22.7344C14.625 20.3516 15.5716 18.0664 17.2565 16.3815C18.9414 14.6966 21.2266 13.75 23.6094 13.75C25.9922 13.75 28.2774 14.6966 29.9623 16.3815C31.6472 18.0664 32.5938 20.3516 32.5938 22.7344V28.6367C32.5906 31.0175 31.6427 33.2997 29.9581 34.9821C28.2736 36.6644 25.9902 37.6094 23.6094 37.6094Z" fill="#FFD8C9"/>
<path opacity="0.1" d="M16.5078 18.9219C17.0644 17.5369 18.0079 16.3415 19.2256 15.4784C20.4434 14.6153 21.8839 14.1211 23.375 14.0547" stroke="white" stroke-width="3.68" stroke-miterlimit="10" stroke-linecap="round"/>
<path d="M33.6953 21.9767C33.6959 20.6278 33.4259 19.2926 32.9013 18.0499C32.3767 16.8073 31.6081 15.6825 30.6412 14.7421C29.6742 13.8017 28.5284 13.0648 27.2716 12.5751C26.0148 12.0853 24.6726 11.8526 23.3243 11.8908C17.8321 12.0431 13.5235 16.6876 13.5235 22.1837V23.7462C13.5219 24.002 13.5723 24.2555 13.6717 24.4912C13.771 24.7269 13.9173 24.9399 14.1016 25.1173C14.2591 25.2722 14.438 25.4037 14.6329 25.5079V24.0001C14.6329 23.5857 14.7975 23.1883 15.0905 22.8953C15.3835 22.6022 15.7809 22.4376 16.1954 22.4376H18.2969C18.3697 22.4381 18.4412 22.4183 18.5033 22.3803C18.5654 22.3424 18.6157 22.2878 18.6485 22.2228L19.3125 20.8751L19.9844 22.2228C20.0172 22.2878 20.0674 22.3424 20.1296 22.3803C20.1917 22.4183 20.2632 22.4381 20.336 22.4376H31.0313C31.4457 22.4376 31.8431 22.6022 32.1361 22.8953C32.4292 23.1883 32.5938 23.5857 32.5938 24.0001V25.5197C32.7886 25.4154 32.9675 25.2839 33.125 25.129C33.3093 24.9516 33.4556 24.7386 33.555 24.5029C33.6544 24.2672 33.7048 24.0137 33.7032 23.7579L33.6953 21.9767Z" fill="#515570"/>
<path d="M26.6055 28.4062C26.6055 28.0954 26.7289 27.7974 26.9487 27.5776C27.1685 27.3578 27.4665 27.2344 27.7773 27.2344C28.0881 27.2344 28.3862 27.3578 28.606 27.5776C28.8258 27.7974 28.9492 28.0954 28.9492 28.4062" stroke="#515570" stroke-width="2" stroke-linecap="round" stroke-linejoin="round"/>
<path d="M23.4141 29.2734V30.8359" stroke="#FBC0AA" stroke-width="4.71" stroke-linecap="round" stroke-linejoin="round"/>
<path opacity="0.2" d="M27.125 25.5625H29.8594" stroke="#515570" stroke-width="2" stroke-linecap="round" stroke-linejoin="round"/>
<path d="M20.4844 28.4062C20.4844 28.0954 20.3609 27.7974 20.1411 27.5776C19.9214 27.3578 19.6233 27.2344 19.3125 27.2344C19.0017 27.2344 18.7036 27.3578 18.4839 27.5776C18.2641 27.7974 18.1406 28.0954 18.1406 28.4062" stroke="#515570" stroke-width="2" stroke-linecap="round" stroke-linejoin="round"/>
<path opacity="0.2" d="M20.0938 25.5625H17.3594" stroke="#515570" stroke-width="2" stroke-linecap="round" stroke-linejoin="round"/>
<path d="M26.5586 32.5938C26.6103 32.5967 26.6608 32.6099 26.7074 32.6326C26.7539 32.6553 26.7955 32.687 26.8296 32.7259C26.8638 32.7648 26.8899 32.8101 26.9064 32.8592C26.9229 32.9082 26.9295 32.9601 26.9258 33.0117C26.8291 33.8244 26.4377 34.5733 25.8257 35.1167C25.2138 35.6601 24.4238 35.9603 23.6055 35.9603C22.7871 35.9603 21.9971 35.6601 21.3852 35.1167C20.7733 34.5733 20.3819 33.8244 20.2852 33.0117C20.2815 32.9595 20.2883 32.907 20.3053 32.8574C20.3223 32.8079 20.3491 32.7622 20.3841 32.7232C20.419 32.6842 20.4615 32.6527 20.5089 32.6304C20.5564 32.6082 20.6078 32.5957 20.6602 32.5938H26.5586Z" fill="#393C54"/>
<path d="M21.6562 35.293C22.2272 35.7119 22.9169 35.9377 23.625 35.9377C24.3331 35.9377 25.0228 35.7119 25.5938 35.293C25.1719 34.6094 24.457 34.5469 23.6094 34.5469C22.7617 34.5469 22.0469 34.6094 21.6562 35.293Z" fill="#F85565"/>
<path d="M25.5624 33.375H21.6561C21.5599 33.3696 21.4658 33.3449 21.3793 33.3024C21.2928 33.2599 21.2157 33.2005 21.1527 33.1276C21.0896 33.0547 21.0419 32.9699 21.0123 32.8782C20.9827 32.7865 20.9718 32.6897 20.9804 32.5938H26.2538C26.2623 32.691 26.251 32.789 26.2204 32.8817C26.1899 32.9744 26.1407 33.0599 26.076 33.133C26.0113 33.2061 25.9324 33.2653 25.8441 33.3069C25.7558 33.3485 25.66 33.3717 25.5624 33.375Z" fill="white"/>
</svg>
