<svg width="41" height="40" viewBox="0 0 41 40" fill="none" xmlns="http://www.w3.org/2000/svg">
<path fill-rule="evenodd" clip-rule="evenodd" d="M20.8154 0C31.8537 0 40.8154 8.96172 40.8154 20C40.8154 31.0383 31.8537 40 20.8154 40C9.77715 40 0.81543 31.0383 0.81543 20C0.81543 8.96172 9.77715 0 20.8154 0ZM20.8154 7.5C17.4207 7.5 16.995 7.51437 15.6617 7.57523C14.3312 7.63594 13.4225 7.84727 12.6274 8.15625C11.8054 8.4757 11.1083 8.90312 10.4134 9.59805C9.71848 10.293 9.29105 10.9901 8.9716 11.812C8.66262 12.6071 8.45137 13.5158 8.39059 14.8462C8.3298 16.1795 8.31543 16.6052 8.31543 20C8.31543 23.3948 8.3298 23.8205 8.39059 25.1537C8.45137 26.4842 8.66262 27.3929 8.9716 28.188C9.29105 29.0099 9.71848 29.707 10.4134 30.402C11.1083 31.097 11.8054 31.5244 12.6274 31.8438C13.4225 32.1527 14.3312 32.3641 15.6617 32.4248C16.995 32.4856 17.4207 32.5 20.8154 32.5C24.2102 32.5 24.6359 32.4856 25.9692 32.4248C27.2996 32.3641 28.2083 32.1527 29.0034 31.8438C29.8254 31.5244 30.5225 31.097 31.2175 30.402C31.9124 29.707 32.3398 29.0099 32.6593 28.188C32.9682 27.3929 33.1795 26.4842 33.2402 25.1537C33.3011 23.8205 33.3154 23.3948 33.3154 20C33.3154 16.6052 33.3011 16.1795 33.2402 14.8462C33.1795 13.5158 32.9682 12.6071 32.6593 11.812C32.3398 10.9901 31.9124 10.293 31.2175 9.59805C30.5225 8.90312 29.8254 8.4757 29.0034 8.15625C28.2083 7.84727 27.2996 7.63594 25.9692 7.57523C24.6359 7.51437 24.2102 7.5 20.8154 7.5ZM20.8154 9.75227C24.1531 9.75227 24.5484 9.765 25.8665 9.82516C27.0853 9.88078 27.7471 10.0844 28.1875 10.2555C28.7711 10.4823 29.1875 10.7532 29.6248 11.1906C30.0623 11.628 30.3332 12.0445 30.5599 12.6279C30.7311 13.0684 30.9347 13.7302 30.9903 14.9489C31.0504 16.267 31.0632 16.6623 31.0632 20C31.0632 23.3377 31.0504 23.733 30.9903 25.0511C30.9347 26.2698 30.7311 26.9316 30.5599 27.3721C30.3332 27.9556 30.0623 28.372 29.6248 28.8094C29.1875 29.2469 28.7711 29.5177 28.1875 29.7445C27.7471 29.9156 27.0853 30.1193 25.8665 30.1748C24.5486 30.235 24.1533 30.2477 20.8154 30.2477C17.4775 30.2477 17.0823 30.235 15.7643 30.1748C14.5456 30.1193 13.8838 29.9156 13.4433 29.7445C12.8598 29.5177 12.4434 29.2469 12.006 28.8094C11.5686 28.372 11.2977 27.9556 11.071 27.3721C10.8998 26.9316 10.6961 26.2698 10.6405 25.0511C10.5804 23.733 10.5677 23.3377 10.5677 20C10.5677 16.6623 10.5804 16.267 10.6405 14.9489C10.6961 13.7302 10.8998 13.0684 11.071 12.6279C11.2977 12.0445 11.5686 11.628 12.006 11.1906C12.4434 10.7532 12.8598 10.4823 13.4433 10.2555C13.8838 10.0844 14.5456 9.88078 15.7643 9.82516C17.0825 9.765 17.4778 9.75227 20.8154 9.75227ZM20.8154 13.5811C17.2704 13.5811 14.3965 16.4549 14.3965 20C14.3965 23.5451 17.2704 26.4189 20.8154 26.4189C24.3605 26.4189 27.2343 23.5451 27.2343 20C27.2343 16.4549 24.3605 13.5811 20.8154 13.5811ZM20.8154 24.1666C18.5143 24.1666 16.6488 22.3012 16.6488 20C16.6488 17.6988 18.5143 15.8334 20.8154 15.8334C23.1166 15.8334 24.9821 17.6988 24.9821 20C24.9821 22.3012 23.1166 24.1666 20.8154 24.1666ZM28.988 13.3275C28.988 14.1559 28.3164 14.8274 27.4879 14.8274C26.6596 14.8274 25.988 14.1559 25.988 13.3275C25.988 12.4991 26.6596 11.8275 27.4879 11.8275C28.3164 11.8275 28.988 12.4991 28.988 13.3275Z" fill="#4A4A4A"/>
</svg>
