<svg width="25" height="25" viewBox="0 0 25 25" fill="none" xmlns="http://www.w3.org/2000/svg">
<path d="M24.5 12.5761C24.5 18.401 20.402 23.2605 14.9531 24.4001V16.7115H17.3654H17.7949L17.8597 16.2868L18.4141 12.6514L18.5019 12.0761H17.9199H14.9531V10.2155C14.9531 9.79036 15.0576 9.43201 15.2686 9.1865C15.4675 8.95505 15.8234 8.75152 16.4899 8.75152H18.0665H18.5665V8.25152V5.15822V4.7367L18.1511 4.66542L18.0665 5.15822L18.151 4.6654L18.1509 4.66538L18.1505 4.66532L18.1494 4.66513L18.1457 4.6645L18.1321 4.66223L18.0817 4.654C18.038 4.64698 17.9748 4.63708 17.8948 4.62525C17.7351 4.60161 17.5083 4.57021 17.238 4.53883C16.6995 4.47633 15.9789 4.41278 15.2681 4.41278C13.7381 4.41278 12.4187 4.88101 11.4816 5.82488C10.5443 6.76887 10.0469 8.13062 10.0469 9.80527V12.0761H7.37147H6.87147V12.5761V16.2115V16.7115H7.37147H10.0469V24.4001C4.59804 23.2605 0.5 18.401 0.5 12.5761C0.5 5.90208 5.87376 0.5 12.5 0.5C19.1262 0.5 24.5 5.90208 24.5 12.5761Z" stroke="#4A4A4A"/>
</svg>
