<svg width="40" height="40" viewBox="0 0 40 40" fill="none" xmlns="http://www.w3.org/2000/svg">
<path d="M7.16821 34.8938C7.01106 34.8205 6.89755 34.738 7.08091 34.573C7.19441 34.4813 7.31664 34.3988 7.43887 34.3163C8.58263 33.5372 9.65654 32.6847 10.3638 31.4288C10.9575 30.3838 10.8614 29.7697 10.1193 28.9997C5.9808 24.6547 4.16476 19.4571 5.07278 13.3155C5.58791 9.85046 7.09837 6.85295 9.29857 4.24962C10.6257 2.67295 12.206 1.39878 13.9347 0.335442C14.0395 0.271275 14.1879 0.252942 14.2054 0.0879413C14.1705 -0.00372559 14.1093 0.0237745 14.057 0.0237745C11.1146 0.0237745 8.17228 -0.0403923 5.23867 0.0421078C2.42729 0.133775 8.15661e-05 2.41628 0.00881254 5.68879C0.0262745 15.2496 0.00881254 24.8105 0.00881254 34.3805C0.00881254 37.3505 2.16536 39.8347 4.98547 39.9447C7.36903 40.0455 9.75259 39.963 12.1449 39.9539C12.3195 39.963 12.4941 39.9722 12.6687 39.9722H25.2763C28.4194 39.9722 31.5626 39.9905 34.7057 39.9722C37.6219 39.9722 39.988 37.4972 39.988 34.4447V34.3897V29.0272C39.988 28.8988 40.0316 28.7613 39.953 28.6238C39.7959 28.633 39.7348 28.7705 39.6475 28.8622C37.9536 30.6497 35.9543 32.0888 33.7628 33.1063C28.3932 35.5905 22.9276 35.7647 17.3835 33.7663C16.9033 33.583 16.3794 33.5647 15.8817 33.693C15.1483 33.8855 14.4237 34.1147 13.699 34.3438C11.5686 35.0405 9.39461 35.3522 7.16821 34.8938ZM13.4982 19.448C13.6466 19.2463 13.7252 19.1271 13.8125 19.008C14.9562 17.4863 16.1 15.9646 17.2438 14.4338C17.5755 13.9938 17.9073 13.5446 18.1169 13.013C18.3613 12.408 18.0994 11.8396 17.5057 11.6196C17.2438 11.5371 16.9644 11.5005 16.685 11.5188C15.1309 11.5096 13.568 11.5096 12.0139 11.5188C11.7956 11.5188 11.5774 11.5463 11.3678 11.6013C10.8789 11.7296 10.582 12.2521 10.7043 12.7746C10.7916 13.123 11.0535 13.398 11.3853 13.4805C11.5948 13.5355 11.8131 13.563 12.0314 13.5538C12.9743 13.563 13.926 13.5538 14.8689 13.563C14.9737 13.563 15.1047 13.4896 15.1833 13.6546C15.1047 13.7646 15.0261 13.8746 14.9475 13.9755C13.5942 15.7721 12.2496 17.578 10.8963 19.3746C10.5646 19.8238 10.3899 20.3188 10.6344 20.8688C10.8789 21.4188 11.3765 21.5196 11.8829 21.5563C12.2846 21.5838 12.6949 21.5655 13.1053 21.5655C14.5197 21.5655 15.9254 21.5746 17.3398 21.5563C18.0907 21.5471 18.4923 21.0705 18.4137 20.3371C18.3526 19.7596 17.9772 19.4571 17.2787 19.448C16.0476 19.4388 14.8166 19.448 13.4982 19.448ZM23.6261 14.6263C22.5347 13.6271 21.3299 13.563 20.1512 14.2963C18.7193 15.1763 18.1954 16.6155 18.3701 18.2838C18.5359 19.8421 19.182 21.1163 20.7362 21.6388C21.7053 21.9688 22.6046 21.8497 23.3991 21.1713C23.6086 20.9971 23.6698 21.0338 23.8182 21.2263C24.1063 21.6113 24.604 21.758 25.0405 21.5838C25.4771 21.4463 25.7652 21.0246 25.7652 20.548C25.7739 18.7146 25.7827 16.8813 25.7652 15.048C25.7565 14.3146 25.1016 13.8471 24.4206 13.9938C24.0452 14.0763 23.8357 14.3421 23.6261 14.6263ZM29.6767 18.0271C29.6418 20.3188 31.4491 22.0513 33.7191 21.813C35.8058 21.593 37.1591 19.9521 37.0893 17.633C37.0194 15.3413 35.3955 13.7738 33.1691 13.8471C31.0824 13.9113 29.6068 15.6713 29.6767 18.0271ZM28.9084 16.203C28.9084 14.7638 28.9171 13.3338 28.9084 11.8946C28.9084 11.1613 28.4631 10.703 27.7995 10.7121C27.1534 10.7213 26.7256 11.1796 26.7169 11.8855C26.7081 12.3163 26.7169 12.738 26.7169 13.1688V20.4563C26.7169 21.0246 27.0487 21.5197 27.4852 21.6388C28.0876 21.813 28.7075 21.4371 28.8647 20.8046C28.8909 20.6946 28.9084 20.5846 28.8996 20.4655C28.9171 19.0446 28.9084 17.6238 28.9084 16.203Z" fill="#FDFEFE"/>
<path d="M12.1361 39.9623C9.7525 39.9623 7.36022 40.0448 4.97666 39.9531C2.15655 39.8339 0 37.3498 0 34.3889C0 24.8281 0.017462 15.2672 0 5.6972C0 2.42469 2.43594 0.142186 5.23859 0.059686C8.1722 -0.0228142 11.1145 0.0413526 14.0569 0.0413526C14.1093 0.0413526 14.1791 0.0138525 14.2053 0.105519C14.1878 0.27052 14.0307 0.288853 13.9346 0.35302C12.2059 1.41636 10.6256 2.69052 9.29849 4.26719C7.10702 6.87053 5.58783 9.85887 5.0727 13.333C4.16468 19.4656 5.98945 24.6722 10.1192 29.0172C10.8526 29.7964 10.9486 30.4014 10.3637 31.4464C9.65646 32.7022 8.58255 33.5548 7.43879 34.3339C7.31656 34.4073 7.19433 34.4989 7.07209 34.5814C6.88874 34.7464 7.00225 34.8289 7.1594 34.9023C7.19433 34.9848 7.23798 35.0581 7.29037 35.1314C8.29443 36.0664 9.24611 37.0656 10.2327 38.0189C10.6954 38.4681 11.1582 38.9356 11.6035 39.4031C11.7868 39.5773 12.0924 39.6323 12.1361 39.9623V39.9623Z" fill="#5B712E"/>
<path d="M12.1361 39.9634C12.0924 39.6426 11.7868 39.5876 11.6035 39.3951C11.1582 38.9184 10.6955 38.4601 10.2327 38.0109C9.24613 37.0576 8.29445 36.0584 7.29039 35.1234C7.238 35.0501 7.19435 34.9768 7.15942 34.8943C9.38582 35.3526 11.5598 35.0409 13.6989 34.3534C14.4236 34.1243 15.1483 33.8951 15.8817 33.7026C16.3793 33.5651 16.9032 33.5926 17.3834 33.7759C22.9188 35.7743 28.3844 35.5909 33.7627 33.1159C35.9542 32.0984 37.9536 30.6684 39.6474 28.8809C39.7347 28.7892 39.7958 28.6517 39.953 28.6426C40.0316 28.7709 39.9879 28.9084 39.9879 29.0459V34.4084C40.0054 37.4701 37.6655 39.9634 34.7493 39.9909H34.7057C31.5625 40.0093 28.4194 39.9909 25.2762 39.9909H12.6599C12.4853 39.9726 12.3107 39.9634 12.1361 39.9634V39.9634Z" fill="#5B712E"/>
<path d="M13.498 19.4484C14.8164 19.4484 16.0562 19.4392 17.2873 19.4484C17.977 19.4575 18.3524 19.76 18.4223 20.3375C18.5009 21.0617 18.0992 21.5475 17.3484 21.5567C15.934 21.575 14.5283 21.5659 13.1139 21.5659C12.7035 21.5659 12.3019 21.5842 11.8915 21.5567C11.3851 21.5292 10.8875 21.4192 10.643 20.8692C10.3985 20.3192 10.5731 19.8242 10.9049 19.375C12.2495 17.5784 13.6028 15.7725 14.9561 13.9759C15.0347 13.8659 15.1133 13.7559 15.1918 13.655C15.1045 13.4992 14.9823 13.5725 14.8775 13.5634C13.9346 13.5542 12.9829 13.5634 12.0399 13.5542C11.8217 13.5542 11.6034 13.5267 11.3939 13.4809C10.8962 13.3617 10.5906 12.8392 10.7041 12.3259C10.7827 11.9775 11.0446 11.6934 11.3764 11.6109C11.5859 11.5559 11.8042 11.5284 12.0225 11.5284C13.5766 11.5192 15.1394 11.5192 16.6936 11.5284C16.973 11.5192 17.2436 11.5559 17.5143 11.6292C18.108 11.84 18.3612 12.4175 18.1254 13.0225C17.9159 13.545 17.5841 13.9942 17.2523 14.4434C16.1086 15.9742 14.9648 17.4959 13.8211 19.0084C13.725 19.1275 13.6377 19.2467 13.498 19.4484V19.4484Z" fill="#5B712E"/>
<path d="M23.626 14.6258C23.8356 14.3417 24.0539 14.0758 24.4118 14.0025C25.1016 13.8558 25.7477 14.3233 25.7564 15.0567C25.7826 16.89 25.7739 18.7234 25.7564 20.5567C25.7564 21.0334 25.4595 21.455 25.0317 21.5925C24.5952 21.7667 24.0975 21.6292 23.8094 21.235C23.661 21.0425 23.5998 21.0059 23.3903 21.18C22.5958 21.8584 21.6965 21.9775 20.7274 21.6475C19.1732 21.1159 18.5359 19.8417 18.3613 18.2925C18.1779 16.615 18.7105 15.185 20.1424 14.305C21.3298 13.5625 22.5347 13.6267 23.626 14.6258V14.6258ZM20.5353 17.9717C20.5527 18.375 20.675 18.76 20.902 19.0809C21.3734 19.7409 22.2727 19.8784 22.9101 19.3834C23.0149 19.3009 23.1109 19.2 23.1982 19.0809C23.6872 18.3842 23.6872 17.2384 23.1982 16.5417C22.9538 16.1842 22.5696 15.9733 22.1592 15.9642C21.1988 15.9 20.5265 16.6792 20.5353 17.9717V17.9717ZM29.6766 18.0267C29.6068 15.6708 31.0823 13.9108 33.1777 13.8467C35.4041 13.7733 37.0281 15.3408 37.0979 17.6325C37.1678 19.9517 35.8145 21.5925 33.7278 21.8125C31.449 22.0509 29.6417 20.3184 29.6766 18.0267V18.0267ZM31.8681 17.8067C31.8506 18.265 31.9816 18.7142 32.2435 19.09C32.7237 19.75 33.623 19.8784 34.2516 19.365C34.3477 19.2917 34.4263 19.2 34.5048 19.1084C35.0112 18.4117 35.0112 17.2384 34.5136 16.5417C34.2691 16.1933 33.8849 15.9733 33.4746 15.9642C32.5316 15.9092 31.8681 16.6609 31.8681 17.8067V17.8067ZM28.9083 16.2025C28.9083 17.6234 28.917 19.0442 28.9083 20.465C28.917 21.1159 28.4281 21.6567 27.8082 21.675C27.7034 21.675 27.5899 21.6659 27.4851 21.6384C27.0486 21.5192 26.7168 21.0334 26.7168 20.4559V13.1683C26.7168 12.7375 26.7081 12.3158 26.7168 11.885C26.7255 11.1792 27.1534 10.7208 27.7994 10.7208C28.463 10.7117 28.9083 11.17 28.9083 11.9033C28.917 13.3333 28.9083 14.7725 28.9083 16.2025V16.2025Z" fill="#5B712E"/>
</svg>
