<svg width="51" height="51" viewBox="0 0 51 51" fill="none" xmlns="http://www.w3.org/2000/svg">
<path d="M20.6834 40.9801C9.44389 40.9801 0.200195 31.8606 0.200195 20.5399C0.200195 9.32393 9.33885 0.0996094 20.6834 0.0996094C32.0279 0.0996094 41.1666 9.21911 41.1666 20.5399C41.0615 31.8606 31.9229 40.9801 20.6834 40.9801ZM20.6834 3.13944C11.0195 3.13944 3.14137 11.0011 3.14137 20.6447C3.14137 30.2883 11.0195 38.1499 20.6834 38.1499C30.3473 38.1499 38.2254 30.2883 38.2254 20.6447C38.1204 11.0011 30.2422 3.13944 20.6834 3.13944Z" fill="#4A4A4A"/>
<path d="M47.9947 50.0996L33.709 35.9487L36.0199 33.6426L50.2006 47.8983L47.9947 50.0996Z" fill="#4A4A4A"/>
</svg>
