<svg width="60" height="60" viewBox="0 0 60 60" fill="none" xmlns="http://www.w3.org/2000/svg">
<circle r="30" transform="matrix(-1 0 0 1 30 30)" fill="white"/>
<path d="M37.2812 28.4609L25.2806 18.4592C24.8727 18.1217 24.3476 17.9597 23.8205 18.0085C23.2933 18.0574 22.8069 18.3132 22.468 18.72C22.129 19.1267 21.9649 19.6512 22.0118 20.1786C22.0587 20.706 22.3126 21.1934 22.718 21.5339L32.8747 29.9983L22.718 38.4627C22.3111 38.8028 22.0557 39.2906 22.0081 39.8188C21.9605 40.3471 22.1244 40.8726 22.464 41.28C22.8035 41.6875 23.2909 41.9434 23.8191 41.9917C24.3472 42.04 24.8729 41.8766 25.2806 41.5375L37.2812 31.5356C37.5062 31.3476 37.6872 31.1125 37.8114 30.8468C37.9356 30.5812 38 30.2915 38 29.9983C38 29.705 37.9356 29.4153 37.8114 29.1497C37.6872 28.8841 37.5062 28.6489 37.2812 28.4609Z" fill="#5B712E"/>
</svg>
