<svg width="25" height="25" viewBox="0 0 25 25" fill="none" xmlns="http://www.w3.org/2000/svg">
<g clip-path="url(#clip0_152_7)">
<path d="M5.86886 0.550377L5.86907 0.55032C6.5491 0.36454 7.25799 0.692474 7.55815 1.32104L7.59022 1.398L9.54335 6.0855L9.54343 6.0857C9.79028 6.67741 9.61996 7.35973 9.12203 7.76682C9.12202 7.76682 9.12202 7.76682 9.12201 7.76683L6.7148 9.73459L6.41208 9.98205L6.57926 10.3355C8.2547 13.8776 11.1221 16.7449 14.6641 18.4204L15.0171 18.5874L15.2647 18.2853L17.2373 15.8781L17.2391 15.8759C17.6402 15.3809 18.3259 15.2088 18.9188 15.4562L18.919 15.4563L23.6065 17.4094L23.6076 17.4099C24.2822 17.6891 24.642 18.4254 24.4493 19.1306L24.4493 19.1308L23.2778 23.4262C23.2777 23.4264 23.2777 23.4266 23.2776 23.4268C23.1024 24.0609 22.5271 24.4996 21.875 24.4996C10.0711 24.4996 0.5 14.9286 0.5 3.12464C0.5 2.47259 0.938671 1.89728 1.57273 1.72205C1.57295 1.72199 1.57317 1.72193 1.57339 1.72187L5.86886 0.550377Z" stroke="#333333"/>
</g>
<defs>
<clipPath id="clip0_152_7">
<rect width="25" height="25" fill="white"/>
</clipPath>
</defs>
</svg>
