<svg width="60" height="60" viewBox="0 0 60 60" fill="none" xmlns="http://www.w3.org/2000/svg">
<circle cx="30" cy="30" r="30" fill="white"/>
<path d="M22.7188 28.4609L34.7194 18.4592C35.1273 18.1217 35.6524 17.9597 36.1795 18.0085C36.7067 18.0574 37.1931 18.3132 37.532 18.72C37.871 19.1267 38.0351 19.6512 37.9882 20.1786C37.9413 20.706 37.6874 21.1934 37.282 21.5339L27.1253 29.9983L37.282 38.4627C37.6889 38.8028 37.9443 39.2906 37.9919 39.8188C38.0395 40.3471 37.8756 40.8726 37.536 41.28C37.1965 41.6875 36.7091 41.9434 36.1809 41.9917C35.6528 42.04 35.1271 41.8766 34.7194 41.5375L22.7188 31.5356C22.4938 31.3476 22.3128 31.1125 22.1886 30.8468C22.0644 30.5812 22 30.2915 22 29.9983C22 29.705 22.0644 29.4153 22.1886 29.1497C22.3128 28.8841 22.4938 28.6489 22.7188 28.4609Z" fill="#5B712E"/>
</svg>
