<svg width="50" height="50" viewBox="0 0 50 50" fill="none" xmlns="http://www.w3.org/2000/svg">
<path d="M19 50C21.2091 50 23 48.2091 23 46C23 43.7909 21.2091 42 19 42C16.7909 42 15 43.7909 15 46C15 48.2091 16.7909 50 19 50Z" fill="#4A4A4A"/>
<path d="M39 50C41.2091 50 43 48.2091 43 46C43 43.7909 41.2091 42 39 42C36.7909 42 35 43.7909 35 46C35 48.2091 36.7909 50 39 50Z" fill="#4A4A4A"/>
<path d="M11.9017 12.5555H48L42.6879 36.9388C42.4983 37.8237 42.0925 38.6026 41.5327 39.1556C40.9728 39.7086 40.29 40.0053 39.5891 39.9999H20.3126C19.6117 40.0053 18.9289 39.7086 18.3691 39.1556C17.8093 38.6026 17.4034 37.8237 17.2139 36.9388L9.92981 3.53055C9.83355 3.08921 9.63023 2.70104 9.35065 2.42485C9.07107 2.14867 8.73046 1.99952 8.38044 2L1.5 2" stroke="#4A4A4A" stroke-width="3" stroke-linecap="round" stroke-linejoin="round"/>
</svg>
