<svg width="40" height="40" viewBox="0 0 40 40" fill="none" xmlns="http://www.w3.org/2000/svg">
<circle cx="20" cy="20" r="20" fill="#4A4A4A"/>
<path d="M31 13.1307C30.228 13.4927 29.3972 13.7368 28.5254 13.8461C29.4155 13.2841 30.098 12.3938 30.4198 11.3318C29.5873 11.8529 28.6657 12.2311 27.6839 12.4352C26.8983 11.5521 25.7785 11 24.5392 11C22.1602 11 20.2312 13.0345 20.2312 15.5443C20.2312 15.8999 20.2692 16.2466 20.3429 16.5798C16.7621 16.39 13.5872 14.5812 11.4622 11.8318C11.0913 12.5026 10.879 13.2832 10.879 14.1168C10.879 15.6931 11.6395 17.0842 12.7956 17.8989C12.0896 17.8751 11.4251 17.6705 10.844 17.3302C10.8436 17.3491 10.8436 17.3684 10.8436 17.3877C10.8436 19.589 12.3288 21.4253 14.2999 21.8434C13.9384 21.9468 13.5578 22.0026 13.1647 22.0026C12.8868 22.0026 12.617 21.9743 12.3539 21.9208C12.9026 23.726 14.4935 25.0402 16.3785 25.0766C14.904 26.2955 13.0466 27.0221 11.0278 27.0221C10.6803 27.0221 10.3372 27.0005 10 26.9583C11.9072 28.2482 14.1716 29 16.6044 29C24.5294 29 28.8626 22.0759 28.8626 16.0708C28.8626 15.8739 28.8588 15.6774 28.8507 15.4822C29.6922 14.8429 30.4228 14.0421 31 13.1307Z" fill="white"/>
</svg>
