<svg width="319" height="319" viewBox="0 0 319 319" fill="none" xmlns="http://www.w3.org/2000/svg">
<g clip-path="url(#clip0_355_2146)">
<path d="M39.875 39.875H79.75V79.75H39.875V39.875Z" fill="black"/>
<path d="M119.625 0V119.625H0V0H119.625ZM99.6875 19.9375H19.9375V99.6875H99.6875V19.9375ZM79.75 239.25H39.875V279.125H79.75V239.25Z" fill="black"/>
<path d="M119.625 199.375V319H0V199.375H119.625ZM19.9375 219.312V299.062H99.6875V219.312H19.9375ZM239.25 39.875H279.125V79.75H239.25V39.875Z" fill="black"/>
<path d="M199.375 0V119.625H319V0H199.375ZM299.062 19.9375V99.6875H219.312V19.9375H299.062ZM159.5 19.9375V0H179.438V39.875H159.5V79.75H139.562V19.9375H159.5ZM159.5 119.625V79.75H179.438V119.625H159.5ZM119.625 159.5V139.562H139.562V119.625H159.5V159.5H179.438V139.562H279.125V159.5H199.375V179.438H139.562V159.5H119.625ZM119.625 159.5V179.438H39.875V159.5H19.9375V179.438H0V139.562H59.8125V159.5H119.625ZM319 179.438H299.062V139.562H319V179.438ZM299.062 179.438H279.125V219.312H319V199.375H299.062V179.438ZM219.312 179.438H259.188V199.375H239.25V219.312H219.312V179.438ZM259.188 239.25V219.312H239.25V239.25H219.312V259.188H179.438V279.125H239.25V239.25H259.188ZM259.188 239.25H319V259.188H279.125V279.125H259.188V239.25ZM179.438 219.312V239.25H199.375V199.375H139.562V219.312H179.438Z" fill="black"/>
<path d="M139.562 239.25H159.5V299.062H239.25V319H139.562V239.25ZM319 279.125V319H259.188V299.062H299.062V279.125H319Z" fill="black"/>
</g>
<defs>
<clipPath id="clip0_355_2146">
<rect width="319" height="319" fill="white"/>
</clipPath>
</defs>
</svg>
