<svg width="64" height="51" viewBox="0 0 64 51" fill="none" xmlns="http://www.w3.org/2000/svg">
<path d="M63.391 38.5368C63.2364 28.0247 63.1876 24.4855 62.4391 16.3817C62.4228 16.1946 62.317 16.0319 62.1624 15.9261C62.1217 15.9017 62.0729 15.8773 62.0241 15.861C62.0241 15.861 62.0241 15.861 62.016 15.861C60.4782 15.3566 56.4101 14.2989 52.521 13.2981C52.5616 11.8987 52.5291 10.3284 52.4315 8.51397C52.4315 8.44888 52.4152 8.26988 52.4152 8.24547C52.3257 7.43184 51.9107 6.89485 51.5283 6.56126C49.3641 4.70619 43.8802 5.81273 42.5215 6.29277C42.0333 6.46363 40.5362 6.99248 40.2026 8.30242C40.162 8.44888 40.1457 8.77433 40.1457 8.78246C40.1457 9.20555 40.1538 9.66118 40.162 10.1249C39.7796 10.0273 39.3972 9.92968 39.031 9.84018C38.3557 9.66932 37.7048 9.50659 37.0783 9.34387C37.1109 8.3187 37.0865 6.75653 37.062 5.43846C37.0458 4.74688 37.0376 3.72171 37.0376 3.71357C37.0295 2.71281 36.5657 2.07818 36.1264 1.70391C33.9621 -0.151158 28.4783 0.955375 27.1195 1.43541C26.6313 1.60628 25.1343 2.13513 24.8007 3.44507C24.76 3.59153 24.7275 4.5516 24.7193 4.89333C24.6868 6.18699 24.6542 7.74916 24.7031 9.46591C23.7918 9.72627 22.7829 10.0192 21.6357 10.3446C21.6194 9.889 21.595 9.44964 21.5706 9.02655C21.5543 8.74992 21.538 8.48956 21.5299 8.2292C21.5299 8.20479 21.5218 8.17224 21.5218 8.14784C21.4485 7.27725 21.0255 6.70772 20.6186 6.36599C18.4544 4.51092 12.9706 5.61746 11.6118 6.0975C11.1236 6.26836 9.62655 6.79721 9.29296 8.10715C9.25228 8.26988 9.23601 8.43261 9.23601 8.60347C9.23601 11.1257 9.23601 12.6146 9.26042 13.8432C5.63978 14.8684 2.18187 15.8529 0.831246 16.276C0.831246 16.276 0.831246 16.276 0.82311 16.276C0.75802 16.3004 0.69293 16.3329 0.635976 16.3736C0.489523 16.4875 0.400024 16.6665 0.400024 16.8536C0.400024 26.7229 0.554613 31.9139 1.05906 39.0494C1.07533 39.2935 1.22992 39.4969 1.45774 39.5782C6.57545 41.4414 11.563 43.3046 16.3878 45.1028C21.2126 46.9009 26.2001 48.7641 31.326 50.6273C31.3911 50.6517 31.4643 50.668 31.5375 50.668C31.6107 50.668 31.6758 50.6517 31.7491 50.6273C37.3224 48.5932 42.3506 46.8765 46.793 45.3631C53.0417 43.2314 58.4279 41.3845 63.0249 39.4643C63.2527 39.3667 63.3991 39.1389 63.3991 38.8948L63.391 38.5368ZM51.1703 15.4379C51.0971 15.8122 50.8042 16.1865 50.3974 16.4387C49.9336 16.7235 49.3722 16.8618 48.884 16.9594C47.1022 17.3011 45.2309 17.2605 43.4734 16.8374C42.9364 16.7072 42.3262 16.5282 41.8869 16.1539C41.5533 15.8692 41.3743 15.381 41.4149 14.8603C41.4719 14.1199 41.4394 12.7774 41.4149 11.3535C41.4149 11.2233 41.4068 11.0932 41.4068 10.963C41.9764 11.3454 42.6191 11.5407 43.1968 11.679C44.2626 11.9312 45.3692 12.0614 46.4757 12.0614C47.3626 12.0614 48.2575 11.98 49.12 11.8092C49.6814 11.7034 50.4137 11.5244 51.0483 11.1257C51.1459 11.0688 51.2354 11.0037 51.3249 10.9304C51.3493 12.6553 51.3005 14.128 51.1703 15.4379ZM41.3905 8.60347C41.5044 8.14784 42.0089 7.77357 42.9283 7.44812C43.8721 7.11453 45.8248 6.7484 47.5904 6.7484C48.884 6.7484 50.0882 6.94367 50.731 7.49693C50.9262 7.65966 51.1541 7.92815 51.2029 8.40819C51.2029 8.46515 51.211 8.5221 51.211 8.57906C51.211 8.72551 51.2029 8.8801 51.1622 9.06723C51.089 9.44964 50.8042 9.83204 50.3811 10.0924C49.9173 10.3772 49.3559 10.5155 48.8678 10.6131C47.0859 10.9548 45.2146 10.9142 43.4571 10.4911C42.9202 10.3609 42.3099 10.1819 41.8706 9.80763C41.6021 9.57982 41.3661 9.20555 41.358 8.83942C41.358 8.83128 41.358 8.81501 41.358 8.80687C41.3661 8.72551 41.3743 8.66042 41.3905 8.60347ZM25.956 3.94138C25.956 3.87629 25.9642 3.8112 25.9804 3.74611C26.0944 3.29048 26.5988 2.91622 27.5182 2.59076C28.462 2.25718 30.4147 1.89104 32.1803 1.89104C33.474 1.89104 34.6781 2.08632 35.3209 2.63958C35.5406 2.82672 35.8009 3.13589 35.8009 3.72984C35.8009 3.72984 35.8009 3.72984 35.8009 3.73798C35.8009 3.73798 35.8009 3.74611 35.8009 3.75425C35.8009 3.89257 35.7847 4.03902 35.7521 4.20988C35.6789 4.59229 35.3941 4.97469 34.971 5.23505C34.5073 5.51982 33.9459 5.65814 33.4577 5.75577C31.6758 6.09749 29.8045 6.05681 28.0471 5.63373C27.5101 5.50355 26.8998 5.32455 26.4605 4.95028C26.192 4.70619 25.9479 4.32379 25.956 3.94138ZM25.9072 6.04868C26.493 6.46363 27.1683 6.66704 27.7704 6.81349C28.8363 7.06571 29.9428 7.19589 31.0493 7.19589C31.9362 7.19589 32.8312 7.11453 33.6936 6.94367C34.255 6.83789 34.9873 6.6589 35.6219 6.26022C35.6952 6.2114 35.7684 6.16259 35.8335 6.11377C35.8579 7.59457 35.8823 9.31132 35.8009 9.95409C35.7684 10.2389 35.6626 10.5887 35.5487 10.8653C33.2461 9.2625 28.0877 10.3039 26.7697 10.7677C26.6395 10.8165 26.4361 10.8816 26.2083 10.9874C26.0699 10.7677 25.9642 10.5074 25.9479 10.2633C25.8828 8.74178 25.8909 7.30166 25.9072 6.04868ZM25.6469 13.0865C25.7608 12.6309 26.2652 12.2566 27.1846 11.9312C28.8281 11.3535 33.4658 10.6701 34.9873 11.98C35.0524 12.037 35.1175 12.1021 35.1826 12.1753C35.1907 12.1834 35.1988 12.1916 35.207 12.2078C35.4022 12.4682 35.5568 12.8669 35.4267 13.5503C35.3534 13.9327 35.0687 14.3151 34.6456 14.5755C34.1818 14.8603 33.6204 14.9986 33.1322 15.0962C31.3504 15.4379 29.479 15.3972 27.7216 14.9742C27.1846 14.844 26.5744 14.665 26.135 14.2907C25.8747 14.071 25.6469 13.7212 25.6225 13.3632C25.6225 13.355 25.6225 13.3469 25.6225 13.3388C25.6225 13.2411 25.6225 13.1598 25.6469 13.0865ZM27.4368 16.1539C28.5027 16.4061 29.6092 16.5363 30.7158 16.5363C31.6026 16.5363 32.4976 16.455 33.36 16.2841C33.9214 16.1783 34.6537 15.9993 35.2883 15.6007C35.3534 15.56 35.4104 15.5193 35.4673 15.4786C35.4673 15.7471 35.4673 16.0237 35.4673 16.2922C35.4673 17.4801 35.4673 18.7168 35.4673 19.4979C35.4673 20.1651 34.971 20.7102 34.6456 20.9218C34.1818 21.2065 33.6204 21.3449 33.1322 21.4425C31.3504 21.7842 29.479 21.7435 27.7216 21.3205C27.1846 21.1903 26.5744 21.0113 26.135 20.637C25.6957 20.2627 25.6143 20.1814 25.6225 19.6362C25.6387 18.6599 25.6306 17.5615 25.6225 16.4956C25.6225 16.1376 25.6143 15.7715 25.6143 15.4135C26.192 15.8122 26.851 16.0075 27.4368 16.1539ZM20.2607 15.2345C20.1874 15.6169 19.9027 15.9993 19.4796 16.2597C19.0158 16.5445 18.4544 16.6828 17.9662 16.7804C16.1844 17.1221 14.313 17.0815 12.5556 16.6584C12.0186 16.5282 11.4084 16.3492 10.969 15.9749C10.668 15.7227 10.5134 15.2752 10.4971 14.6162C10.4646 13.591 10.4565 12.4926 10.4565 10.7596C11.0341 11.1583 11.6932 11.3535 12.2708 11.4918C13.3367 11.7441 14.4432 11.8742 15.5498 11.8742C16.4366 11.8742 17.3316 11.7929 18.194 11.622C18.7554 11.5162 19.4877 11.3373 20.1223 10.9386C20.2281 10.8735 20.3257 10.8003 20.4234 10.727C20.4885 12.2892 20.4966 13.949 20.2607 15.2345ZM10.4809 8.41633C10.5948 7.9607 11.0992 7.58643 12.0186 7.26098C12.9624 6.9274 14.9151 6.56126 16.6807 6.56126C17.9744 6.56126 19.1785 6.75653 19.8213 7.3098C20.0898 7.53761 20.4315 7.95256 20.2607 8.8801C20.1874 9.2625 19.9027 9.64491 19.4796 9.90527C19.0158 10.19 18.4544 10.3284 17.9662 10.426C16.1844 10.7677 14.313 10.727 12.5556 10.3039C12.0186 10.1738 11.4084 9.99477 10.969 9.6205C10.7087 9.40082 10.4809 9.04283 10.4565 8.68483C10.4565 8.64415 10.4646 8.47329 10.4809 8.41633ZM9.31737 15.1043C9.41501 15.8854 9.69978 16.4794 10.1798 16.8862C10.8144 17.4313 11.5955 17.6673 12.2708 17.83C13.3367 18.0822 14.4432 18.2124 15.5498 18.2124C16.4366 18.2124 17.3316 18.131 18.194 17.9602C18.7554 17.8544 19.4877 17.6754 20.1223 17.2767C20.8383 16.8292 21.3265 16.1621 21.4567 15.4379C21.6682 14.307 21.7008 12.9482 21.6682 11.5976C22.8317 11.264 23.8569 10.9711 24.7844 10.7108C24.8576 11.0362 24.996 11.3535 25.175 11.6383C24.8495 11.9312 24.5729 12.2973 24.459 12.7774C24.4101 12.9645 24.3939 13.1516 24.402 13.3469V13.355C24.3857 14.3314 24.3939 15.4298 24.402 16.4956C24.4101 17.5534 24.4183 18.6436 24.402 19.6118C24.3939 20.6614 24.7681 21.0601 25.3458 21.5483C25.9804 22.0934 26.7615 22.3293 27.4368 22.4921C28.5027 22.7443 29.6092 22.8745 30.7158 22.8745C31.6026 22.8745 32.4976 22.7931 33.36 22.6223C33.9214 22.5165 34.6537 22.3375 35.2883 21.9388C35.9799 21.5076 36.6878 20.5801 36.6878 19.4898V19.4817C36.6878 18.7006 36.6878 17.4639 36.6878 16.276C36.6878 15.0962 36.6878 13.8676 36.6878 13.0947V13.0865C36.6878 12.5902 36.582 12.1753 36.4193 11.8498C36.6552 11.4674 36.8342 10.9793 36.9319 10.5643C37.5095 10.7108 38.1035 10.8653 38.73 11.0199C39.2019 11.142 39.6901 11.264 40.1864 11.3861C40.2189 12.7692 40.2433 14.071 40.1945 14.7545C40.1294 15.6657 40.463 16.5282 41.0895 17.0652C41.7241 17.6103 42.5052 17.8463 43.1805 18.009C44.2464 18.2612 45.3529 18.3914 46.4594 18.3914C47.3463 18.3914 48.2413 18.31 49.1037 18.1392C49.6651 18.0334 50.3974 17.8544 51.032 17.4557C51.748 17.0082 52.2362 16.3411 52.3664 15.6169C52.3664 15.6007 52.3745 15.5844 52.3745 15.5681C52.407 15.2264 52.4396 14.8765 52.464 14.5185C55.149 15.2101 57.8909 15.918 59.7866 16.4468C56.4101 17.5371 52.2118 18.7738 47.8019 20.0675C41.9357 21.7924 35.8742 23.5742 30.5205 25.3642C22.7585 22.2398 14.7361 19.7095 3.31281 16.7967C4.91565 16.3573 7.07176 15.739 9.31737 15.1043ZM16.819 43.98C12.1081 42.2225 7.24262 40.4163 2.25509 38.5937C1.78319 31.8732 1.6286 26.8124 1.62046 17.6591C13.654 20.6858 21.9286 23.2569 29.8859 26.4544C29.9021 33.2075 30.2601 41.596 30.8459 49.179C26.0537 47.4135 21.3591 45.6723 16.819 43.98ZM46.3943 44.224C42.1553 45.6723 37.3712 47.3077 32.0826 49.2278C31.4887 41.6448 31.1226 33.2401 31.1144 26.4788C36.403 24.7214 42.375 22.964 48.1518 21.2635C53.0742 19.8152 57.7363 18.4402 61.2918 17.2605C61.9672 24.7702 62.016 28.4071 62.1624 38.5042C57.6956 40.3593 52.4477 42.1493 46.3943 44.224Z" fill="#5B712E"/>
</svg>
