<svg width="76" height="70" viewBox="0 0 76 70" fill="none" xmlns="http://www.w3.org/2000/svg">
<g clip-path="url(#clip0_354_789)">
<path d="M1.01766 28.7766C17.4331 28.8411 33.8394 28.9239 50.2548 28.9331C54.9318 28.9331 59.5996 28.9331 64.2765 28.9147C63.9266 28.5649 63.5861 28.2242 63.2454 27.8835C62.3892 35.8841 61.5237 43.8755 60.6675 51.876C60.5479 53.0269 60.4189 54.187 60.2993 55.3378C60.6492 54.988 60.9897 54.6473 61.3304 54.3066C58.3014 54.3066 55.2632 54.3066 52.2342 54.3066C52.5656 54.5645 52.8971 54.813 53.2285 55.0708C51.9305 50.4491 50.6323 45.8181 49.325 41.1964C49.2052 40.7637 48.7817 40.4322 48.3307 40.4322C39.9986 40.469 31.6666 40.5059 23.3346 40.4599C21.217 40.4507 19.0903 40.4414 16.9728 40.4322C16.5125 40.4322 16.0982 40.7544 15.9785 41.1964C14.6803 45.8181 13.3822 50.4491 12.0749 55.0708C12.4063 54.813 12.7378 54.5645 13.0692 54.3066C10.0402 54.3066 7.00198 54.3066 3.973 54.3066C4.32285 54.6565 4.6635 54.9972 5.00414 55.3378C4.14791 47.3372 3.2825 39.3458 2.42627 31.3453C2.3066 30.1944 2.1777 29.0344 2.05801 27.8835C1.70816 28.2334 1.36751 28.5741 1.02686 28.9147C17.4883 28.9699 33.959 28.8963 50.4206 28.8318C55.0423 28.8135 59.664 28.795 64.295 28.7766C65.6299 28.7675 65.6299 26.6959 64.295 26.7051C47.8795 26.7696 31.4733 26.8524 15.0578 26.8617C10.3808 26.8617 5.71305 26.8617 1.03607 26.8432C0.520501 26.8432 -0.0595206 27.322 0.00492595 27.8743C0.861144 35.8749 1.72657 43.8663 2.58279 51.8669C2.70248 53.0177 2.83137 54.1778 2.95106 55.3286C3.0155 55.8902 3.37456 56.3598 3.98219 56.3598C7.01119 56.3598 10.0494 56.3598 13.0783 56.3598C13.5387 56.3598 13.953 56.0375 14.0727 55.5956C15.3708 50.9739 16.669 46.3429 17.9763 41.7212C17.6449 41.9789 17.3134 42.2275 16.982 42.4853C25.314 42.5221 33.646 42.5589 41.978 42.5129C44.0955 42.5037 46.2223 42.4946 48.3399 42.4853C48.0084 42.2275 47.677 41.9789 47.3456 41.7212C48.6436 46.3429 49.9418 50.9739 51.2491 55.5956C51.3689 56.0375 51.7924 56.3598 52.2434 56.3598C55.2724 56.3598 58.3106 56.3598 61.3396 56.3598C61.9472 56.3598 62.3155 55.881 62.3707 55.3286C63.227 47.3281 64.0924 39.3366 64.9486 31.336C65.0683 30.1853 65.1971 29.0252 65.3169 27.8743C65.3814 27.322 64.7921 26.834 64.2858 26.8432C47.8242 26.8985 31.3535 26.8249 14.8921 26.7604C10.2703 26.7419 5.6486 26.7236 1.01766 26.7051C-0.308102 26.7051 -0.317308 28.7766 1.01766 28.7766Z" fill="#3D3C3C"/>
<path d="M23.6753 14.8471C26.3729 17.7103 29.0612 20.5827 31.7587 23.446C32.6702 24.4219 34.1341 22.9488 33.2226 21.9822C30.525 19.1189 27.8367 16.2464 25.1392 13.3832C24.2277 12.4073 22.7638 13.8803 23.6753 14.8471Z" fill="#3D3C3C"/>
<path d="M39.842 13.3832C37.1445 16.2464 34.4561 19.1189 31.7586 21.9822C30.8471 22.9488 32.311 24.4219 33.2224 23.446C35.92 20.5827 38.6083 17.7103 41.3058 14.8471C42.2173 13.8803 40.7535 12.4073 39.842 13.3832Z" fill="#3D3C3C"/>
<path d="M41.2324 54.6092C38.5348 51.7459 35.8465 48.8734 33.1489 46.0101C32.2375 45.0343 30.7736 46.5073 31.6851 47.474C34.3826 50.3373 37.071 53.2097 39.7685 56.073C40.68 57.0397 42.1438 55.5758 41.2324 54.6092Z" fill="#3D3C3C"/>
<path d="M25.0655 56.073C27.7631 53.2097 30.4514 50.3373 33.149 47.474C34.0604 46.5073 32.5966 45.0343 31.6851 46.0101C28.9876 48.8734 26.2992 51.7459 23.6017 54.6092C22.6902 55.5758 24.1448 57.0397 25.0655 56.073Z" fill="#3D3C3C"/>
<path d="M33.6184 20.8493C33.7289 16.0342 34.5943 10.8048 37.8627 7.05771C40.7536 3.75252 45.1359 2.09532 49.4723 2.0677C59.0472 2.00326 66.4953 9.8289 69.6256 18.2898C71.7431 24.0164 72.3324 30.1848 72.2311 36.252C72.2126 37.5869 74.2842 37.5869 74.3026 36.252C74.4867 25.2593 72.2035 13.1894 63.5492 5.59385C59.8573 2.35311 55.2541 0.198752 50.3101 0.0146191C45.6146 -0.169514 40.7628 1.38641 37.3103 4.64556C32.9279 8.79776 31.685 15.049 31.5469 20.8493C31.5101 22.1843 33.5815 22.1843 33.6184 20.8493Z" fill="#3D3C3C"/>
<path d="M31.5469 48.8381C31.6758 54.1412 32.6977 59.6651 36.187 63.845C39.2068 67.4539 43.847 69.3781 48.478 69.6543C58.9459 70.2896 67.4436 62.2338 71.1815 53.0824C73.7042 46.8955 74.4131 40.0734 74.3026 33.4446C74.2842 32.1096 72.2126 32.1096 72.2311 33.4446C72.406 43.5811 70.5003 54.629 62.8587 61.9299C59.6364 65.0049 55.4658 67.2422 50.9729 67.5736C46.7195 67.8866 42.2266 66.7082 39.0227 63.8081C34.852 60.0518 33.7473 54.2148 33.6184 48.8473C33.5815 47.5031 31.5101 47.4939 31.5469 48.8381Z" fill="#3D3C3C"/>
</g>
<defs>
<clipPath id="clip0_354_789">
<rect width="75.303" height="70" fill="white"/>
</clipPath>
</defs>
</svg>
