<svg width="20" height="20" viewBox="0 0 20 20" fill="none" xmlns="http://www.w3.org/2000/svg">
<g clip-path="url(#clip0_479_672)">
<path d="M12.6562 3.39786L14.1478 1.93286C14.6725 1.41756 15.5153 1.42434 16.0316 1.94802L18.0956 4.04158C18.6001 4.55321 18.6084 5.37253 18.1145 5.8943L16.596 7.49828M12.6562 3.39786L10.6042 5.41329C10.3549 5.65817 10.0194 5.79537 9.6699 5.79537H5.91888C5.35425 5.79537 4.85084 6.15102 4.66218 6.6832L1.279 16.2267C1.10835 16.708 1.22767 17.2446 1.58624 17.6083L1.97939 18.007M12.6562 3.39786L16.596 7.49828M16.596 7.49828L14.5571 9.65207C14.3227 9.8997 14.1921 10.2278 14.1921 10.5688V14.0568C14.1921 14.6206 13.8374 15.1235 13.3064 15.3127L3.75923 18.7151C3.27096 18.8891 2.7261 18.7644 2.36217 18.3953L1.97939 18.007M1.97939 18.007L8.55317 11.3373" stroke="#3D3C3C" stroke-opacity="0.8" stroke-width="1.66667"/>
</g>
<defs>
<clipPath id="clip0_479_672">
<rect width="20" height="20" fill="white"/>
</clipPath>
</defs>
</svg>
