<svg width="84" height="70" viewBox="0 0 84 70" fill="none" xmlns="http://www.w3.org/2000/svg">
<g clip-path="url(#clip0_354_773)">
<path d="M57.8736 67.3773C43.0997 67.3273 28.3341 67.2607 13.5602 67.2524C9.3509 67.2524 5.14991 67.2523 0.940626 67.269C1.25549 67.5854 1.56208 67.8934 1.86866 68.2013C2.64754 61.8835 3.41813 55.5574 4.19702 49.2396C4.30473 48.3324 4.42074 47.4251 4.52846 46.5178C4.21359 46.834 3.90701 47.142 3.60043 47.45C6.32652 47.45 9.0609 47.45 11.787 47.45C11.4887 47.217 11.1904 46.9922 10.8921 46.7591C12.0604 50.4133 13.2288 54.0674 14.4053 57.7132C14.5296 58.1045 14.8859 58.4041 15.3002 58.4041C22.799 58.3709 30.2978 58.3459 37.7967 58.3792C39.7025 58.3875 41.6166 58.3958 43.5223 58.4041C43.9449 58.4041 44.2929 58.1128 44.4172 57.7132C45.5856 54.0591 46.7538 50.405 47.9304 46.7591C47.6321 46.9922 47.3338 47.217 47.0355 47.45C49.7616 47.45 52.496 47.45 55.2221 47.45C54.9073 47.1337 54.6007 46.8258 54.2941 46.5178C55.073 52.8355 55.8436 59.1617 56.6225 65.4794C56.7302 66.3867 56.8461 67.294 56.9539 68.2013C57.2687 67.885 57.5753 67.577 57.8819 67.269C43.0666 67.2274 28.2429 67.2857 13.4276 67.3357C9.26805 67.3522 5.10848 67.3606 0.940626 67.3773C-0.260842 67.3773 -0.260842 69.2584 0.940626 69.2501C15.7145 69.2001 30.4802 69.1336 45.254 69.1253C49.4634 69.1253 53.6644 69.1253 57.8736 69.1418C58.3293 69.1418 58.868 68.709 58.8016 68.2096C58.0228 61.8919 57.2522 55.5658 56.4733 49.2479C56.3656 48.3406 56.2495 47.4333 56.1419 46.5261C56.0838 46.0266 55.7607 45.5938 55.2139 45.5938C52.4878 45.5938 49.7534 45.5938 47.0273 45.5938C46.6047 45.5938 46.2567 45.8852 46.1324 46.2846C44.9641 49.9388 43.7957 53.593 42.6191 57.2388C42.9174 57.0058 43.2157 56.781 43.514 56.548C36.0152 56.5146 28.5164 56.4897 21.0176 56.523C19.1118 56.5313 17.1978 56.5396 15.2919 56.548C15.5902 56.781 15.8885 57.0058 16.1868 57.2388C15.0185 53.5847 13.8502 49.9305 12.6736 46.2846C12.5493 45.8934 12.193 45.5938 11.7787 45.5938C9.0526 45.5938 6.31823 45.5938 3.59215 45.5938C3.04527 45.5938 2.72212 46.0266 2.66411 46.5261C1.88523 52.8438 1.11463 59.1699 0.335753 65.4877C0.228034 66.395 0.112029 67.3023 0.00431181 68.2096C-0.0536901 68.709 0.484901 69.1502 0.932345 69.1418C15.7477 69.1002 30.5713 69.1585 45.3866 69.2085C49.5463 69.2251 53.7058 69.2334 57.8736 69.2501C59.0751 69.2501 59.0751 67.3773 57.8736 67.3773Z" fill="#3D3C3C"/>
<path d="M5.47312 45.8346C5.03396 44.5111 5.82941 43.3874 7.15517 43.1793C8.82066 42.9129 10.569 42.9213 12.2511 42.888C15.5903 42.8214 18.9296 42.9462 22.2689 43.0627C29.0882 43.2958 35.9241 43.2875 42.7435 43.3125C44.7156 43.3208 46.6876 43.3208 48.6596 43.3208C49.8528 43.3208 53.333 42.9712 52.6618 45.1687C52.3055 46.3257 54.1118 46.8168 54.4598 45.6681C54.8907 44.2531 54.2361 42.7214 52.9601 41.989C51.4272 41.115 49.3226 41.4479 47.6405 41.4479C43.4975 41.4479 39.3462 41.423 35.2032 41.398C31.0271 41.3647 26.851 41.3481 22.6748 41.2066C18.6065 41.065 14.5297 40.9069 10.4613 41.0734C8.72123 41.1483 6.40115 40.9652 4.94282 42.0972C3.67506 43.0794 3.16962 44.8108 3.67506 46.334C4.05622 47.4661 5.86256 46.9833 5.47312 45.8346Z" fill="#3D3C3C"/>
<path d="M54.7001 24.3262C50.6069 27.148 44.1024 27.4394 40.7383 23.2608C37.9957 19.8564 38.4265 14.6456 38.6254 10.5587C38.6916 9.23519 38.8159 7.84511 39.4208 6.64648C40.1417 5.22311 41.4675 4.2409 42.8264 3.48343C45.105 2.21821 47.8062 1.61057 50.3998 1.91022C55.1393 2.45128 59.1414 5.82243 59.7795 10.6586C60.401 15.503 58.7603 21.3547 54.7001 24.3262C53.739 25.0255 54.667 26.657 55.6447 25.9411C59.9866 22.7698 62.0084 17.0429 61.7349 11.774C61.6024 9.16028 60.8898 6.67978 59.2161 4.6238C57.5174 2.53452 55.0648 1.08617 52.4878 0.411945C47.077 -1.00311 38.9402 1.21935 37.2251 7.20418C36.4462 9.90941 36.5953 13.1141 36.7113 15.9109C36.819 18.4497 37.2085 21.0883 38.5176 23.3024C42.006 29.1958 50.4246 29.5453 55.6531 25.9411C56.6225 25.2668 55.6862 23.6437 54.7001 24.3262Z" fill="#3D3C3C"/>
<path d="M45.4777 22.8531C45.9831 22.9779 46.5217 23.0279 47.0437 22.9696C47.342 22.9363 47.6403 22.8947 47.9303 22.8115C48.2369 22.7282 48.5269 22.6034 48.8087 22.4785C49.0075 22.3952 49.1815 22.1206 49.2396 21.9208C49.2975 21.6961 49.2727 21.3964 49.1484 21.1966C49.0241 20.9969 48.8252 20.822 48.5932 20.7638C48.5104 20.7555 48.4275 20.7388 48.3447 20.7305C48.179 20.7305 48.0215 20.7721 47.8724 20.8553C47.8392 20.872 47.806 20.8803 47.7812 20.8969C47.8558 20.8637 47.9303 20.8304 48.005 20.8055C47.6569 20.9469 47.2923 21.0552 46.9194 21.1051C47.0023 21.0968 47.0852 21.0801 47.168 21.0717C46.8283 21.1217 46.4886 21.1217 46.1405 21.0801C46.2234 21.0884 46.3062 21.1051 46.3892 21.1134C46.2483 21.0968 46.1157 21.0717 45.9748 21.0385C45.7346 20.9802 45.4694 21.0052 45.254 21.13C45.0634 21.2466 44.8728 21.463 44.8231 21.6877C44.7154 22.1788 44.964 22.7282 45.4777 22.8531Z" fill="#3D3C3C"/>
<path d="M45.2374 5.56406C45.2541 5.88869 45.3038 6.22164 45.4281 6.5213C45.5026 6.71275 45.5773 6.89588 45.6849 7.07068C45.7844 7.23715 45.9087 7.3953 46.0247 7.54513C46.4224 8.05289 47.019 8.42746 47.6321 8.59393C47.8642 8.66052 48.1458 8.61891 48.353 8.50238C48.5436 8.38584 48.7341 8.16942 48.7839 7.94467C48.8999 7.44524 48.6348 6.93749 48.1293 6.79599C48.0382 6.77102 47.9553 6.73773 47.8725 6.70442C47.947 6.73773 48.0216 6.77102 48.0961 6.79599C47.9056 6.71275 47.7399 6.61287 47.5742 6.48801C47.6404 6.53795 47.6985 6.58789 47.7647 6.63784C47.599 6.50465 47.4499 6.35482 47.3173 6.18835C47.367 6.25494 47.4167 6.31321 47.4664 6.37979C47.3421 6.21332 47.2427 6.03852 47.1598 5.8554C47.193 5.93032 47.2261 6.00523 47.251 6.08014C47.1681 5.88869 47.1184 5.69725 47.0853 5.49748C47.0936 5.58071 47.1102 5.66394 47.1184 5.74719C47.1102 5.68891 47.1019 5.62233 47.1019 5.56406C47.0853 5.31435 47.0107 5.08128 46.8284 4.89815C46.6627 4.73168 46.3975 4.61514 46.1655 4.62347C45.9252 4.6318 45.6766 4.71503 45.5026 4.89815C45.3535 5.07296 45.2292 5.31435 45.2374 5.56406Z" fill="#3D3C3C"/>
<path d="M48.1956 5.48044C48.4607 6.07976 48.9331 6.57086 49.4716 6.93711C50.0185 7.30336 50.6814 7.49481 51.3277 7.51146C51.8165 7.51978 52.2805 7.07029 52.2557 6.57918C52.2309 6.06311 51.8498 5.65524 51.3277 5.64692C51.2366 5.64692 51.1454 5.63859 51.0542 5.63027C51.1371 5.63859 51.22 5.65524 51.3028 5.66356C51.0792 5.63027 50.8554 5.57201 50.6483 5.48876C50.7228 5.52206 50.7974 5.55536 50.8719 5.58033C50.6483 5.48876 50.4493 5.36391 50.2588 5.2224C50.3251 5.27235 50.3831 5.32229 50.4493 5.37223C50.2671 5.23072 50.1096 5.07257 49.9688 4.88945C50.0186 4.95605 50.0682 5.01431 50.1179 5.0809C49.9936 4.91443 49.886 4.73962 49.8113 4.5565C49.7202 4.35672 49.4551 4.18192 49.2562 4.12366C49.0325 4.0654 48.7342 4.09037 48.5353 4.21522C48.3365 4.34008 48.1624 4.53985 48.1044 4.77291C48.0962 4.85616 48.0796 4.9394 48.0713 5.02263C48.0713 5.17246 48.1127 5.33061 48.1956 5.48044Z" fill="#3D3C3C"/>
<path d="M42.238 15.5943C42.2297 15.5777 42.2214 15.5694 42.2131 15.5527C42.2463 15.6276 42.2794 15.7026 42.3043 15.7774C42.2959 15.7608 42.2959 15.7442 42.2877 15.7275C42.2959 15.8107 42.3126 15.894 42.3209 15.9772C42.3209 15.9606 42.3209 15.9439 42.3209 15.919C42.3126 16.0022 42.2959 16.0854 42.2877 16.1687C42.2877 16.1436 42.2959 16.1187 42.3126 16.0938C42.2794 16.1687 42.2463 16.2436 42.2214 16.3185C42.2297 16.2935 42.2463 16.2686 42.2628 16.2519C42.2131 16.3185 42.1635 16.3768 42.1137 16.4433C42.1302 16.4267 42.1468 16.41 42.1635 16.3934C42.0971 16.4433 42.0391 16.4933 41.9728 16.5432C41.9894 16.5266 42.006 16.5183 42.0309 16.5099C41.9562 16.5432 41.8817 16.5765 41.8071 16.6015C41.8236 16.5932 41.8402 16.5932 41.8569 16.5848C41.774 16.5932 41.6911 16.6099 41.6083 16.6181C41.6248 16.6181 41.6414 16.6181 41.6662 16.6181C41.5834 16.6099 41.5005 16.5932 41.4177 16.5848C41.426 16.5848 41.4343 16.5848 41.4343 16.5932C41.3596 16.5599 41.2851 16.5265 41.2105 16.5016C41.2271 16.51 41.2437 16.5183 41.2603 16.5266C41.1939 16.4767 41.136 16.4267 41.0696 16.3768C41.0863 16.3934 41.1028 16.4017 41.1111 16.4184C41.0613 16.3518 41.0116 16.2935 40.962 16.227C40.9702 16.2436 40.9785 16.2603 40.9868 16.2768C40.9537 16.202 40.9205 16.1271 40.8956 16.0522C40.9039 16.0771 40.9122 16.0938 40.9122 16.1187C40.9039 16.0355 40.8873 15.9523 40.8791 15.869C40.8791 15.9023 40.8791 15.9356 40.8791 15.9689C40.8873 15.8856 40.9039 15.8024 40.9122 15.7191C40.9039 15.7525 40.8956 15.7941 40.8791 15.8274C40.9122 15.7525 40.9454 15.6775 40.9703 15.6026C40.9537 15.6359 40.9371 15.6609 40.9205 15.6859C40.9703 15.6193 41.0199 15.561 41.0696 15.4945C41.0531 15.5194 41.0365 15.5361 41.0117 15.5527C41.0779 15.5027 41.136 15.4529 41.2022 15.4029C41.1856 15.4195 41.1691 15.4278 41.1442 15.4362C41.2188 15.4029 41.2934 15.3696 41.3679 15.3446C41.3514 15.3529 41.3348 15.3529 41.31 15.3613C41.3929 15.3529 41.4757 15.3363 41.5586 15.328C41.542 15.328 41.5253 15.328 41.5088 15.328C41.5917 15.3363 41.6745 15.3529 41.7574 15.3613C41.7491 15.3613 41.7326 15.3529 41.7243 15.3529C41.9397 15.5694 42.1552 15.7858 42.3788 16.0106C42.3706 15.9772 42.3623 15.9439 42.3623 15.9106C42.3706 15.9939 42.3871 16.0771 42.3954 16.1603C42.3871 16.0688 42.3871 15.9772 42.3954 15.8939C42.3871 15.9772 42.3706 16.0604 42.3623 16.1436C42.3788 16.0522 42.3954 15.9689 42.4285 15.8856C42.3954 15.9606 42.3623 16.0355 42.3374 16.1104C42.3706 16.0271 42.4202 15.9523 42.47 15.8774C42.4202 15.9439 42.3706 16.0022 42.3209 16.0688C42.3457 16.0355 42.3706 16.0106 42.4037 15.9772C42.18 16.0688 41.9645 16.1603 41.7408 16.2519C41.7657 16.2519 41.7988 16.2519 41.8236 16.2519C41.7408 16.2436 41.6579 16.227 41.5751 16.2186C41.6165 16.227 41.6579 16.2352 41.6911 16.2519C41.6165 16.2186 41.542 16.1853 41.4674 16.1603C41.5088 16.177 41.5503 16.2019 41.5834 16.2352C41.5171 16.1853 41.4591 16.1354 41.3929 16.0854C41.426 16.1187 41.4591 16.1436 41.4922 16.1853C41.4425 16.1187 41.3929 16.0604 41.3431 15.9939C41.3679 16.0271 41.3845 16.0604 41.4094 16.102C41.3762 16.0271 41.3431 15.9523 41.3182 15.8774C41.3348 15.919 41.3431 15.9523 41.3513 15.9939C41.3431 15.9106 41.3265 15.8274 41.3182 15.7442C41.3265 15.7774 41.3265 15.8191 41.3182 15.8523C41.3265 15.7691 41.3431 15.6859 41.3513 15.6026C41.3431 15.6526 41.3348 15.6942 41.3182 15.7358C41.3514 15.6609 41.3845 15.586 41.4094 15.5111C41.3929 15.5527 41.3679 15.5859 41.3431 15.6193C41.3929 15.5527 41.4425 15.4945 41.4922 15.4278C41.4674 15.4611 41.4343 15.4945 41.3929 15.5277C41.4591 15.4778 41.5171 15.4278 41.5834 15.3779C41.5503 15.4029 41.5088 15.4278 41.4674 15.4445C41.542 15.4112 41.6165 15.3779 41.6911 15.3529C41.6579 15.3696 41.6248 15.3779 41.5834 15.3862C41.6662 15.3779 41.7491 15.3613 41.8319 15.3529C41.8236 15.3529 41.8154 15.3529 41.8071 15.3529C41.89 15.3613 41.9728 15.3779 42.0557 15.3862C42.0309 15.3779 42.006 15.3779 41.9894 15.3696C42.064 15.4029 42.1385 15.4362 42.2131 15.4611C42.1883 15.4529 42.1634 15.4362 42.1469 15.4195C42.2131 15.4694 42.2711 15.5194 42.3374 15.5694C42.3209 15.5527 42.296 15.5361 42.2794 15.5111C42.3292 15.5777 42.3788 15.6359 42.4285 15.7026C42.4037 15.6775 42.3871 15.6443 42.3788 15.611C42.412 15.6859 42.4451 15.7608 42.47 15.8357C42.4534 15.7941 42.4451 15.7525 42.4368 15.7109C42.4451 15.7941 42.4617 15.8774 42.47 15.9606C42.4617 15.9106 42.4617 15.8607 42.47 15.8107C42.4617 15.8939 42.4451 15.9772 42.4368 16.0604C42.4451 16.0188 42.4534 15.9772 42.47 15.9356C42.4368 16.0106 42.4037 16.0854 42.3788 16.1603C42.3954 16.1271 42.412 16.0938 42.4285 16.0688C42.3788 16.1354 42.3292 16.1936 42.2794 16.2603C42.296 16.2352 42.3126 16.2186 42.3374 16.202C42.2711 16.2519 42.2131 16.3019 42.1469 16.3518C42.1634 16.3351 42.1883 16.3268 42.2131 16.3102C42.1385 16.3435 42.064 16.3768 41.9894 16.4017C42.0143 16.3934 42.0391 16.3851 42.064 16.3768C41.9811 16.3851 41.8983 16.4017 41.8154 16.41H41.8236C41.5586 16.2519 41.2851 16.102 41.0199 15.9439C41.0531 15.9939 41.078 16.0438 41.1028 16.102C41.0696 16.0271 41.0365 15.9523 41.0117 15.8774C41.0448 15.9606 41.0696 16.0522 41.0863 16.1436C41.078 16.0604 41.0613 15.9772 41.053 15.8939C41.0613 15.9772 41.0613 16.0688 41.053 16.152C41.0613 16.0688 41.078 15.9855 41.0863 15.9023C41.0863 15.919 41.0779 15.9356 41.0779 15.9523C41.1608 15.8107 41.2354 15.6775 41.3182 15.5361C41.31 15.5443 41.2934 15.561 41.2851 15.5694C41.3514 15.5194 41.4094 15.4694 41.4757 15.4195C41.4591 15.4362 41.4343 15.4445 41.4177 15.4529C41.4922 15.4195 41.5668 15.3862 41.6414 15.3613C41.6083 15.3696 41.5834 15.3779 41.5503 15.3862C41.6331 15.3779 41.716 15.3613 41.7988 15.3529C41.7657 15.3529 41.7326 15.3529 41.7077 15.3529C41.7905 15.3613 41.8734 15.3779 41.9562 15.3862C41.9231 15.3779 41.8983 15.3696 41.8652 15.3613C41.9397 15.3946 42.0143 15.4278 42.0888 15.4529C42.064 15.4445 42.0391 15.4278 42.0143 15.4112C42.0805 15.4611 42.1385 15.5111 42.2048 15.561C42.1883 15.5443 42.1717 15.5277 42.1552 15.5111C42.2048 15.5777 42.2545 15.6359 42.3043 15.7026C42.2877 15.6859 42.2794 15.6609 42.2711 15.6443C42.3043 15.7191 42.3374 15.7941 42.3623 15.869C42.354 15.844 42.3457 15.8191 42.3374 15.7858C42.3457 15.869 42.3623 15.9523 42.3706 16.0355C42.3706 16.0106 42.3706 15.9772 42.3706 15.9523C42.3623 16.0355 42.3457 16.1187 42.3374 16.202C42.3457 16.1687 42.354 16.1436 42.3623 16.1104C42.3292 16.1854 42.2959 16.2603 42.2711 16.3351C42.2877 16.3019 42.296 16.2768 42.3209 16.2519C42.2711 16.3185 42.2214 16.3768 42.1717 16.4433C42.1883 16.4184 42.2049 16.4017 42.2297 16.3851C42.1635 16.4351 42.1054 16.4849 42.0391 16.5349C42.0557 16.5183 42.0805 16.51 42.0971 16.5016C42.0226 16.5349 41.948 16.5683 41.8734 16.5932C41.89 16.5848 41.9066 16.5848 41.9148 16.5765C42.0391 16.5516 42.1385 16.4933 42.2297 16.41C42.3292 16.3435 42.412 16.2603 42.47 16.1436C42.5363 16.0355 42.5777 15.919 42.5777 15.7941C42.6026 15.6693 42.6025 15.5443 42.5611 15.4195C42.4866 15.1948 42.3457 14.9784 42.1302 14.8618C41.9065 14.7453 41.6579 14.7037 41.4094 14.7703C41.3929 14.7786 41.3762 14.7786 41.3679 14.7869C41.2851 14.8202 41.1939 14.8535 41.1111 14.8952C41.0199 14.9534 40.9288 15.02 40.8625 15.0949C40.7963 15.1614 40.7465 15.2364 40.6968 15.3113C40.6885 15.3279 40.6802 15.3363 40.672 15.3529C40.6637 15.3696 40.6554 15.3779 40.6471 15.3946C40.6056 15.4778 40.5642 15.5694 40.5394 15.6609C40.5394 15.6775 40.5311 15.6859 40.5311 15.7026C40.5145 15.7941 40.498 15.8939 40.4897 15.9855C40.4897 16.0022 40.4897 16.0188 40.4897 16.0355C40.498 16.1187 40.5145 16.2186 40.5228 16.2935C40.5228 16.3019 40.5228 16.3102 40.5311 16.3185C40.5725 16.51 40.7051 16.743 40.8542 16.8762C41.0117 17.026 41.1939 17.1425 41.4094 17.1925C41.6414 17.2508 41.8402 17.2508 42.0723 17.1925C42.2794 17.1425 42.4783 17.0177 42.6275 16.8762C42.6689 16.8345 42.7517 16.7264 42.7849 16.6764C42.8511 16.5765 42.8677 16.5266 42.8843 16.4351C42.9008 16.3351 42.9175 16.2352 42.9258 16.1354C42.934 16.0854 42.934 16.0438 42.934 15.9939C42.934 15.869 42.9092 15.7358 42.8925 15.611C42.8843 15.561 42.876 15.5111 42.8594 15.4694C42.8263 15.3529 42.7683 15.2364 42.7185 15.1198C42.6937 15.07 42.6689 15.0283 42.644 14.9866C42.5611 14.8452 42.4534 14.7369 42.3126 14.6537C42.1634 14.5705 42.0143 14.5289 41.8402 14.5289C41.6083 14.5539 41.4508 14.5705 41.2437 14.6953C41.2354 14.7037 41.2271 14.7037 41.2188 14.712C41.1525 14.762 41.0696 14.8202 41.0117 14.8785C40.962 14.9201 40.9288 14.9784 40.8956 15.02C40.8625 15.07 40.8128 15.1116 40.788 15.1698C40.7382 15.2614 40.6968 15.3613 40.6637 15.4529C40.6554 15.4778 40.6471 15.4945 40.6471 15.5194C40.6222 15.6193 40.6139 15.7275 40.6056 15.8357C40.6056 15.8607 40.6056 15.8856 40.6056 15.9106C40.6139 16.0188 40.6305 16.1187 40.6471 16.227C40.6554 16.2519 40.6554 16.2768 40.6637 16.2935C40.6968 16.3934 40.7382 16.4849 40.788 16.5765C40.8459 16.6848 40.9205 16.7846 41.0199 16.8679C41.0863 16.9261 41.1691 17.001 41.252 17.0426C41.2934 17.0676 41.3514 17.0842 41.3929 17.1009C41.4343 17.1176 41.4922 17.1425 41.542 17.1592C41.5503 17.1592 41.5668 17.1676 41.5751 17.1676C41.6497 17.1842 41.7574 17.2008 41.8402 17.2008H41.8486C41.9314 17.1925 42.0143 17.1758 42.1054 17.1676C42.1385 17.1592 42.18 17.1509 42.2131 17.1342C42.4368 17.051 42.6109 16.9594 42.7932 16.7846C42.8677 16.7097 42.934 16.6099 43.0003 16.5266C43.0417 16.46 43.0749 16.3934 43.0997 16.3185C43.1246 16.2519 43.166 16.1854 43.1743 16.1104C43.1991 15.9939 43.2241 15.8774 43.2158 15.7608C43.2074 15.5111 43.1494 15.3197 43.0417 15.1032C42.992 15.0033 42.9091 14.9117 42.8429 14.8285C42.818 14.7952 42.7932 14.7703 42.76 14.7453C42.6771 14.6787 42.5942 14.6037 42.4949 14.5455C42.4783 14.5372 42.4617 14.5289 42.4451 14.5205C42.3623 14.4789 42.2711 14.4373 42.18 14.404C42.0723 14.3707 41.9397 14.3624 41.8402 14.3457C41.8237 14.3457 41.8071 14.3457 41.7905 14.3457C41.7822 14.3457 41.774 14.3457 41.7657 14.3457C41.5253 14.354 41.2768 14.4456 41.1028 14.6204C40.8708 14.8535 40.6968 15.1532 40.6139 15.4694C40.6056 15.5111 40.589 15.5527 40.589 15.6026C40.5725 15.7275 40.5476 15.8523 40.5476 15.9772C40.5476 16.0188 40.5476 16.0688 40.5559 16.1104C40.5725 16.2352 40.5808 16.3601 40.6139 16.4849C40.6885 16.8013 40.962 17.0593 41.2686 17.1425C41.3679 17.1676 41.4757 17.1842 41.5834 17.1842C41.5917 17.1842 41.5917 17.1842 41.6 17.1842C41.6662 17.1842 41.7905 17.1592 41.8569 17.1509C41.8734 17.1509 41.8817 17.1425 41.89 17.1425C41.9811 17.1093 42.0805 17.076 42.1635 17.026C42.2049 17.001 42.2463 16.9594 42.2794 16.9345C42.3209 16.9095 42.3623 16.8762 42.3954 16.8345C42.4866 16.743 42.5694 16.6431 42.6192 16.5266C42.7268 16.2935 42.76 16.1854 42.7766 15.9273C42.7849 15.8024 42.7683 15.6609 42.7268 15.5443C42.702 15.4694 42.6606 15.3696 42.6275 15.303C42.6192 15.2946 42.6192 15.2863 42.6109 15.2697C42.5611 15.1865 42.4949 15.0949 42.4202 15.0283C42.3457 14.9617 42.2711 14.8952 42.18 14.8452C42.1468 14.8285 41.9811 14.762 41.9562 14.7453C41.9148 14.7287 41.8569 14.7287 41.8154 14.7287C41.7574 14.7203 41.6994 14.7037 41.6496 14.712C41.5751 14.712 41.4591 14.7369 41.3929 14.7453C41.3845 14.7453 41.3762 14.7453 41.3679 14.7536C41.3596 14.7536 41.3514 14.762 41.3431 14.762C41.2768 14.7869 41.1774 14.8285 41.1111 14.8618C41.0117 14.9117 40.9288 14.9866 40.8459 15.0533C40.6968 15.1865 40.5559 15.4278 40.5145 15.6193C40.4647 15.8523 40.4731 15.9689 40.5145 16.1936C40.5145 16.2103 40.5228 16.227 40.5311 16.2436C40.5559 16.3102 40.5973 16.4184 40.6305 16.4767C40.6388 16.4849 40.6388 16.4933 40.6471 16.5099C40.7051 16.6181 40.788 16.7097 40.8873 16.7763C40.9785 16.8596 41.0863 16.9178 41.2022 16.9428C41.3265 16.9844 41.4508 16.9844 41.5751 16.9594C41.6994 16.9511 41.8154 16.9178 41.9231 16.8512C42.1219 16.7264 42.2959 16.5265 42.354 16.2935C42.3623 16.2103 42.3788 16.1271 42.3871 16.0438C42.3623 15.894 42.3209 15.7358 42.238 15.5943Z" fill="#3D3C3C"/>
<path d="M51.6756 15.5522C51.6839 15.5689 51.6839 15.5938 51.6839 15.6105C51.6756 15.5272 51.6591 15.444 51.6508 15.3608C51.6591 15.394 51.6591 15.4273 51.6508 15.4606C51.6591 15.3774 51.6756 15.2941 51.6839 15.2109C51.6839 15.2359 51.6756 15.2609 51.6591 15.2941C51.6922 15.2192 51.7253 15.1443 51.7501 15.0695C51.7419 15.0944 51.7253 15.1111 51.717 15.1277C51.7667 15.0611 51.8165 15.0028 51.8662 14.9363C51.8496 14.9612 51.8331 14.9779 51.8082 14.9945C51.8745 14.9445 51.9324 14.8947 51.9988 14.8447C51.9739 14.8613 51.9491 14.878 51.9241 14.8863C51.9988 14.853 52.0733 14.8197 52.1479 14.7947C52.1065 14.8114 52.0733 14.8197 52.0319 14.828C52.1148 14.8197 52.1976 14.8031 52.2805 14.7947C52.2307 14.8031 52.1893 14.8031 52.1396 14.7947C52.2224 14.8031 52.3053 14.8197 52.3881 14.828C52.355 14.8197 52.3302 14.8197 52.3053 14.8114C52.1396 14.7697 51.9739 14.7697 51.8082 14.8114C51.6508 14.853 51.5099 14.9363 51.3939 15.0528C51.4601 15.0028 51.5182 14.9529 51.5844 14.9029C51.6591 14.8696 51.7336 14.8363 51.8082 14.8114C51.9739 14.8114 52.1396 14.8114 52.3053 14.8114C52.4876 14.9529 52.6782 15.0944 52.8605 15.2442C52.8937 15.3192 52.9268 15.394 52.9516 15.4689C52.9599 15.5522 52.9765 15.6354 52.9847 15.7186C52.9765 15.8019 52.9599 15.8851 52.9516 15.9683C52.9599 15.9101 52.993 15.8435 53.0097 15.7936C53.0262 15.7437 53.0428 15.6937 53.0594 15.6437C53.1008 15.5189 53.1008 15.394 53.0759 15.2692C53.0677 15.1443 53.0345 15.0278 52.9682 14.9196C52.9185 14.853 52.8688 14.7947 52.819 14.7281C52.7362 14.6366 52.6368 14.57 52.5207 14.5367C52.4462 14.4951 52.3716 14.4701 52.2888 14.4701C52.1645 14.4451 52.0402 14.4451 51.9158 14.4867C51.8413 14.52 51.7667 14.5534 51.6922 14.5783C51.5513 14.6615 51.4436 14.7698 51.3608 14.9112V14.9196C51.3192 14.9945 51.2944 15.0777 51.2613 15.1527C51.253 15.1693 51.253 15.1776 51.2447 15.1943C51.2282 15.2359 51.2116 15.2775 51.2033 15.3108C51.1868 15.3524 51.1785 15.3857 51.1618 15.4273C51.1535 15.444 51.1453 15.4689 51.1453 15.4856C51.7584 15.5689 52.3633 15.6521 52.9765 15.7353C52.9682 15.6854 52.9682 15.6437 52.9765 15.5938C52.9682 15.677 52.9516 15.7603 52.9433 15.8435C52.9516 15.7853 52.9682 15.727 52.993 15.6687C52.9599 15.7437 52.9268 15.8186 52.9019 15.8934C52.9185 15.8435 52.9433 15.8019 52.9765 15.7603C52.9268 15.8269 52.8771 15.8851 52.8273 15.9517C52.8522 15.9267 52.8771 15.9018 52.9019 15.8769C52.8356 15.9267 52.7776 15.9767 52.7114 16.0266C52.7362 16.01 52.7528 15.9934 52.7776 15.985C52.7031 16.0183 52.6285 16.0517 52.554 16.0766C52.5788 16.0683 52.6036 16.0599 52.6202 16.0599C52.5373 16.0683 52.4545 16.0849 52.3716 16.0933C52.3882 16.0933 52.4131 16.0933 52.4297 16.0933C52.3467 16.0849 52.2639 16.0683 52.181 16.0599C52.2059 16.0599 52.2391 16.0683 52.2639 16.0849C52.1893 16.0517 52.1148 16.0183 52.0402 15.9934C52.0733 16.01 52.1065 16.0266 52.1313 16.0517C52.065 16.0017 52.007 15.9517 51.9408 15.9018C51.9739 15.9268 52.007 15.9517 52.0319 15.985C51.9822 15.9185 51.9325 15.8602 51.8827 15.7936C51.8993 15.8186 51.9159 15.8435 51.9324 15.8769C51.8993 15.8019 51.8662 15.727 51.8413 15.6521C51.8579 15.6854 51.8662 15.7186 51.8745 15.752C51.8662 15.6688 51.8496 15.5854 51.8413 15.5022C51.8496 15.5356 51.8496 15.5689 51.8413 15.6105C51.8496 15.5272 51.8662 15.444 51.8745 15.3608C51.8662 15.3857 51.8662 15.419 51.8496 15.444C51.8827 15.3691 51.9158 15.2941 51.9408 15.2192C51.9241 15.2525 51.9076 15.2858 51.8827 15.3108C51.9325 15.2442 51.9822 15.186 52.0319 15.1193C52.007 15.1443 51.9905 15.1693 51.9574 15.1943C52.0236 15.1443 52.0816 15.0944 52.1479 15.0444C52.1313 15.0611 52.1065 15.0694 52.0899 15.0777C52.1645 15.0444 52.239 15.0112 52.3136 14.9861C52.2971 14.9945 52.2805 14.9945 52.2557 15.0028C52.3385 14.9945 52.4214 14.9779 52.5042 14.9695C52.4876 14.9695 52.4711 14.9695 52.4545 14.9695C52.5373 14.9779 52.6202 14.9945 52.7031 15.0028C52.6864 15.0028 52.6616 14.9945 52.645 14.9861C52.7197 15.0195 52.7942 15.0528 52.8688 15.0777C52.8439 15.0694 52.8273 15.0528 52.8025 15.0361C52.8688 15.086 52.9268 15.136 52.993 15.186C52.9682 15.1609 52.9433 15.136 52.9185 15.1111C52.9682 15.1776 53.018 15.2359 53.0676 15.3025C53.0345 15.2609 53.0097 15.2192 52.993 15.1693C53.0262 15.2442 53.0594 15.3192 53.0842 15.394C53.0676 15.3441 53.0511 15.2941 53.0428 15.2442C53.0511 15.3274 53.0677 15.4107 53.0759 15.494C53.0677 15.444 53.0677 15.4024 53.0759 15.3524C53.0677 15.4357 53.0511 15.5189 53.0428 15.6021C53.0511 15.5689 53.0594 15.5356 53.0676 15.494C52.8522 15.7104 52.6368 15.9267 52.4131 16.1515C52.4379 16.1431 52.4628 16.1431 52.4876 16.1349C52.4048 16.1431 52.3219 16.1598 52.239 16.1682C52.2888 16.1598 52.3302 16.1598 52.3799 16.1682C52.2971 16.1598 52.2142 16.1431 52.1313 16.1349C52.181 16.1431 52.2307 16.1598 52.2805 16.1765C52.2059 16.1431 52.1314 16.1099 52.0567 16.0849C52.0733 16.0933 52.0899 16.1015 52.0982 16.1099C52.2059 16.1765 52.3219 16.2181 52.4462 16.2181C52.5705 16.2431 52.6948 16.2431 52.819 16.2014C52.9433 16.1765 53.0428 16.1182 53.1339 16.035C53.2334 15.9683 53.3163 15.8851 53.3742 15.7686C53.4074 15.6937 53.4405 15.6188 53.4654 15.5438C53.5068 15.3774 53.5068 15.2109 53.4654 15.0444C53.4322 14.9695 53.3991 14.8947 53.3742 14.8197C53.2913 14.6782 53.1837 14.57 53.0428 14.4867C52.9351 14.4368 52.8273 14.3868 52.7197 14.3535C52.6036 14.3203 52.4711 14.3119 52.3633 14.2953C52.3219 14.2953 52.2888 14.2953 52.2474 14.2953C52.1479 14.3036 52.0484 14.3203 51.9491 14.337C51.9408 14.337 51.9325 14.337 51.9241 14.3452C51.8413 14.3619 51.7667 14.3952 51.6922 14.4451C51.5844 14.5034 51.4933 14.5867 51.427 14.6865C51.4022 14.7198 51.3773 14.7531 51.3525 14.778C51.3193 14.853 51.2861 14.9279 51.253 15.0112C51.253 15.0195 51.253 15.0195 51.2447 15.0277C51.2364 15.0361 51.2364 15.0528 51.2364 15.0611C51.2116 15.1693 51.195 15.2775 51.195 15.3857C51.195 15.4107 51.195 15.4357 51.195 15.4524C51.2033 15.5605 51.2199 15.6688 51.2364 15.7769C51.2613 15.9018 51.3276 16.0266 51.3773 16.1431C51.427 16.2514 51.5265 16.3596 51.601 16.4511C51.6176 16.4678 51.6342 16.4844 51.6508 16.5011C51.7253 16.5677 51.7999 16.6343 51.891 16.6843C52.0816 16.7924 52.2474 16.834 52.4628 16.8424C52.6616 16.8507 52.8771 16.7841 53.0428 16.6843C53.2499 16.5677 53.3494 16.4346 53.4903 16.2514C53.5068 16.2264 53.5234 16.2014 53.5399 16.1682C53.5813 16.0766 53.6394 15.9601 53.656 15.8518C53.6725 15.7603 53.6891 15.6604 53.6891 15.5689C53.6891 15.5522 53.6891 15.5438 53.6891 15.5272C53.6891 15.5189 53.6891 15.5106 53.6891 15.5022C53.6808 15.419 53.6725 15.3274 53.656 15.2442C53.656 15.2276 53.6477 15.2026 53.6394 15.186C53.5648 14.9695 53.4737 14.7864 53.308 14.6199C53.2334 14.545 53.1256 14.4701 53.0511 14.4118C53.0263 14.3952 53.0013 14.3786 52.9765 14.3619C52.7776 14.2703 52.6036 14.1954 52.3799 14.2038C52.3716 14.2038 52.3633 14.2038 52.3633 14.2038C52.2888 14.2121 52.181 14.2287 52.1065 14.237C52.0982 14.237 52.0816 14.237 52.0733 14.2454C52.065 14.2454 52.0484 14.2537 52.0402 14.2537C51.9739 14.2787 51.8745 14.3203 51.8082 14.3535C51.7999 14.3535 51.7999 14.3619 51.7916 14.3619C51.7005 14.4118 51.6175 14.4867 51.543 14.5534C51.5265 14.57 51.5099 14.5867 51.4933 14.6116C51.427 14.6948 51.3608 14.7698 51.3027 14.8613C51.2696 14.9196 51.2447 14.9861 51.2199 15.0444C51.1785 15.136 51.1453 15.2192 51.1287 15.3192C51.1121 15.4357 51.079 15.5938 51.0956 15.727C51.0873 15.8518 51.1204 15.9767 51.1785 16.0849C51.2199 16.2014 51.2779 16.3014 51.369 16.3846C51.4353 16.4346 51.4933 16.4844 51.5596 16.5344C51.6673 16.601 51.7834 16.6426 51.9076 16.6426C51.9905 16.6676 52.0733 16.6676 52.1562 16.6426C52.2805 16.6343 52.3965 16.601 52.5042 16.5344C52.5705 16.4844 52.6285 16.4346 52.6948 16.3846C52.8107 16.268 52.8937 16.1266 52.9351 15.9683C52.9351 15.9517 52.9433 15.9351 52.9516 15.9185C52.9682 15.8851 52.9765 15.8435 52.993 15.8102C53.018 15.7437 53.0345 15.6854 53.0676 15.6188C53.0345 15.6937 53.0013 15.7686 52.9765 15.8435V15.8352C52.4048 15.5938 51.8413 15.3524 51.2696 15.1111C51.2447 15.1776 51.2199 15.2525 51.195 15.3192C51.1868 15.3524 51.1702 15.394 51.1618 15.4273C51.1039 15.6688 51.1121 15.9434 51.253 16.1598C51.3027 16.2264 51.3525 16.2847 51.4022 16.3513C51.5182 16.4678 51.6591 16.5511 51.8165 16.5927C52.007 16.6426 52.0319 16.6343 52.1893 16.6094C52.3467 16.5843 52.3716 16.5927 52.5373 16.5011C52.6036 16.4595 52.6782 16.4179 52.728 16.3513C52.4297 16.4346 52.1231 16.5094 51.8248 16.5927C51.8413 16.601 51.8662 16.601 51.8827 16.6094C51.9822 16.626 52.0816 16.6426 52.1728 16.651C52.2059 16.651 52.2474 16.651 52.2805 16.651C52.3881 16.6426 52.5207 16.6343 52.6285 16.5927C52.7362 16.5594 52.8439 16.5178 52.9433 16.4595C53.0345 16.4012 53.1339 16.3346 53.2002 16.2514C53.3577 16.0683 53.3991 15.985 53.482 15.7603C53.4903 15.7437 53.4903 15.727 53.4985 15.7104C53.5151 15.6105 53.5317 15.5106 53.5399 15.4024C53.5399 15.3857 53.5399 15.3608 53.5399 15.3441C53.5317 15.2442 53.5151 15.1277 53.4903 15.0277C53.4654 14.9029 53.4074 14.8031 53.3246 14.7115C53.2582 14.6116 53.1754 14.5283 53.0594 14.4701C52.9516 14.4035 52.8356 14.3619 52.7114 14.3619C52.5871 14.337 52.4628 14.337 52.3385 14.3786C52.2639 14.4118 52.1893 14.4451 52.1148 14.4701C51.9739 14.5534 51.8662 14.6615 51.7833 14.8031C51.7501 14.878 51.717 14.9529 51.6922 15.0277C51.6342 15.2276 51.6342 15.3857 51.6756 15.5522Z" fill="#3D3C3C"/>
<path d="M62.9447 51.0049C59.9617 51.7624 58.0146 54.476 57.3434 57.381C56.954 59.079 56.9042 60.8271 56.9457 62.5584C56.9788 64.0317 56.9871 65.6049 57.6334 66.9617C59.0503 69.9499 63.2762 69.8917 66.0851 69.8085C69.7143 69.7002 73.2524 68.8012 76.5337 67.2364C76.1608 67.1865 75.7797 67.1365 75.4068 67.0865C76.9066 68.7513 79.3675 69.567 81.5468 68.8762C82.4417 68.5932 83.179 67.9439 83.1211 66.9117C83.0466 65.6798 81.8865 64.6144 81.1821 63.6988C80.3122 62.5667 79.4421 61.4347 78.5721 60.311C77.6938 59.1622 76.8734 57.9387 75.7135 57.0564C74.9014 56.432 73.9071 55.9826 72.8631 56.1823C71.5455 56.4237 71.0898 57.4475 70.1618 58.255C69.9712 58.4215 69.5155 58.8127 69.2917 58.5213C69.0018 58.1551 69.5818 58.0053 69.8055 57.8721C70.6672 57.3394 71.3219 56.5403 71.8687 55.6913C73.1282 53.7269 73.3933 51.3962 72.9459 49.1404C72.4736 46.7514 71.1229 44.6622 69.7558 42.6978C68.1566 40.4088 66.6899 38.1613 65.7205 35.5227C65.1736 34.0244 64.7676 32.4928 64.3699 30.9529C64.0385 29.6793 63.6324 28.4141 62.7873 27.3736C61.1467 25.3676 58.4869 24.7433 56.0674 24.2771C54.899 24.0524 54.3936 25.8586 55.5702 26.0834C57.4594 26.4497 59.6634 26.8326 61.0804 28.2642C61.9338 29.1299 62.2735 30.2953 62.5718 31.444C62.8784 32.6259 63.1767 33.808 63.5579 34.965C64.3036 37.2456 65.2896 39.4515 66.6237 41.4492C67.8583 43.3054 69.2669 45.0451 70.2613 47.0511C71.2224 48.9906 71.6781 51.2963 70.9407 53.3855C70.6258 54.2928 70.0458 55.2251 69.3498 55.8827C68.8277 56.3821 68.0737 56.5819 67.6595 57.2145C66.7397 58.6296 67.966 60.5607 69.5818 60.4858C70.3606 60.4524 71.0567 60.0113 71.587 59.462C72.4322 58.5963 73.0122 57.5309 74.3213 58.3465C75.4483 59.0374 76.2189 60.286 77.006 61.3181C77.9175 62.5002 78.829 63.6821 79.7404 64.8724C80.0222 65.2387 81.1987 66.3874 81.1821 66.8202C81.1739 67.1281 81.4639 66.737 81.0495 67.0699C80.8424 67.2364 80.3701 67.2197 80.105 67.2364C78.7958 67.303 77.5944 66.7287 76.7243 65.763C76.426 65.4385 75.962 65.4468 75.5974 65.6133C72.9624 66.8701 70.1038 67.6526 67.1955 67.869C65.7868 67.9773 64.3616 67.9606 62.953 67.819C61.6521 67.6858 60.0695 67.5444 59.3734 66.2625C58.8349 65.272 58.8514 64.0234 58.8266 62.9329C58.7852 61.3681 58.7686 59.7782 59.0668 58.2383C59.5475 55.8245 60.923 53.4355 63.4419 52.7945C64.6019 52.5116 64.1131 50.7053 62.9447 51.0049Z" fill="#3D3C3C"/>
<path d="M40.7879 25.1756C36.0152 26.4824 34.3331 31.8263 31.1099 35.0725C29.1875 37.0037 26.8426 38.4687 24.0668 38.6019C21.4235 38.7267 18.565 38.502 16.8829 40.9742C16.5763 41.432 16.858 42.2727 17.438 42.3476C20.247 42.7388 23.2133 43.488 26.0472 43.0384C27.5138 42.8054 28.9306 42.3642 30.4056 42.1811C31.7728 42.0146 33.0571 41.7066 34.3331 41.1739C36.2223 40.3749 37.6061 39.1679 39.1805 37.9193C39.8268 37.4032 40.5725 36.8123 41.3845 36.5875C42.2546 36.3462 42.6772 36.8372 43.0003 37.6364C43.4478 38.7351 45.2457 38.2606 44.7983 37.1369C44.0526 35.2973 42.6274 34.1486 40.6139 34.8811C38.8739 35.5137 37.5978 36.9204 36.1561 38.0275C35.0541 38.8683 33.7531 39.4925 32.4273 39.8921C30.9608 40.3332 29.4279 40.4082 27.9364 40.7411C26.2709 41.1073 24.7048 41.4486 22.9897 41.2488C21.2992 41.0491 19.6172 40.7827 17.9351 40.5496C18.1175 41.0075 18.3081 41.4653 18.4903 41.923C19.294 40.7494 20.8269 40.5579 22.1279 40.5163C23.437 40.4747 24.738 40.5163 26.0305 40.2334C28.4004 39.7089 30.4802 38.3022 32.2036 36.6291C33.836 35.0393 35.112 33.183 36.3797 31.2936C37.6309 29.4207 39.023 27.6145 41.285 26.9985C42.4451 26.6572 41.9563 24.8509 40.7879 25.1756Z" fill="#3D3C3C"/>
<path d="M58.3626 33.9147C57.2026 37.1444 54.667 39.9162 51.5515 41.3229C51.0958 41.531 50.9798 42.197 51.2201 42.6048C51.4935 43.0792 52.0321 43.1541 52.4961 42.9377C56.0508 41.3229 58.8432 38.0683 60.1606 34.4059C60.3346 33.9314 59.9701 33.382 59.5061 33.2572C58.9924 33.124 58.5366 33.4402 58.3626 33.9147Z" fill="#3D3C3C"/>
<path d="M50.5238 31.5179C48.7009 34.1899 46.1903 36.3874 43.2902 37.8107C39.9758 39.4339 36.3714 39.1925 32.8664 40.0415C31.6981 40.3246 32.1952 42.1308 33.3636 41.8478C35.3688 41.365 37.4237 41.315 39.4538 40.9821C41.2104 40.6991 42.9007 40.1082 44.4917 39.3008C47.5741 37.7275 50.1924 35.3219 52.1396 32.4668C52.819 31.4597 51.2033 30.5274 50.5238 31.5179Z" fill="#3D3C3C"/>
<path d="M61.4116 16.7107C61.4945 16.7357 61.4945 16.7439 61.4283 16.7107C61.3619 16.6774 61.3619 16.6857 61.4365 16.7274C61.5028 16.7773 61.5111 16.7773 61.4448 16.7357C61.3867 16.6857 61.3867 16.6941 61.4448 16.7523C61.4614 16.769 61.4779 16.7857 61.4862 16.8022C61.4116 16.6941 61.4033 16.6857 61.4614 16.769C61.4862 16.8189 61.5111 16.8771 61.5442 16.9188C61.6022 17.002 61.5028 16.7523 61.5442 16.9188C61.5607 16.9854 61.5857 17.0519 61.6022 17.1186C61.6105 17.1519 61.6188 17.1851 61.6271 17.2268C61.6354 17.2934 61.6354 17.2767 61.6188 17.1519C61.6188 17.1519 61.6354 17.3516 61.6354 17.3683C61.6354 17.4266 61.6354 17.4848 61.6354 17.5431C61.6354 17.568 61.6105 17.8177 61.6271 17.6763C61.6436 17.5347 61.6105 17.7428 61.6105 17.7761C61.594 17.8511 61.5774 17.926 61.5607 17.9925C61.5193 18.1424 61.4779 18.2756 61.42 18.417C61.4614 18.3005 61.4531 18.3421 61.4116 18.4337C61.3785 18.5003 61.3454 18.5669 61.3122 18.6335C61.2459 18.7583 61.1714 18.8749 61.0967 18.9831C61.0802 19.0081 60.9227 19.1995 61.0636 19.033C61.0222 19.083 60.9808 19.133 60.9393 19.1746C60.8482 19.2744 60.7488 19.3743 60.6493 19.4742C60.5913 19.5242 60.5334 19.5741 60.4836 19.624C60.3013 19.7822 60.641 19.5242 60.4339 19.6573C60.3179 19.7323 60.2102 19.8072 60.0859 19.8821C60.0196 19.9153 59.9533 19.9569 59.887 19.9903C59.7959 20.0319 59.7545 20.0485 59.8704 20.0069C59.5887 20.1152 59.2987 20.1984 59.0004 20.24C58.5199 20.3066 58.2049 20.9558 58.3458 21.3887C58.5198 21.9214 58.9755 22.1212 59.4893 22.0463C61.0056 21.8299 62.4142 20.7061 63.044 19.3078C63.4003 18.517 63.5743 17.6846 63.4417 16.8273C63.3009 15.9449 62.7705 15.1958 61.9171 14.9044C61.4531 14.7463 60.8813 15.0875 60.7736 15.562C60.641 16.0781 60.9227 16.5359 61.4116 16.7107Z" fill="#3D3C3C"/>
<path d="M37.2251 14.2625C36.1976 13.9795 35.2613 14.6537 34.8885 15.586C34.5736 16.3601 34.6399 17.359 34.7061 18.183C34.7807 19.132 35.0127 20.0226 35.6176 20.7634C36.1562 21.4126 37.0097 21.8622 37.8631 21.7873C38.3437 21.7457 38.816 21.3877 38.7911 20.8549C38.7663 20.3888 38.3769 19.8727 37.8631 19.9227C37.7968 19.931 37.7222 19.9227 37.6643 19.931C37.5565 19.9477 37.8383 19.981 37.6311 19.931C37.5814 19.9143 37.5317 19.906 37.4737 19.8894C37.3163 19.8478 37.5151 19.931 37.4405 19.8727C37.3825 19.8395 37.3246 19.8062 37.2665 19.7729C37.2002 19.7313 37.1837 19.7146 37.2582 19.7729C37.1588 19.6897 37.0759 19.6063 36.9931 19.5065C36.9268 19.4316 37.0511 19.6064 36.9599 19.4649C36.9268 19.4066 36.8854 19.3484 36.8523 19.2901C36.8273 19.2401 36.8025 19.1902 36.7776 19.1402C36.7528 19.0904 36.7528 19.0904 36.7776 19.1402C36.7694 19.107 36.7528 19.082 36.7445 19.0487C36.7031 18.9072 36.6616 18.7657 36.6285 18.6241C36.6119 18.5409 36.5954 18.466 36.5871 18.3828C36.6036 18.5076 36.5871 18.3328 36.5788 18.2912C36.529 17.7086 36.4959 17.0676 36.5705 16.4849C36.554 16.5848 36.5705 16.51 36.5788 16.4516C36.5954 16.3768 36.6119 16.3019 36.6368 16.2269C36.6699 16.1354 36.5871 16.2768 36.6699 16.1687C36.728 16.0938 36.728 16.1187 36.6699 16.1687C36.6782 16.1603 36.8439 16.0271 36.7528 16.0854C36.7114 16.1187 36.7114 16.1187 36.7528 16.0938C36.8108 16.0604 36.7942 16.0604 36.7031 16.102C36.7279 16.0938 36.7528 16.0854 36.7776 16.0771C36.7445 16.0771 36.7114 16.0854 36.6782 16.0854C36.7694 16.0854 36.7776 16.0854 36.7031 16.0771C36.6285 16.0604 36.6368 16.0688 36.728 16.0938C37.2003 16.2269 37.7637 15.9356 37.8714 15.4362C37.9874 14.9117 37.7305 14.3957 37.2251 14.2625Z" fill="#3D3C3C"/>
<path d="M42.2049 6.26263C42.1883 6.30425 42.1801 6.33755 42.1718 6.37916C42.1552 6.47905 42.1387 6.57061 42.1304 6.6705C42.1304 6.68714 42.1304 6.70379 42.1304 6.72876C42.1304 6.84529 42.1552 6.97848 42.1718 7.08669C42.1801 7.12831 42.1883 7.1616 42.1966 7.20322C42.2297 7.31143 42.2795 7.41964 42.3292 7.52785C42.3458 7.56115 42.3623 7.59444 42.3872 7.62773C42.4452 7.70265 42.5032 7.78588 42.5613 7.8608C42.5695 7.87745 42.5861 7.88577 42.5944 7.90242C42.6772 7.98566 42.7767 8.05225 42.8678 8.11883C42.9755 8.18543 43.0915 8.22706 43.2158 8.22706C43.3401 8.25203 43.4644 8.25202 43.5887 8.2104C43.713 8.18543 43.8124 8.12717 43.9035 8.04393C44.003 7.97734 44.0859 7.8941 44.1439 7.77756C44.177 7.70265 44.2101 7.62773 44.235 7.55282C44.2764 7.38635 44.2764 7.21987 44.235 7.05339C44.2018 6.97848 44.1687 6.90357 44.1439 6.82865C44.061 6.68714 43.9533 6.57893 43.8124 6.4957C43.8041 6.48737 43.8042 6.48737 43.7959 6.47905C43.8621 6.52899 43.9201 6.57894 43.9864 6.62888C43.945 6.59559 43.9118 6.56228 43.8787 6.52067C43.9284 6.58725 43.9781 6.64553 44.0278 6.71211C43.9947 6.66217 43.9616 6.61223 43.9367 6.56228C43.9699 6.6372 44.003 6.71211 44.0278 6.78703C44.003 6.72876 43.9864 6.66217 43.9781 6.59559C43.9864 6.67882 44.003 6.76205 44.0113 6.84529C44.003 6.78703 44.003 6.72876 44.0113 6.6705C44.003 6.75373 43.9864 6.83697 43.9781 6.92021C43.9864 6.87027 43.9947 6.82032 44.0195 6.77039C44.0609 6.64553 44.0609 6.52067 44.0361 6.39581C44.0278 6.27095 43.9947 6.15441 43.9284 6.04621C43.8704 5.938 43.7876 5.84643 43.6881 5.77985C43.5969 5.6966 43.4893 5.63834 43.3733 5.61337C43.2904 5.60505 43.2075 5.5884 43.1246 5.58008C42.9589 5.58008 42.8015 5.62169 42.6524 5.70494C42.5861 5.75488 42.528 5.80483 42.4618 5.85477C42.3292 5.96298 42.2547 6.09615 42.2049 6.26263Z" fill="#3D3C3C"/>
</g>
<defs>
<clipPath id="clip0_354_773">
<rect width="84" height="70" fill="white"/>
</clipPath>
</defs>
</svg>
