<svg width="47" height="70" viewBox="0 0 47 70" fill="none" xmlns="http://www.w3.org/2000/svg">
<g clip-path="url(#clip0_354_797)">
<path d="M2.57787 51.5666C13.4351 51.6095 24.2864 51.6648 35.1437 51.6709C38.237 51.6709 41.3244 51.6709 44.4178 51.6587C44.1863 51.4254 43.9611 51.1983 43.7358 50.9713C43.1694 56.305 42.597 61.6326 42.0307 66.9663C41.9516 67.7334 41.8663 68.5068 41.7872 69.2741C42.0186 69.0408 42.2439 68.8137 42.4692 68.5866C40.4658 68.5866 38.4563 68.5866 36.4529 68.5866C36.6721 68.7585 36.8913 68.9242 37.1105 69.096C36.252 66.0149 35.3933 62.9276 34.5287 59.8464C34.4495 59.558 34.1694 59.337 33.871 59.337C28.3602 59.3616 22.8493 59.3861 17.3385 59.3554C15.9379 59.3493 14.5312 59.3431 13.1307 59.337C12.8262 59.337 12.5522 59.5519 12.473 59.8464C11.6145 62.9276 10.7559 66.0149 9.8912 69.096C10.1104 68.9242 10.3296 68.7585 10.5489 68.5866C8.54546 68.5866 6.53594 68.5866 4.53255 68.5866C4.76395 68.8198 4.98925 69.047 5.21456 69.2741C4.64825 63.9404 4.07585 58.6127 3.50954 53.279C3.43038 52.5118 3.34513 51.7384 3.26596 50.9713C3.03457 51.2045 2.80926 51.4316 2.58396 51.6587C13.4717 51.6955 24.3655 51.6464 35.2533 51.6034C38.3101 51.5912 41.367 51.5789 44.43 51.5666C45.3129 51.5605 45.3129 50.1795 44.43 50.1856C33.5726 50.2286 22.7214 50.2838 11.8642 50.2899C8.77071 50.2899 5.68343 50.2899 2.59005 50.2776C2.24905 50.2776 1.86542 50.5968 1.90804 50.9651C2.47436 56.2988 3.04675 61.6264 3.61306 66.9601C3.69222 67.7274 3.77747 68.5007 3.85663 69.2679C3.89926 69.6423 4.13675 69.9553 4.53864 69.9553C6.54204 69.9553 8.55149 69.9553 10.5549 69.9553C10.8594 69.9553 11.1334 69.7405 11.2125 69.4459C12.0712 66.3648 12.9298 63.2775 13.7944 60.1963C13.5752 60.3682 13.356 60.5339 13.1368 60.7057C18.6477 60.7303 24.1585 60.7549 29.6694 60.7242C31.0699 60.718 32.4765 60.7119 33.8771 60.7057C33.6579 60.5339 33.4387 60.3682 33.2195 60.1963C34.078 63.2775 34.9367 66.3648 35.8013 69.4459C35.8805 69.7405 36.1606 69.9553 36.459 69.9553C38.4624 69.9553 40.4719 69.9553 42.4753 69.9553C42.8771 69.9553 43.1207 69.6362 43.1572 69.2679C43.7236 63.9342 44.296 58.6066 44.8623 53.2729C44.9414 52.5057 45.0267 51.7323 45.1058 50.9651C45.1485 50.5968 44.7588 50.2715 44.4239 50.2776C33.5361 50.3145 22.6422 50.2654 11.7545 50.2224C8.69768 50.2102 5.64081 50.1979 2.57787 50.1856C1.69492 50.1795 1.69492 51.5605 2.57787 51.5666Z" fill="#3D3C3C"/>
<path d="M27.7573 19.2029C26.3202 20.2463 24.5421 20.5655 22.8006 20.4489C21.0894 20.3322 19.2139 19.786 18.0935 18.4111C15.7978 15.5878 15.2437 11.2791 15.5055 7.74985C15.6456 5.83486 16.3276 3.70505 17.9169 2.52046C19.3175 1.47704 21.1443 1.36656 22.8188 1.41567C24.7004 1.47091 26.4237 1.86986 27.9887 2.96239C29.5171 4.03035 30.5949 5.62003 31.1308 7.40614C32.3426 11.457 30.9846 16.6741 27.6111 19.3073C26.9169 19.8535 27.8912 20.8233 28.5793 20.2832C32.032 17.5825 33.4874 12.4084 32.7262 8.18562C31.9468 3.87691 28.5002 0.550243 24.1524 0.102186C22.2038 -0.0942221 20.0542 -0.0696756 18.2336 0.740508C16.2302 1.63662 14.9879 3.58843 14.452 5.67527C13.9223 7.74985 14.0076 10.0024 14.2877 12.1077C14.5799 14.262 15.1828 16.441 16.3398 18.3007C17.6429 20.3936 19.6402 21.4248 22.0394 21.744C24.2254 22.0385 26.6186 21.7071 28.4454 20.3875C29.164 19.8781 28.4759 18.6812 27.7573 19.2029Z" fill="#3D3C3C"/>
<path d="M17.8986 11.7089C18.1787 12.3227 18.8181 12.7707 19.4635 12.9119C20.2004 13.0653 20.9433 12.9119 21.5157 12.4086C21.7897 12.1692 21.7775 11.6721 21.5157 11.4327C21.2234 11.1627 20.8397 11.181 20.5475 11.4327C20.4987 11.4757 20.4317 11.5002 20.5901 11.402C20.5657 11.4205 20.5414 11.4388 20.517 11.4511C20.4683 11.4818 20.4196 11.5064 20.3708 11.5309C20.2552 11.5923 20.4378 11.5064 20.4378 11.5064C20.4378 11.5125 20.3648 11.5309 20.3526 11.537C20.2978 11.5554 20.2369 11.5739 20.176 11.5861C20.1516 11.5923 20.1273 11.5923 20.1029 11.5984C20.0298 11.6107 20.3039 11.58 20.1638 11.5861C20.109 11.5923 20.0543 11.5923 19.9933 11.5923C19.9751 11.5923 19.8106 11.5861 19.8106 11.58C19.8106 11.5739 20.0177 11.6168 19.8837 11.5861C19.8533 11.58 19.8228 11.5739 19.7924 11.5677C19.7376 11.5554 19.6827 11.5432 19.628 11.5247C19.5975 11.5125 19.5732 11.5064 19.5427 11.4941C19.4392 11.4572 19.6767 11.5616 19.6097 11.5247C19.5062 11.4695 19.4026 11.4143 19.3052 11.3468C19.2139 11.2854 19.4392 11.4634 19.3479 11.3775C19.3296 11.3591 19.3113 11.3468 19.2931 11.3283C19.2504 11.2916 19.2139 11.2486 19.1774 11.2056C19.0982 11.1197 19.2748 11.3468 19.2078 11.2486C19.1895 11.224 19.1713 11.1995 19.1591 11.1749C19.1286 11.1197 19.0982 11.0644 19.0738 11.0092C19.0069 10.8619 18.812 10.733 18.6659 10.69C18.5014 10.6471 18.2822 10.6654 18.1361 10.7576C17.8072 10.9846 17.7402 11.3591 17.8986 11.7089Z" fill="#3D3C3C"/>
<path d="M26.2227 12.8499C26.3689 13.0402 26.4968 13.1814 26.6916 13.3225C26.8317 13.433 26.99 13.5006 27.1544 13.568C27.4893 13.7031 27.8547 13.7092 28.2017 13.6417C28.8838 13.5189 29.444 12.9359 29.6388 12.2791C29.7424 11.9354 29.517 11.5119 29.1578 11.4321C28.7924 11.3462 28.4271 11.5426 28.3175 11.917C28.3053 11.9661 28.2871 12.0152 28.2626 12.0643C28.2871 12.0091 28.3114 11.9538 28.3296 11.8986C28.2871 11.9968 28.2322 12.0827 28.1713 12.1687C28.2079 12.1195 28.2444 12.0766 28.2809 12.0275C28.214 12.1073 28.1409 12.1809 28.0617 12.2484C28.1104 12.2116 28.1531 12.1748 28.2017 12.138C28.1104 12.2055 28.013 12.2669 27.9095 12.3098C27.9643 12.2853 28.0191 12.2607 28.0739 12.2423C27.9765 12.2791 27.8791 12.3098 27.7755 12.3221C27.8364 12.3159 27.8973 12.3037 27.9582 12.2976C27.8547 12.3098 27.7451 12.3098 27.6415 12.2976C27.7024 12.3037 27.7633 12.3159 27.8242 12.3221C27.7207 12.3037 27.6172 12.2791 27.5198 12.2362C27.5745 12.2607 27.6294 12.2853 27.6842 12.3037C27.5745 12.2546 27.4771 12.1993 27.3858 12.1257C27.4345 12.1625 27.4771 12.1993 27.5259 12.2362C27.4528 12.1748 27.3858 12.1073 27.3249 12.0336C27.3614 12.0827 27.398 12.1257 27.4345 12.1748C27.4284 12.1687 27.4223 12.1564 27.4162 12.1502C27.3005 12.0029 27.197 11.8863 27.0082 11.831C26.8439 11.7881 26.6247 11.8065 26.4785 11.8986C26.3323 11.9906 26.2045 12.138 26.1619 12.3098C26.1192 12.4878 26.1131 12.7088 26.2227 12.8499Z" fill="#3D3C3C"/>
<path d="M21.4364 17.7243C21.9297 17.9391 22.4229 18.0741 22.9649 18.1171C23.4459 18.1539 23.9392 18.0987 24.4019 17.9698C24.749 17.8777 24.9926 17.4726 24.8829 17.1228C24.7673 16.7668 24.408 16.5397 24.0426 16.6379C23.8904 16.6809 23.7382 16.7116 23.5798 16.7361C23.6407 16.7299 23.7016 16.7177 23.7625 16.7116C23.4337 16.7545 23.1049 16.7545 22.7761 16.7177C22.837 16.7239 22.8979 16.7361 22.9587 16.7422C22.7943 16.7177 22.636 16.687 22.4777 16.644C22.4046 16.6256 22.3254 16.601 22.2523 16.5765C22.2098 16.5643 22.1732 16.5458 22.1306 16.5336C22.088 16.5151 21.9601 16.4599 22.1367 16.5397C21.9601 16.4599 21.8018 16.4169 21.6069 16.4721C21.4486 16.5151 21.278 16.6379 21.1989 16.7913C21.1137 16.9509 21.071 17.1473 21.1319 17.3253C21.1685 17.4726 21.272 17.6568 21.4364 17.7243Z" fill="#3D3C3C"/>
<path d="M24.0672 10.7395C23.7993 11.9855 23.6836 13.2745 23.7505 14.5511C23.7688 14.9132 24.0489 15.2569 24.4326 15.2386C24.7857 15.2201 25.1389 14.9316 25.1146 14.5511C25.0841 13.9557 25.0902 13.3604 25.1328 12.765C25.145 12.6116 25.1572 12.4643 25.1755 12.3108C25.1816 12.2433 25.1937 12.1697 25.1998 12.1021C25.1816 12.2187 25.212 12.0285 25.212 12.0101C25.2546 11.7093 25.3155 11.4086 25.3764 11.1139C25.4556 10.7641 25.2729 10.3529 24.8954 10.2669C24.5665 10.181 24.1525 10.3651 24.0672 10.7395Z" fill="#3D3C3C"/>
<path d="M15.5238 8.87962C16.0353 8.51138 16.626 8.36403 17.235 8.21059C17.8926 8.05101 18.5259 7.85465 19.147 7.5784C20.3283 7.06285 21.4 6.28336 22.283 5.33815C22.8858 4.69368 21.9176 3.71163 21.3148 4.36223C20.4988 5.2338 19.5185 5.93964 18.4163 6.39998C17.2471 6.88486 15.877 6.92169 14.8296 7.68276C14.5313 7.89757 14.3852 8.28427 14.5861 8.62798C14.7627 8.92876 15.2194 9.09443 15.5238 8.87962Z" fill="#3D3C3C"/>
<path d="M18.0996 9.96512C19.3479 9.64602 20.6267 9.30839 21.7472 8.63936C22.7884 8.01947 23.6105 7.14178 24.0794 6.01242C24.2195 5.66871 23.9271 5.25134 23.5983 5.16541C23.2025 5.05493 22.8981 5.30044 22.758 5.6503C21.9663 7.55302 19.5733 8.16675 17.7343 8.63936C16.8818 8.85424 17.241 10.1861 18.0996 9.96512Z" fill="#3D3C3C"/>
<path d="M25.833 8.04979C26.5576 7.6324 27.1665 6.98797 27.5258 6.23303C27.605 6.06117 27.6476 5.8893 27.5928 5.69904C27.5502 5.53945 27.4284 5.3676 27.2762 5.28781C27.1179 5.20188 26.923 5.15892 26.7464 5.2203C26.582 5.27553 26.4115 5.37987 26.3384 5.53945C26.2288 5.77269 26.0949 5.98752 25.9365 6.19006C25.9731 6.14096 26.0096 6.09799 26.0461 6.04889C25.8573 6.28826 25.6442 6.50308 25.4068 6.69336C25.4555 6.65653 25.4981 6.6197 25.5468 6.58288C25.4189 6.68108 25.2789 6.77314 25.1388 6.85907C24.9927 6.945 24.8709 7.10458 24.8222 7.27031C24.7796 7.43605 24.7978 7.65701 24.8891 7.80429C25.1023 8.11731 25.5042 8.24006 25.833 8.04979Z" fill="#3D3C3C"/>
<path d="M21.26 45.3317C18.6051 45.3747 16.0415 44.8591 13.9162 43.1774C12.0529 41.7104 10.5611 39.6359 9.95821 37.3157C9.25791 34.6397 9.46499 31.7734 9.95211 29.0789C10.3174 27.0595 11.036 25.1016 12.2478 23.4383C13.6361 21.5356 15.6152 20.2466 17.85 19.6021C18.6964 19.3566 18.3371 18.0247 17.4847 18.2703C12.8933 19.5838 9.81812 23.3524 8.7769 27.9741C8.13138 30.8465 7.88172 33.9584 8.44804 36.8616C8.95957 39.5008 10.4088 41.8945 12.3939 43.6806C14.8905 45.927 17.9535 46.7556 21.26 46.7066C22.143 46.7004 22.143 45.3194 21.26 45.3317Z" fill="#3D3C3C"/>
<path d="M29.2186 20.2833C34.3032 22.2106 36.5502 28.5386 36.5259 33.5961C36.5015 38.623 34.0414 43.9935 29.2065 45.9882C26.655 47.044 23.8844 46.823 21.4487 45.5648C20.6631 45.1597 19.969 46.3504 20.7545 46.7555C23.1963 48.0137 25.9487 48.4311 28.6097 47.6578C31.0637 46.9396 33.195 45.3315 34.7478 43.3122C38.6145 38.2915 38.7302 31.0858 36.124 25.4636C34.7843 22.5727 32.5861 20.093 29.584 18.9514C28.7558 18.6384 28.4026 19.9764 29.2186 20.2833Z" fill="#3D3C3C"/>
<path d="M9.79978 37.4805C6.29839 35.4735 1.64613 38.1741 0.343011 41.6849C-1.0758 45.4965 2.14546 49.2896 5.62856 50.3453C7.51628 50.9161 9.51967 50.9775 11.4439 51.358C12.3025 51.5299 12.6739 50.198 11.8093 50.0262C9.11779 49.4922 5.87823 49.6517 3.64344 47.8043C2.34641 46.7302 1.28078 45.0362 1.3843 43.293C1.48172 41.7278 2.52909 40.3162 3.75305 39.42C5.25712 38.3214 7.40053 37.6892 9.11169 38.6712C9.87891 39.1132 10.567 37.9225 9.79978 37.4805Z" fill="#3D3C3C"/>
<path d="M37.561 37.8432C40.6118 36.008 44.5698 38.0826 45.2701 41.4584C45.6294 43.2015 45.197 45.1103 44.168 46.5465C42.944 48.259 40.9284 49.2287 39.0407 50.0083C38.2369 50.3397 38.5901 51.6777 39.4061 51.3402C41.1842 50.6036 42.9562 49.7689 44.3567 48.4124C45.6294 47.1726 46.4392 45.5339 46.6768 43.7723C47.1334 40.3843 45.3188 37.1558 42.0367 36.1062C40.3195 35.56 38.4196 35.7195 36.8668 36.6525C36.1117 37.1067 36.7998 38.3036 37.561 37.8432Z" fill="#3D3C3C"/>
<path d="M28.1286 9.21041C28.4757 9.03859 28.7985 8.78695 29.0543 8.49846C29.2004 8.33888 29.3344 8.16091 29.45 7.97063C29.5718 7.78036 29.657 7.57163 29.7424 7.36298C29.8032 7.20954 29.7545 6.97016 29.6754 6.82899C29.5901 6.68782 29.4318 6.54666 29.2674 6.50983C29.0908 6.46686 28.8959 6.47914 28.7376 6.57734C28.6888 6.61417 28.6463 6.651 28.5975 6.68782C28.5123 6.77375 28.4514 6.8781 28.4209 6.99471C28.4148 7.01313 28.4027 7.03768 28.3966 7.05609C28.4209 7.00085 28.4453 6.94561 28.4636 6.89037C28.3723 7.09903 28.2565 7.29545 28.1226 7.47957C28.1591 7.4305 28.1956 7.38751 28.2322 7.33844C28.0861 7.52256 27.9216 7.69445 27.739 7.83558C27.7876 7.79874 27.8303 7.76191 27.879 7.72514C27.739 7.83558 27.5928 7.92764 27.4344 8.00747C27.2883 8.08108 27.1604 8.2652 27.1179 8.4187C27.0752 8.58437 27.0934 8.80533 27.1848 8.95268C27.2761 9.09997 27.4223 9.22887 27.5928 9.27186C27.7876 9.32093 27.9582 9.29639 28.1286 9.21041Z" fill="#3D3C3C"/>
<path d="M13.7274 40.8196C14.312 40.7459 14.8235 40.9546 15.3229 41.237C15.7795 41.4948 16.2241 41.7832 16.626 42.1146C17.4602 42.8082 18.1726 43.6245 18.7268 44.5636C19.1774 45.3247 20.3649 44.6311 19.9081 43.8639C19.2627 42.7837 18.4345 41.8078 17.4541 41.0221C16.4433 40.2119 15.0854 39.2606 13.7274 39.4324C13.3621 39.4815 13.0454 39.7148 13.0454 40.1199C13.0454 40.4636 13.3621 40.8687 13.7274 40.8196Z" fill="#3D3C3C"/>
<path d="M17.5697 40.072C17.7463 40.1763 17.9168 40.2868 18.0812 40.4095C18.13 40.4464 18.1787 40.4832 18.2273 40.52C18.3309 40.5936 18.1969 40.4954 18.2578 40.5446C18.337 40.6121 18.4161 40.6735 18.4953 40.741C18.812 41.0172 19.1042 41.3118 19.3783 41.631C19.4453 41.7107 19.5062 41.7905 19.5731 41.8703C19.5122 41.7905 19.5671 41.858 19.5975 41.901C19.6279 41.944 19.6584 41.9808 19.6888 42.0238C19.8045 42.1895 19.9202 42.3613 20.0237 42.5394C20.1334 42.7235 20.2368 42.9138 20.3282 43.104C20.3708 43.1961 20.4135 43.2881 20.4561 43.3802C20.4804 43.4293 20.5108 43.503 20.4683 43.4109C20.4926 43.4661 20.5109 43.5276 20.5353 43.5828C20.6631 43.9203 21.0041 44.1904 21.3756 44.0676C21.6983 43.9633 21.9906 43.5766 21.8567 43.2206C21.1625 41.4161 19.9142 39.8817 18.27 38.8873C17.9655 38.7032 17.5028 38.8076 17.3322 39.1329C17.1496 39.4582 17.2409 39.8694 17.5697 40.072Z" fill="#3D3C3C"/>
<path d="M22.5691 43.9139C22.6604 43.7053 22.77 43.4965 22.8857 43.3002C22.9405 43.2081 22.9953 43.1221 23.0562 43.0362C23.0927 42.9871 23.1293 42.9319 23.1658 42.8828C23.2389 42.7784 23.1415 42.9073 23.1902 42.846C23.3302 42.6741 23.4703 42.5145 23.6286 42.355C23.7078 42.2751 23.793 42.1954 23.8782 42.1217C23.9148 42.0849 23.9574 42.0542 24.0001 42.0173C24.0061 42.0112 24.1645 41.8884 24.0549 41.9683C24.402 41.7043 24.7795 41.4772 25.1814 41.2992C25.3641 41.2133 25.0596 41.3422 25.2484 41.2747C25.2971 41.2563 25.3458 41.2379 25.3945 41.2194C25.5041 41.1826 25.6137 41.1458 25.7233 41.1151C25.9425 41.0537 26.1679 41.0046 26.3932 40.9678C26.7464 40.9125 26.9777 40.4461 26.8743 40.1208C26.7464 39.7341 26.4114 39.5806 26.0339 39.6359C24.0427 39.9489 22.2159 41.3545 21.3938 43.2081C21.2477 43.5395 21.2903 43.963 21.6374 44.1533C21.9297 44.319 22.4107 44.2638 22.5691 43.9139Z" fill="#3D3C3C"/>
<path d="M19.4087 45.3554C20.0846 46.092 21.0833 46.5094 22.0819 46.4173C23.1658 46.3191 24.0731 45.6624 24.8952 44.9995C25.7843 44.2813 26.6124 43.6 27.678 43.1581C28.8654 42.6671 30.1259 42.44 31.4108 42.4646C32.2938 42.4829 32.2938 41.102 31.4108 41.0836C29.2247 41.0467 26.9351 41.6666 25.1814 43.0047C23.8782 43.999 21.9723 46.1104 20.3769 44.3795C19.7801 43.7228 18.8119 44.6987 19.4087 45.3554Z" fill="#3D3C3C"/>
<path d="M35.4907 42.2019C35.6126 42.0484 35.7465 41.9011 35.8927 41.7661C35.9535 41.7047 36.0205 41.6495 36.0875 41.5943C36.2458 41.4592 36.0327 41.6311 36.1301 41.5574C36.1667 41.5329 36.2032 41.5083 36.2337 41.4776C36.392 41.361 36.5624 41.2628 36.7391 41.1707C36.8243 41.1278 36.9156 41.0848 37.007 41.0418C36.94 41.0725 36.9826 41.0541 37.0252 41.0357C37.074 41.0173 37.1288 40.9989 37.1775 40.9804C37.3541 40.9191 37.5306 40.8638 37.7134 40.827C37.8108 40.8025 37.9082 40.7902 38.0056 40.7718C38.1153 40.7533 37.9082 40.784 38.0178 40.7718C38.0726 40.7656 38.1274 40.7595 38.1822 40.7533C38.3649 40.7411 38.5537 40.7349 38.7364 40.7473C38.8338 40.7533 38.9312 40.7595 39.0286 40.7718C38.9251 40.7595 39.0286 40.7718 39.0713 40.784C39.126 40.7963 39.1809 40.8025 39.2296 40.8147C39.5767 40.8884 39.9847 40.7104 40.0699 40.3299C40.1491 39.9862 39.9664 39.5626 39.5889 39.4829C37.7438 39.09 35.716 39.7467 34.5043 41.2321C34.2728 41.5206 34.2242 41.9257 34.5043 42.208C34.7661 42.4413 35.2533 42.4903 35.4907 42.2019Z" fill="#3D3C3C"/>
<path d="M6.96203 41.6492C6.98639 41.6246 7.0168 41.6001 7.04731 41.5755C7.04731 41.5755 7.18123 41.4651 7.1082 41.5203C7.04121 41.5755 7.13865 41.5019 7.15078 41.4896C7.18733 41.4651 7.22998 41.4344 7.26653 41.4098C7.32742 41.3669 7.39434 41.33 7.46133 41.2932C7.50399 41.2686 7.54664 41.2503 7.58311 41.2318C7.59532 41.2257 7.70496 41.1704 7.62576 41.2073C7.54053 41.2503 7.68055 41.1827 7.69886 41.1766C7.73541 41.1643 7.77188 41.152 7.80233 41.1397C7.88153 41.1152 7.96066 41.0907 8.04596 41.0722C8.12509 41.0538 8.21032 41.0354 8.28952 41.017C8.36864 40.9986 8.33217 41.0108 8.27121 41.017C8.31996 41.0108 8.36254 41.0047 8.4113 41.0047C8.56962 40.9925 8.72795 40.9925 8.88628 40.9986C8.93496 40.9986 8.97761 41.0108 9.02629 41.0108C9.12983 41.017 8.91062 40.9863 9.00806 41.0108C9.09329 41.0293 9.17248 41.0415 9.25161 41.06C9.33081 41.0784 9.41604 41.1029 9.49517 41.1275C9.53172 41.1397 9.56827 41.152 9.59871 41.1643C9.61092 41.1704 9.72659 41.2134 9.64747 41.1827C9.55606 41.1459 9.70225 41.2073 9.72049 41.2196C9.75094 41.238 9.78748 41.2503 9.81793 41.2686C9.90316 41.3116 9.98236 41.3607 10.0554 41.4159C10.3538 41.6123 10.8227 41.4896 10.9932 41.1704C11.1759 40.8267 11.0662 40.4339 10.7496 40.2252C9.28816 39.2678 7.25432 39.4887 5.98774 40.6794C5.72589 40.9249 5.7198 41.4098 5.98774 41.6553C6.27393 41.907 6.68192 41.907 6.96203 41.6492Z" fill="#3D3C3C"/>
<path d="M14.4643 9.47408C13.1247 9.71958 12.5949 11.383 12.6984 12.5737C12.8202 13.9301 13.697 15.2559 15.1037 15.4952C15.4691 15.5566 15.8405 15.397 15.9441 15.0104C16.0354 14.6789 15.8344 14.2248 15.463 14.1633C15.3473 14.1449 15.2377 14.1142 15.1281 14.0774C15.0976 14.0652 15.0306 14.0406 15.0976 14.0712C15.0428 14.0467 14.9941 14.0222 14.9453 13.9915C14.8967 13.9608 14.848 13.9301 14.7992 13.8994C14.781 13.8871 14.7627 13.8749 14.7444 13.8564C14.781 13.8871 14.781 13.8871 14.7444 13.8564C14.6652 13.7889 14.5861 13.7153 14.5191 13.6355C14.5191 13.6355 14.4095 13.5004 14.44 13.5434C14.4765 13.5926 14.3791 13.4514 14.373 13.4391C14.3425 13.39 14.3121 13.3409 14.2877 13.2856C14.2817 13.2734 14.2208 13.1567 14.239 13.1997C14.1903 13.0893 14.1599 12.9726 14.1294 12.856C14.1111 12.7885 14.099 12.7271 14.0868 12.6596C14.0685 12.5737 14.0807 12.6166 14.0746 12.5614C14.0624 12.4386 14.0624 12.3159 14.0624 12.1993C14.0624 12.1317 14.0685 12.0642 14.0746 11.9967C14.0746 11.9845 14.0929 11.8371 14.0868 11.8985C14.105 11.7942 14.1294 11.6837 14.1538 11.5793C14.1659 11.5241 14.1842 11.475 14.2025 11.4197C14.239 11.3031 14.1903 11.4382 14.2208 11.3707C14.2633 11.2786 14.306 11.1927 14.3608 11.1129C14.3608 11.1129 14.4643 10.9717 14.4217 11.027C14.373 11.0883 14.4826 10.9656 14.4948 10.9533C14.5069 10.941 14.6348 10.8367 14.5678 10.8857C14.5009 10.9349 14.6531 10.8367 14.6531 10.8367C14.7079 10.806 14.7201 10.8121 14.6592 10.8305C14.7201 10.8121 14.781 10.7998 14.8419 10.7875C15.2072 10.7201 15.4143 10.272 15.3229 9.94054C15.2011 9.56614 14.8297 9.40656 14.4643 9.47408Z" fill="#3D3C3C"/>
<path d="M32.5862 12.4077C32.6348 12.4261 32.6775 12.4568 32.7263 12.4752C32.7871 12.5059 32.6775 12.4138 32.7567 12.4936C32.7688 12.5059 32.8906 12.6532 32.8115 12.5427C32.8358 12.5734 32.8602 12.6102 32.8785 12.6471C32.8845 12.6593 32.9637 12.8374 32.915 12.7146C32.9333 12.7637 32.9515 12.8189 32.9637 12.868C32.9759 12.9233 32.988 12.9723 33.0003 13.0276C33.0307 13.1565 33.0003 12.9908 33.0064 13.0705C33.0124 13.1811 33.0124 13.2915 33.0064 13.402C33.0003 13.445 32.988 13.5555 33.0064 13.4572C33.0003 13.5125 32.988 13.5678 32.9758 13.623C32.9515 13.7457 32.9089 13.8623 32.8724 13.979C32.8602 14.0158 32.8358 14.0711 32.8663 14.0035C32.8419 14.0649 32.8115 14.1263 32.781 14.1876C32.5618 14.605 32.3669 14.8444 31.9894 15.1759C31.685 15.4459 31.2891 15.7098 30.8446 15.9246C30.5097 16.0904 30.4244 16.563 30.601 16.8698C30.802 17.2136 31.2039 17.2811 31.5388 17.1153C32.5984 16.5937 33.597 15.7467 34.078 14.6357C34.553 13.5371 34.5652 11.7878 33.2804 11.217C32.9394 11.0697 32.5435 11.1187 32.3426 11.4625C32.1721 11.7571 32.2452 12.2542 32.5862 12.4077Z" fill="#3D3C3C"/>
<path d="M27.8183 31.2949C27.2215 33.2099 25.6261 34.3331 23.6653 34.4681C21.6071 34.6155 19.0861 34.0692 18.4407 31.8166C18.0875 30.5768 17.9048 29.0853 18.0509 27.7964C18.191 26.5689 18.8913 25.5438 19.9264 24.8932C21.0469 24.1874 22.3866 23.9726 23.6836 23.9971C24.8223 24.0216 26.101 24.2304 26.9292 25.0958C27.6417 25.8385 27.9218 26.9739 28.0435 27.9682C28.1714 29.0669 28.1227 30.2208 27.8183 31.2949C27.5747 32.1481 28.8961 32.5163 29.1396 31.6632C29.7668 29.4597 29.6573 26.4645 28.2628 24.5618C26.4542 22.1005 22.3196 22.1864 19.823 23.3772C18.5502 23.9848 17.4786 25.0589 16.9792 26.397C16.4129 27.9314 16.6565 29.6868 16.9123 31.2642C17.1558 32.7434 17.7769 34.063 19.074 34.8733C20.2005 35.5791 21.6254 35.8369 22.9346 35.8676C25.7784 35.9289 28.2628 34.462 29.1396 31.6632C29.4015 30.81 28.0801 30.4479 27.8183 31.2949Z" fill="#3D3C3C"/>
<path d="M22.6484 33.0917C22.9528 33.2329 23.2756 33.3249 23.6104 33.3066C23.9453 33.2882 24.2681 33.2022 24.5543 33.0242C24.7004 32.9322 24.8222 32.7848 24.871 32.613C24.9135 32.4473 24.8953 32.2263 24.804 32.079C24.7126 31.9317 24.5664 31.8028 24.396 31.7598C24.2193 31.7168 24.0245 31.7292 23.8662 31.8274C23.8114 31.8642 23.7505 31.8949 23.6896 31.9194C23.7444 31.8949 23.7992 31.8704 23.854 31.8519C23.7505 31.8949 23.647 31.9256 23.5374 31.9378C23.5982 31.9317 23.6591 31.9194 23.72 31.9133C23.6043 31.9317 23.4887 31.9317 23.3729 31.9133C23.4338 31.9194 23.4948 31.9317 23.5557 31.9378C23.446 31.9194 23.3364 31.8949 23.239 31.8519C23.2938 31.8764 23.3486 31.901 23.4034 31.9194C23.3851 31.9133 23.3669 31.901 23.3486 31.8949C23.2695 31.8457 23.1842 31.8151 23.0928 31.8151C23.0015 31.7967 22.9102 31.7967 22.8188 31.8274C22.6605 31.8703 22.49 31.9931 22.4108 32.1465C22.3256 32.3061 22.2829 32.5025 22.3438 32.6805C22.3865 32.8401 22.49 33.0181 22.6484 33.0917Z" fill="#3D3C3C"/>
<path d="M19.9934 31.0305C20.1639 31.0674 20.3466 31.0919 20.5292 31.0857C20.7058 31.0735 20.8885 31.049 21.059 30.9937C21.3939 30.8832 21.7105 30.6991 21.9481 30.429C22.0698 30.2879 22.149 30.1283 22.149 29.938C22.149 29.7661 22.0759 29.5636 21.9481 29.447C21.8202 29.3242 21.6436 29.2383 21.4609 29.2445C21.2843 29.2506 21.0955 29.312 20.9738 29.447C20.919 29.5083 20.8581 29.5698 20.7911 29.6188C20.8398 29.582 20.8824 29.5452 20.9311 29.5083C20.8398 29.582 20.7423 29.6372 20.6328 29.6864C20.6875 29.6618 20.7423 29.6372 20.7971 29.6188C20.6814 29.6679 20.5658 29.6986 20.444 29.7171C20.5049 29.7109 20.5658 29.6986 20.6267 29.6925C20.511 29.7048 20.3952 29.7109 20.2857 29.6925C20.3466 29.6986 20.4074 29.7109 20.4683 29.7171C20.4318 29.7109 20.3952 29.7048 20.3527 29.6986C20.176 29.6618 19.9872 29.6741 19.8229 29.7661C19.6828 29.8521 19.5428 30.0117 19.5062 30.1774C19.4636 30.3554 19.4758 30.5518 19.5732 30.7113C19.6828 30.8587 19.8229 30.9876 19.9934 31.0305Z" fill="#3D3C3C"/>
<path d="M25.4068 30.6997C26.0402 31.0495 26.8744 30.9452 27.3859 30.4174C27.5077 30.2885 27.5868 30.1104 27.5868 29.9263C27.5868 29.7545 27.5137 29.5519 27.3859 29.4353C27.258 29.3126 27.0814 29.2266 26.8987 29.2327C26.716 29.2389 26.5455 29.3003 26.4116 29.4353C26.3811 29.466 26.3507 29.4967 26.3142 29.5212C26.3628 29.4844 26.4055 29.4475 26.4542 29.4108C26.3872 29.4598 26.3203 29.5028 26.2472 29.5335C26.3019 29.5089 26.3567 29.4844 26.4116 29.466C26.3324 29.4967 26.2472 29.5212 26.1619 29.5335C26.2228 29.5274 26.2837 29.5151 26.3446 29.5089C26.2533 29.5212 26.1619 29.5212 26.0706 29.5089C26.1315 29.5151 26.1924 29.5274 26.2533 29.5335C26.1741 29.5212 26.0949 29.5028 26.0218 29.4721C26.0766 29.4967 26.1315 29.5212 26.1863 29.5396C26.1558 29.5274 26.1254 29.5151 26.101 29.4967C25.9427 29.4108 25.7478 29.3801 25.5713 29.4292C25.4129 29.4721 25.2424 29.5949 25.1633 29.7483C25.078 29.9079 25.0354 30.1043 25.0963 30.2823C25.145 30.4541 25.2485 30.6137 25.4068 30.6997Z" fill="#3D3C3C"/>
<path d="M16.4309 39.8383C16.4248 39.2736 16.5832 38.7396 16.7902 38.2179C16.9912 37.6962 17.2165 37.1684 17.4966 36.6835C17.9837 35.8303 18.7936 35.3332 19.7131 35.0631C20.5595 34.8176 20.2003 33.4857 19.3478 33.7312C18.1359 34.0872 17.0277 34.793 16.3579 35.8978C16.0108 36.4748 15.749 37.1254 15.4993 37.7515C15.2313 38.4144 15.0426 39.114 15.0548 39.8322C15.0791 40.7283 16.4492 40.7283 16.4309 39.8383Z" fill="#3D3C3C"/>
<path d="M26.448 34.6264C27.6841 35.3568 28.9141 36.3757 29.3709 37.7935C29.7667 39.0088 29.4805 40.2302 28.8167 41.3166C28.3539 42.0715 29.5352 42.7712 29.9981 42.0163C30.8384 40.6476 31.1916 38.9904 30.6862 37.4314C30.1138 35.6576 28.6888 34.3564 27.13 33.4419C26.3749 32.9815 25.6868 34.1723 26.448 34.6264Z" fill="#3D3C3C"/>
<path d="M20.1272 26.3648C20.2612 26.6472 20.4561 26.9111 20.6692 27.1443C20.7605 27.2425 20.858 27.3285 20.9614 27.4083C21.1076 27.5249 21.2538 27.6354 21.4182 27.7274C21.5765 27.8134 21.7714 27.844 21.9479 27.795C22.1063 27.752 22.2767 27.6292 22.3559 27.4758C22.4412 27.3162 22.4838 27.1198 22.4229 26.9418C22.3681 26.7699 22.2646 26.6165 22.1063 26.5306C21.9966 26.4692 21.8871 26.3955 21.7896 26.3219C21.8383 26.3587 21.881 26.3955 21.9296 26.4324C21.7592 26.2973 21.607 26.1439 21.4791 25.9781C21.5156 26.0273 21.5522 26.0703 21.5886 26.1194C21.4852 25.9781 21.3938 25.8309 21.3146 25.6713C21.2415 25.524 21.0589 25.3951 20.9067 25.3521C20.7422 25.3092 20.523 25.3276 20.3769 25.4196C20.2308 25.5117 20.1029 25.659 20.0602 25.8309C20.0541 25.8922 20.042 25.9536 20.0359 26.015C20.0359 26.1377 20.0663 26.2544 20.1272 26.3648Z" fill="#3D3C3C"/>
<path d="M22.1978 25.9477C22.2404 26.0582 22.283 26.1686 22.3439 26.273C22.3987 26.3712 22.4779 26.4633 22.5449 26.5553C22.6545 26.6964 22.8006 26.807 22.9467 26.9113C23.0929 27.0095 23.2634 27.0831 23.4278 27.1323C23.6044 27.1875 23.7932 27.212 23.9758 27.2059C24.1585 27.1997 24.329 27.1323 24.463 27.0034C24.5848 26.8806 24.67 26.6842 24.6639 26.5123C24.6579 26.3344 24.597 26.1502 24.463 26.0213C24.329 25.8986 24.1585 25.8126 23.9758 25.8188C23.9088 25.8188 23.848 25.8188 23.781 25.8126C23.8419 25.8188 23.9028 25.8311 23.9637 25.8372C23.8663 25.8249 23.7749 25.7942 23.6836 25.7574C23.7384 25.7819 23.7932 25.8065 23.848 25.8249C23.7506 25.7819 23.6531 25.7267 23.5678 25.6592C23.6166 25.696 23.6592 25.7329 23.7079 25.7697C23.6288 25.7083 23.5618 25.6408 23.5009 25.561C23.5374 25.6101 23.5739 25.653 23.6105 25.7022C23.5496 25.6223 23.5009 25.5426 23.4644 25.4505C23.4887 25.5057 23.5131 25.561 23.5314 25.6163C23.5253 25.6039 23.5192 25.5856 23.5131 25.5733C23.4948 25.4812 23.4522 25.4075 23.3913 25.34C23.3426 25.2664 23.2816 25.205 23.1964 25.162C23.0503 25.0761 22.8311 25.0393 22.6666 25.0945C22.5022 25.1497 22.3439 25.2541 22.2587 25.4137C22.1856 25.5733 22.1308 25.7758 22.1978 25.9477Z" fill="#3D3C3C"/>
<path d="M25.3764 26.4631C25.4981 26.5306 25.6199 26.6042 25.7418 26.6717C25.8209 26.7209 25.9061 26.7515 25.9975 26.7515C26.0888 26.7699 26.1802 26.7699 26.2715 26.7392C26.3629 26.7209 26.4359 26.6779 26.5029 26.6165C26.576 26.5674 26.6369 26.506 26.6795 26.4201C26.7039 26.3648 26.7282 26.3096 26.7464 26.2543C26.7769 26.1316 26.7769 26.0088 26.7464 25.8861C26.7221 25.8309 26.6978 25.7756 26.6795 25.7204C26.6186 25.6161 26.5394 25.5362 26.4359 25.4749C26.3141 25.4073 26.1923 25.3337 26.0706 25.2662C25.9914 25.2171 25.9061 25.1864 25.8148 25.1864C25.7235 25.168 25.6321 25.168 25.5408 25.1987C25.4494 25.2171 25.3764 25.26 25.3094 25.3214C25.2363 25.3705 25.1754 25.4319 25.1328 25.5178C25.1085 25.5731 25.0841 25.6283 25.0658 25.6836C25.0354 25.8063 25.0354 25.9291 25.0658 26.0518C25.0901 26.107 25.1146 26.1623 25.1328 26.2176C25.1876 26.3219 25.2728 26.4017 25.3764 26.4631Z" fill="#3D3C3C"/>
</g>
<defs>
<clipPath id="clip0_354_797">
<rect width="47" height="70" fill="white"/>
</clipPath>
</defs>
</svg>
