<svg width="81" height="50" viewBox="0 0 81 50" fill="none" xmlns="http://www.w3.org/2000/svg">
<path d="M72.1762 21.4396H8.63733V6.08395C8.63733 4.32994 10.7662 2.90234 13.3846 2.90234H67.4289C70.0473 2.90234 72.1762 4.33712 72.1762 6.08395V21.4396V21.4396ZM9.31705 20.7617H71.4965V13.7241V13.3116V6.08395C71.4965 4.70298 69.6725 3.5731 67.4289 3.5731H13.3846C11.141 3.5731 9.31705 4.69581 9.31705 6.08395V13.378V13.7241V20.7617Z" fill="#5B712E"/>
<path d="M67.6477 21.3808H45.9037L45.8338 21.1333C45.7586 20.8653 45.72 20.5884 45.719 20.3101V14.5441C45.719 12.4099 47.9859 10.6738 50.7712 10.6738H62.7874C65.5726 10.6738 67.8396 12.4099 67.8396 14.5441V20.3101C67.8394 20.5885 67.8008 20.8655 67.7248 21.1333L67.6477 21.3808ZM46.4328 20.7029H67.1294C67.1514 20.5731 67.1628 20.4417 67.1634 20.3101V14.5441C67.1634 12.7847 65.2014 11.3518 62.7892 11.3518H50.773C48.3626 11.3518 46.4005 12.7865 46.4005 14.5441V20.3101C46.3997 20.4417 46.4105 20.5732 46.4328 20.7029V20.7029Z" fill="#5B712E"/>
<path d="M80.8135 46.6451H0V31.25H80.8135V46.6451ZM0.679723 45.9672H80.1302V31.9297H0.679723V45.9672Z" fill="#5B712E"/>
<path d="M7.64197 49.8819H3.22287V45.9668H7.64197V49.8819ZM3.9008 49.2022H6.96404V46.6447H3.9008V49.2022Z" fill="#5B712E"/>
<path d="M77.3826 49.9991H72.9617V46.084H77.3826V49.9991ZM73.6415 49.3194H76.7047V46.7619H73.6415V49.3194Z" fill="#5B712E"/>
<path d="M74.7785 21.4373H6.035V3.64432C6.035 1.63564 8.32884 0 11.1464 0H69.6671C72.4847 0 74.7785 1.63564 74.7785 3.64432V12.0449C74.7793 12.0545 74.7793 12.0641 74.7785 12.0736V21.4373V21.4373ZM6.71473 20.7594H74.0988V12.4682V12.1238C74.0988 12.1059 74.0988 12.0897 74.0988 12.0736V3.64432C74.0988 2.00868 72.1116 0.679723 69.6671 0.679723H11.1464C8.70189 0.679723 6.71473 2.00868 6.71473 3.64432V12.122V12.4682H6.70397L6.71473 20.7594Z" fill="#5B712E"/>
<path d="M36.1024 21.3031H14.3585L14.2885 21.0556C14.2124 20.7915 14.1738 20.518 14.1737 20.2431V14.5686C14.1737 12.4649 16.4389 10.7539 19.2259 10.7539H31.2421C34.0274 10.7539 36.2925 12.4649 36.2925 14.5686V20.2431C36.2925 20.518 36.2539 20.7915 36.1778 21.0556L36.1024 21.3031ZM14.8857 20.6233H35.5751C35.5967 20.4977 35.6075 20.3705 35.6074 20.2431V14.5686C35.6074 12.8397 33.6454 11.4318 31.235 11.4318H19.2188C16.8065 11.4318 14.8445 12.8397 14.8445 14.5686V20.2431C14.8465 20.3709 14.8604 20.4981 14.8857 20.6233V20.6233Z" fill="#5B712E"/>
<path d="M80.7184 31.9289H0.0950534L0.0538038 31.6365C0.0197819 31.4109 0.00180231 31.1832 0 30.955V25.6607C0 24.3764 0.510175 23.1448 1.41829 22.2367C2.32641 21.3285 3.55808 20.8184 4.84235 20.8184H75.9729C77.2572 20.8184 78.4889 21.3285 79.397 22.2367C80.3051 23.1448 80.8153 24.3764 80.8153 25.6607V30.955C80.8135 31.1832 80.7955 31.4109 80.7615 31.6365L80.7184 31.9289ZM0.692277 31.2491H80.1212C80.1302 31.1469 80.1338 31.0483 80.1338 30.955V25.6607C80.1328 24.5575 79.6942 23.4997 78.914 22.7196C78.1339 21.9395 77.0762 21.5008 75.9729 21.4999H4.84056C3.73733 21.5008 2.67956 21.9395 1.89945 22.7196C1.11935 23.4997 0.680673 24.5575 0.679723 25.6607V30.955C0.679723 31.0483 0.68331 31.1469 0.692277 31.2491Z" fill="#5B712E"/>
</svg>
