<svg width="60" height="51" viewBox="0 0 60 51" fill="none" xmlns="http://www.w3.org/2000/svg">
<path d="M50.7721 12.0048C51.4135 11.8872 51.8725 11.3046 51.8784 10.6573C51.8725 10.0806 51.5136 9.56865 50.9722 9.36858C50.4426 9.17439 49.813 9.34504 49.454 9.78049C49.0892 10.2277 49.0303 10.875 49.3304 11.3693C49.6305 11.8577 50.2072 12.1108 50.7721 12.0048ZM49.5776 10.0924C49.8071 9.70988 50.272 9.50392 50.7074 9.59219C51.2194 9.69223 51.5783 10.1394 51.5901 10.6573C51.5842 11.1045 51.3076 11.5223 50.8781 11.6753C50.4426 11.8283 49.9542 11.6988 49.6658 11.3458C49.3775 10.9927 49.3422 10.4808 49.5776 10.0924Z" fill="#5B712E"/>
<path d="M7.65047 48.2404C7.51513 48.2463 7.40332 48.3522 7.40332 48.4876V49.7174C7.40332 49.8469 7.51513 49.9705 7.65047 49.9646C7.78581 49.9587 7.89762 49.8528 7.89762 49.7174V48.4876C7.89762 48.3581 7.78581 48.2346 7.65047 48.2404Z" fill="#5B712E"/>
<path d="M7.65047 44.9768C7.51513 44.9826 7.40332 45.0886 7.40332 45.2239V46.5362C7.40332 46.6656 7.51513 46.7892 7.65047 46.7833C7.78581 46.7774 7.89762 46.6715 7.89762 46.5362V45.2239C7.89762 45.0945 7.78581 44.9709 7.65047 44.9768Z" fill="#5B712E"/>
<path d="M6.63249 47.2246H5.40262C5.27317 47.2246 5.14959 47.3364 5.15548 47.4718C5.16136 47.6071 5.26728 47.7189 5.40262 47.7189H6.63249C6.76195 47.7189 6.88552 47.6071 6.87964 47.4718C6.87375 47.3364 6.76783 47.2246 6.63249 47.2246Z" fill="#5B712E"/>
<path d="M9.89847 47.2246H8.58622C8.45676 47.2246 8.33318 47.3364 8.33907 47.4718C8.34495 47.6071 8.45088 47.7189 8.58622 47.7189H9.89847C10.0279 47.7189 10.1515 47.6071 10.1456 47.4718C10.1397 47.3364 10.0338 47.2246 9.89847 47.2246Z" fill="#5B712E"/>
<path d="M53.3028 20.5427C53.4382 20.5368 53.55 20.4309 53.55 20.2956V19.0657C53.55 18.9363 53.4382 18.8127 53.3028 18.8186C53.1675 18.8244 53.0557 18.9304 53.0557 19.0657V20.2956C53.0557 20.425 53.1675 20.5486 53.3028 20.5427Z" fill="#5B712E"/>
<path d="M53.3028 17.3595C53.4382 17.3536 53.55 17.2477 53.55 17.1123V15.8001C53.55 15.6706 53.4382 15.5471 53.3028 15.5529C53.1675 15.5588 53.0557 15.6647 53.0557 15.8001V17.1123C53.0557 17.2418 53.1675 17.3654 53.3028 17.3595Z" fill="#5B712E"/>
<path d="M50.8073 18.0479C50.8132 18.1833 50.9191 18.2951 51.0545 18.2951H52.2843C52.4138 18.2951 52.5374 18.1833 52.5315 18.0479C52.5256 17.9126 52.4197 17.8008 52.2843 17.8008H51.0545C50.925 17.8008 50.8014 17.9126 50.8073 18.0479Z" fill="#5B712E"/>
<path d="M54.2444 18.2951H55.5567C55.6861 18.2951 55.8097 18.1833 55.8038 18.0479C55.7979 17.9126 55.692 17.8008 55.5567 17.8008H54.2444C54.115 17.8008 53.9914 17.9126 53.9973 18.0479C54.0032 18.1833 54.1091 18.2951 54.2444 18.2951Z" fill="#5B712E"/>
<path d="M59.5872 33.5241C58.5691 29.1342 53.7497 26.6745 49.913 25.2151C45.1583 23.4027 40.0977 22.8142 35.0487 22.5671C29.9645 22.3141 24.4449 22.2023 19.4607 23.5557C17.1598 20.0132 14.7295 16.4413 11.6931 13.4873C9.30989 11.1747 5.52615 8.91503 2.45443 11.4277C-1.64119 14.7819 3.89614 20.7252 6.27348 23.2615C7.67988 24.7561 9.22162 26.1272 10.6574 27.5925C10.6339 27.6101 10.6163 27.6337 10.5927 27.6572C7.46215 31.2232 4.96712 35.9602 7.07966 40.6679C8.79794 44.5046 12.7582 46.9113 16.5302 48.3707C19.7137 49.6005 23.0855 50.0536 26.4691 50.3067C30.1646 50.5833 33.8954 50.5891 37.5909 50.3008C44.2992 49.7712 52.7964 48.4354 57.3157 42.8628C59.3812 40.3207 60.3345 36.7547 59.5872 33.5241ZM4.51401 18.4479C3.65487 17.2063 2.25436 15.182 2.91343 13.5814C3.31357 12.6164 4.49047 12.0632 5.47319 12.0397C7.38565 11.9985 9.02743 13.3225 10.3338 14.57C13.3172 17.424 15.6769 20.9018 17.9248 24.3501C17.713 24.9444 18.1602 25.7506 18.9311 25.5035C23.1679 24.1618 27.8402 24.1147 32.2418 24.1912C36.4963 24.2618 40.8626 24.509 45.0171 25.5035C48.995 26.4568 53.4908 27.9926 56.3271 31.0879C56.6449 31.4351 56.9156 31.8058 57.1451 32.2C57.0039 32.2648 56.8744 32.3883 56.7861 32.5825C55.262 35.9073 51.0899 37.2607 47.824 38.0963C43.393 39.2379 38.7678 39.6381 34.2014 39.7028C27.8873 39.7852 20.9377 39.1202 15.1061 36.5252C13.6821 35.8896 12.0344 35.0423 11.2165 33.6476C10.2926 32.0706 11.1459 30.3994 12.1874 29.1166C12.2521 29.0401 12.2992 28.9577 12.3345 28.8694C12.9171 28.7635 13.3879 27.975 12.8583 27.3865C10.122 24.3501 6.8737 21.8315 4.5199 18.4479H4.51401ZM56.9627 40.3265C53.8968 45.8992 46.194 47.5468 40.4272 48.2765C34.2249 49.0651 27.6107 49.1121 21.4438 47.9646C17.2834 47.1879 12.8406 45.3696 10.0278 42.0919C7.521 39.1673 7.7093 35.872 9.12747 32.8709C9.35697 34.3832 10.375 35.5836 11.5695 36.4899C14.5412 38.7377 18.525 39.6616 22.1146 40.3677C30.1352 41.9389 38.6324 41.8565 46.6236 40.1559C50.5368 39.3262 55.7034 37.8668 57.9101 34.1596C58.375 36.2074 57.9866 38.4788 56.9627 40.3324V40.3265Z" fill="#5B712E"/>
<path d="M19.2547 33.8426C23.9624 32.0596 29.0289 31.3181 34.0484 31.2828C39.0855 31.2475 44.2933 31.9007 48.9598 33.9014C49.9719 34.3369 50.8546 32.8481 49.8307 32.4068C44.9936 30.3354 39.6799 29.5587 34.4427 29.5528C29.1584 29.5469 23.7564 30.3001 18.7957 32.1773C17.766 32.5656 18.2132 34.2368 19.2547 33.8426V33.8426Z" fill="#5B712E"/>
<path d="M30.135 20.1361C31.1766 20.5303 31.6238 18.865 30.594 18.4708C29.6407 18.1059 28.9875 17.2174 28.811 16.2229C28.5933 14.9812 29.2877 14.1986 29.9232 13.2218C30.9942 11.58 30.8824 9.66164 29.5642 8.1964C28.8169 7.36668 27.5988 8.59066 28.3403 9.42037C29.5113 10.7209 28.6698 11.9448 27.8754 13.1453C27.3222 13.9809 27.0045 14.8753 27.0398 15.8816C27.1045 17.8235 28.352 19.4594 30.135 20.142V20.1361Z" fill="#5B712E"/>
<path d="M36.8201 13.9522C37.4262 14.8819 38.9208 14.0169 38.3147 13.0813C37.6321 12.0397 37.2967 10.851 37.5203 9.60352C37.7086 8.56196 38.3441 7.69105 38.656 6.69657C38.9326 5.81978 38.9091 4.95476 38.5972 4.09562C38.2618 3.17175 37.6145 2.3538 37.5615 1.34755C37.5085 0.241261 35.7785 0.235377 35.8315 1.34755C35.8844 2.38322 36.3022 3.18352 36.7259 4.10739C37.3791 5.53732 36.873 6.47296 36.2963 7.81463C35.4137 9.85067 35.6078 12.0927 36.8259 13.9522H36.8201Z" fill="#5B712E"/>
<path d="M47.6241 18.8134C46.8709 17.1422 46.6649 15.3297 47.0062 13.535C47.2122 12.4463 45.5469 11.9815 45.3409 13.076C44.9113 15.365 45.1761 17.56 46.1353 19.6843C46.5884 20.6964 48.0831 19.8196 47.63 18.8134H47.6241Z" fill="#5B712E"/>
</svg>
