<svg width="53" height="50" viewBox="0 0 53 50" fill="none" xmlns="http://www.w3.org/2000/svg">
<path d="M39.0038 23.0914C38.9908 19.3523 38.8932 15.5027 38.7957 11.7766C38.6981 8.05696 38.6006 4.21381 38.5876 0.48771C38.5876 0.357654 38.5356 0.2341 38.4445 0.143061C38.3535 0.0520222 38.2299 0.0065028 38.0999 0C34.0291 0.032514 29.8608 0.0585254 25.8226 0.0845365C21.7714 0.110548 17.5771 0.136559 13.4868 0.169073C13.3567 0.169073 13.2332 0.221095 13.1422 0.312134C13.0511 0.403174 12.9991 0.526726 13.0056 0.656782C13.0511 4.1943 13.0901 8.18702 13.1356 12.0432C13.1747 15.8993 13.2202 19.8921 13.2657 23.4296C13.2657 23.5596 13.3177 23.6832 13.4153 23.7742C13.5063 23.8653 13.6299 23.9108 13.7534 23.9108H13.7599C17.8827 23.8588 22.012 23.8002 26.1477 23.7417C30.277 23.6832 34.4128 23.6247 38.5291 23.5726C38.7892 23.5791 39.0038 23.3645 39.0038 23.0914ZM26.1217 22.7793C22.155 22.8313 18.1818 22.8898 14.2281 22.9419C14.1891 19.5279 14.1436 15.7238 14.1046 12.0432C14.0655 8.3626 14.0265 4.55846 13.981 1.14449C17.9152 1.11848 21.9339 1.09247 25.8226 1.06646C29.6918 1.04045 33.691 1.01444 37.6057 0.988425C37.6252 4.57147 37.7162 8.25205 37.8138 11.8091C37.9048 15.3661 38.0023 19.0402 38.0218 22.6167C34.0681 22.6687 30.0949 22.7208 26.1217 22.7793ZM25.8876 25.3284C25.8876 25.0618 25.673 24.8407 25.4064 24.8342C21.4072 24.7822 17.2129 24.7496 13.1617 24.7236C9.11042 24.6976 4.92262 24.6651 0.923397 24.6131H0.916894C0.65028 24.6131 0.435687 24.8277 0.429184 25.0943L0 49.4343C0 49.5643 0.0455195 49.6944 0.136559 49.7854C0.227598 49.8764 0.351151 49.9285 0.481207 49.9285C3.08883 49.9285 5.5729 49.948 7.97243 49.9675C10.2224 49.987 12.4268 50 14.6248 50C18.2273 50 21.8039 49.9545 25.5365 49.7919C25.7966 49.7789 25.9982 49.5708 26.0047 49.3107C26.0372 45.5456 25.9852 41.3578 25.9397 37.3065C25.9071 33.2618 25.8551 29.0805 25.8876 25.3284ZM25.0488 48.836C19.2353 49.0766 13.7729 49.0311 7.99194 48.9921C5.74197 48.9726 3.42047 48.9596 0.988425 48.953L1.3981 25.595C5.25426 25.647 9.26648 25.673 13.1552 25.6991C17.0438 25.7251 21.0561 25.7511 24.9057 25.8031C24.8797 29.4382 24.9317 33.4439 24.9772 37.3195C25.0228 41.1952 25.0748 45.2009 25.0488 48.836ZM51.6127 25.1593C47.1973 24.9967 38.4055 24.7431 29.087 24.8732C28.8204 24.8797 28.6058 25.0943 28.6058 25.3544L28.3912 48.849C28.3912 48.9791 28.4432 49.1026 28.5343 49.2002C28.6253 49.2912 28.7554 49.3432 28.8854 49.3432C32.2604 49.3237 36.2206 49.4082 40.0507 49.4928C43.4647 49.5708 46.9827 49.6488 50.104 49.6488C50.4942 49.6488 50.8779 49.6488 51.2485 49.6423C51.5151 49.6423 51.7297 49.4278 51.7297 49.1676C51.8078 45.4675 51.8533 41.3708 51.9053 37.4041C51.9573 33.4439 52.0029 29.3536 52.0809 25.6535C52.0874 25.3869 51.8793 25.1658 51.6127 25.1593ZM50.9299 37.3911C50.8844 41.1822 50.8324 45.0969 50.7673 48.6669C47.4964 48.6799 43.7248 48.5954 40.0767 48.5174C36.6628 48.4393 33.1448 48.3613 30.0299 48.3613C29.8088 48.3613 29.5942 48.3613 29.3796 48.3613L29.5877 25.8356C38.3795 25.7251 46.6446 25.9527 51.1055 26.1087C51.0274 29.6853 50.9819 33.5999 50.9299 37.3911ZM36.4092 2.71167C36.4092 2.58161 36.3571 2.45806 36.2596 2.36702C36.1685 2.27598 36.0385 2.23046 35.9084 2.23046C32.5205 2.3215 29.0935 2.38002 25.7771 2.44505C22.4607 2.50358 19.0337 2.5686 15.6392 2.65964C15.3726 2.66615 15.158 2.88724 15.1645 3.16036C15.2295 6.22318 15.3011 9.20146 15.3661 12.1797C15.4311 15.158 15.5027 18.1363 15.5677 21.1991C15.5742 21.4657 15.7888 21.6738 16.0554 21.6738C16.1529 21.6738 16.2505 21.6738 16.3545 21.6738C23.8588 21.6738 29.0675 21.5568 36.136 21.2381C36.3961 21.2251 36.6042 21.0105 36.6042 20.7439C36.5782 17.5315 36.5392 14.5793 36.5067 11.7245C36.4742 8.87632 36.4352 5.92405 36.4092 2.71167ZM16.5366 20.6984C16.4716 17.8047 16.4131 14.9759 16.348 12.1537C16.283 9.33151 16.2245 6.5093 16.1594 3.61555C19.3913 3.53102 22.6492 3.47249 25.8031 3.41397C28.9569 3.35544 32.2149 3.29692 35.4402 3.21238C35.4662 6.22968 35.4988 9.02588 35.5313 11.7375C35.5638 14.4557 35.5963 17.2584 35.6223 20.2822C28.8594 20.5879 23.7547 20.6984 16.5366 20.6984ZM23.0264 27.1492C17.3234 26.7265 10.0468 26.6615 3.06282 26.9671C2.8027 26.9801 2.59462 27.1947 2.59462 27.4548C2.60762 30.7192 2.62713 34.0877 2.64014 37.4561C2.65314 40.766 2.67265 44.0759 2.68565 47.2818C2.68565 47.5484 2.90025 47.763 3.16686 47.7695C7.88789 47.8216 11.6465 47.8671 15.2686 47.8671C17.8242 47.8671 20.3017 47.8476 23.0004 47.7956C23.1304 47.7956 23.254 47.737 23.345 47.646C23.4361 47.5549 23.4816 47.4249 23.4816 47.2948C23.4036 43.8484 23.4426 40.61 23.4816 37.4756C23.5206 34.3348 23.5596 31.0834 23.4816 27.6239C23.4751 27.3768 23.28 27.1687 23.0264 27.1492ZM22.5062 37.4691C22.4672 40.4604 22.4346 43.5557 22.4932 46.8331C16.335 46.9372 11.2303 46.8917 3.66107 46.8006C3.64807 43.7443 3.63506 40.597 3.62206 37.4561C3.60905 34.2502 3.59605 31.0443 3.57654 27.923C10.2029 27.6499 17.0438 27.7084 22.5127 28.0921C22.5777 31.3695 22.5387 34.4713 22.5062 37.4691ZM31.1419 27.6499C31.0509 30.7192 31.0313 33.9056 31.0053 36.9814C30.9793 40.0572 30.9598 43.2371 30.8688 46.2934C30.8623 46.56 31.0704 46.7811 31.337 46.7941C35.2777 46.9632 38.2364 46.9762 41.0977 46.9827C43.4387 46.9892 45.8512 47.0022 48.771 47.0932C48.7775 47.0932 48.784 47.0932 48.784 47.0932C48.914 47.0932 49.0376 47.0412 49.1286 46.9502C49.2262 46.8591 49.2782 46.7291 49.2717 46.5925C49.2002 43.4387 49.2327 40.2978 49.2652 37.2675C49.2977 34.2242 49.3302 31.0769 49.2587 27.91C49.2522 27.6499 49.0441 27.4353 48.7775 27.4353C45.9878 27.3898 43.0485 27.3443 40.2003 27.3052C37.3521 27.2597 34.4128 27.2207 31.6231 27.1752C31.3695 27.1687 31.1484 27.3833 31.1419 27.6499ZM31.9807 36.9879C32.0003 34.0747 32.0263 31.0639 32.1043 28.1571C34.7509 28.1961 37.5146 28.2416 40.2003 28.2807C42.8859 28.3197 45.6626 28.3652 48.3093 28.4042C48.3678 31.402 48.3353 34.3803 48.3028 37.261C48.2703 40.1418 48.2377 43.1135 48.2963 46.1048C45.5911 46.0268 43.3151 46.0138 41.1042 46.0073C38.3665 45.9943 35.5443 45.9878 31.8572 45.8382C31.9352 42.9185 31.9547 39.9077 31.9807 36.9879ZM30.0234 8.79178C29.4642 7.51073 28.5213 5.77448 26.811 5.52087C25.9527 5.39082 25.0098 5.68995 24.2294 6.33372C23.5271 6.91247 23.0394 7.6668 22.6622 8.33658C21.2511 10.7946 20.3798 13.6299 20.1392 16.5496C20.1327 16.6016 20.1262 16.6602 20.1262 16.7252C20.0546 17.4665 19.9311 18.8451 20.952 19.3068C21.1601 19.4043 21.3747 19.4499 21.5828 19.4499C21.7779 19.4499 21.9729 19.4108 22.155 19.3263C23.0199 18.9426 23.5141 17.7461 23.7287 17.0698C23.9173 16.4846 24.1254 15.8278 24.5871 15.4962C24.9967 15.2035 25.582 15.1775 26.2453 15.171C27.2857 15.1645 28.3132 15.2491 28.7684 15.9123C28.9244 16.1399 29.009 16.4326 29.1 16.7447C29.139 16.8878 29.1845 17.0373 29.2366 17.1804C29.4967 17.9347 29.9584 18.4224 30.5371 18.5525C31.428 18.7606 32.2539 18.0323 32.4685 17.2259C32.657 16.5236 32.488 15.8148 32.2994 15.1515C31.6816 12.9861 30.9208 10.8467 30.0234 8.79178ZM31.5191 16.9723C31.4215 17.3234 31.0704 17.6746 30.7517 17.6031C30.4201 17.525 30.2185 17.0568 30.1535 16.8552C30.1079 16.7317 30.0754 16.6016 30.0299 16.4651C29.9194 16.0944 29.8088 15.7108 29.5682 15.3531C28.7554 14.1696 27.0516 14.1826 26.2323 14.1891C25.5885 14.1956 24.7041 14.2021 24.0148 14.7028C23.293 15.223 23.0199 16.0814 22.7988 16.7707C22.5257 17.6161 22.116 18.2729 21.7584 18.4289C21.6283 18.4874 21.5047 18.4809 21.3552 18.4094C20.965 18.2338 21.0496 17.3039 21.0951 16.8032C21.1016 16.7382 21.1081 16.6797 21.1146 16.6211C21.3422 13.8445 22.1745 11.1458 23.5141 8.81779C23.8523 8.23254 24.2749 7.56275 24.8602 7.08805C25.3479 6.68487 25.9071 6.47028 26.4209 6.47028C26.5054 6.47028 26.5964 6.47678 26.681 6.48979C27.2727 6.57433 28.1701 6.95149 29.139 9.18195C30.0169 11.1978 30.7712 13.2982 31.3695 15.4181C31.5126 15.9709 31.6426 16.5041 31.5191 16.9723ZM27.2597 9.7607C27.0191 9.46157 26.5509 9.09741 26.0242 9.05839C25.7121 9.03889 25.4324 9.13643 25.2113 9.34452C24.8212 9.71518 24.5481 10.424 24.392 11.4449C24.366 11.627 24.2879 12.1667 24.6521 12.5504C24.9642 12.8755 25.4064 12.882 25.621 12.8885C25.7251 12.8885 25.8291 12.895 25.9331 12.895C26.1933 12.895 26.4599 12.8885 26.72 12.8755C26.9151 12.8625 27.2727 12.843 27.5588 12.6089C27.9295 12.3033 28.0336 11.8026 27.858 11.1263C27.7409 10.6516 27.5849 10.1639 27.2597 9.7607ZM26.9346 11.8481C26.9086 11.8676 26.8175 11.8871 26.6615 11.8936C26.3233 11.9131 25.9787 11.9196 25.6405 11.9131C25.4454 11.9066 25.3804 11.8871 25.3544 11.8741C25.3479 11.8611 25.3284 11.7896 25.3544 11.5815C25.4649 10.8272 25.66 10.2549 25.8746 10.0468C25.8876 10.0338 25.9006 10.0208 25.9527 10.0273C26.1087 10.0403 26.3493 10.1899 26.4924 10.3655C26.707 10.6321 26.8175 10.9962 26.9086 11.3539C27.0126 11.7571 26.9411 11.8481 26.9346 11.8481ZM18.6045 35.5508C19.2483 33.9966 18.7085 32.0003 17.3755 30.9988C15.6978 29.7373 13.968 29.7503 11.9651 29.7633C11.575 29.7633 11.1718 29.7698 10.7621 29.7633C9.63714 29.7438 8.81129 30.0104 8.30407 30.5501C7.82937 31.0574 7.71232 31.7401 7.65379 32.4034L6.84094 42.1511C6.79542 42.7234 6.72389 43.5882 7.22461 44.245C7.72532 44.9018 8.56418 45.0579 9.312 45.1294C10.2809 45.2204 11.3344 45.318 12.4138 45.318C12.869 45.318 13.3307 45.2985 13.7924 45.2595C15.2295 45.1229 16.8552 44.8498 17.8827 43.2956C18.6435 42.1511 19.0337 40.4214 18.2078 39.1273C17.7266 38.373 17.2779 37.9113 16.7707 37.5667C17.5575 37.183 18.1363 36.6693 18.6045 35.5508ZM15.4702 37.0399C15.2816 37.105 15.158 37.2805 15.145 37.4756C15.1385 37.6707 15.2491 37.8593 15.4311 37.9373C16.2505 38.3145 16.7577 38.6656 17.382 39.6475C17.9737 40.5709 17.6291 41.904 17.0698 42.7494C16.3545 43.8288 15.2491 44.1345 13.7014 44.284C12.2448 44.4206 10.7361 44.2775 9.40304 44.154C8.86331 44.102 8.27156 44.0044 7.99844 43.6468C7.74483 43.3151 7.76434 42.7819 7.80986 42.2227L8.62271 32.4815C8.66823 31.9222 8.75276 31.493 9.01288 31.2199C9.312 30.9013 9.85824 30.7452 10.6451 30.7452C10.6776 30.7452 10.7101 30.7452 10.7426 30.7452C11.1653 30.7517 11.575 30.7517 11.9716 30.7452C13.8705 30.7322 15.3726 30.7192 16.7902 31.7857C17.7656 32.5205 18.1753 34.0421 17.7006 35.1801C17.2259 36.3181 16.7122 36.5912 15.4702 37.0399ZM14.5793 33.1643C14.2476 32.8456 13.8705 32.6896 13.5713 32.5855C12.4594 32.2018 11.6205 32.1238 11.0092 32.3579C10.45 32.5725 10.437 33.1122 10.424 33.4309C10.424 33.4894 10.4175 33.5414 10.4175 33.5999L10.3134 35.1021C10.3004 35.2647 10.2874 35.5183 10.385 35.7589C10.528 36.1165 10.8467 36.3246 11.3279 36.3896C11.692 36.4352 12.0562 36.4612 12.4268 36.4612C12.6219 36.4612 12.817 36.4547 13.0121 36.4417C13.4413 36.4092 13.9485 36.3376 14.3907 36.032C14.9044 35.6743 15.21 35.0501 15.184 34.4388C15.158 33.9706 14.9369 33.5024 14.5793 33.1643ZM13.8314 35.2387C13.5843 35.4142 13.2592 35.4532 12.9406 35.4793C12.4464 35.5118 11.9456 35.4988 11.4514 35.4337C11.3474 35.4207 11.3019 35.4012 11.2824 35.3947C11.2758 35.3492 11.2824 35.2387 11.2824 35.1801L11.3864 33.678C11.3929 33.6065 11.3929 33.5349 11.3929 33.4699C11.3929 33.4049 11.3994 33.3138 11.4059 33.2553C11.6465 33.1838 12.1862 33.1382 13.2462 33.5089C13.5518 33.613 13.7469 33.7235 13.8965 33.8666C14.0721 34.0356 14.1826 34.2697 14.1956 34.4908C14.2216 34.816 14.0265 35.0956 13.8314 35.2387ZM13.877 39.2184C13.0381 38.6526 11.9716 38.425 11.0873 38.6201C10.0728 38.8477 9.9948 39.7841 9.94928 40.2913C9.94278 40.3824 9.92327 40.4929 9.91026 40.6165C9.84523 41.0717 9.7607 41.6309 9.97529 42.0796C10.2809 42.7234 11.0743 42.7819 11.3734 42.8079C11.6335 42.8274 11.9131 42.8469 12.2057 42.8469C12.6479 42.8469 13.1096 42.8014 13.5518 42.6193C14.3127 42.3137 15.028 41.4878 14.8589 40.5514C14.7613 40.0507 14.4232 39.589 13.877 39.2184ZM13.1877 41.7154C12.6674 41.9235 12.0172 41.878 11.4449 41.8325C10.9702 41.7935 10.8727 41.7024 10.8532 41.6634C10.7686 41.4813 10.8337 41.0522 10.8727 40.7595C10.8922 40.6295 10.9117 40.4994 10.9182 40.3824C10.9702 39.7516 11.0613 39.628 11.2954 39.576C11.9196 39.4395 12.713 39.615 13.3307 40.0312C13.5128 40.1548 13.8314 40.4084 13.89 40.727C13.968 41.1302 13.5843 41.5529 13.1877 41.7154ZM44.7197 41.8195C45.344 41.0847 45.6496 40.3108 45.6106 39.563C45.5586 38.5616 44.7848 37.7032 43.8874 37.6447C43.2891 37.6057 42.6713 37.8918 42.1056 38.4705C41.9625 38.6136 41.8325 38.7632 41.7089 38.9127C41.4943 39.1663 41.2863 39.4004 41.0522 39.576C40.4799 40.0052 39.6736 40.0767 39.0298 39.7646C37.9828 39.2509 37.7877 38.2104 37.7682 37.6317C37.7162 36.4352 38.3015 35.2256 39.1858 34.7054C40.2393 34.0747 41.6829 34.1982 42.6128 34.998C42.7299 35.0956 42.8469 35.2061 42.9705 35.3297C43.4907 35.8239 44.1345 36.4417 45.0058 36.2921C45.7212 36.1685 46.2869 35.5053 46.3519 34.7054C46.404 34.1267 46.2154 33.5154 45.7992 32.8976C44.5637 31.0639 42.0016 30.16 39.563 30.6997C38.256 30.9858 37.0464 31.6556 36.058 32.6245C35.0566 33.613 34.3868 34.816 34.1202 36.1165C33.5609 38.8347 34.868 41.774 37.2285 43.094C38.1259 43.5947 39.1403 43.8353 40.1483 43.8353C41.878 43.8418 43.6012 43.133 44.7197 41.8195ZM41.0391 42.7884C39.8621 42.9835 38.6786 42.7884 37.7097 42.2487C36.7473 41.7089 35.9475 40.805 35.4663 39.7126C34.985 38.6266 34.8485 37.4171 35.0761 36.3181C35.5378 34.0812 37.4691 32.1628 39.7711 31.6556C40.1743 31.5646 40.5839 31.5256 40.9871 31.5256C42.6258 31.5256 44.167 32.2409 44.9798 33.4504C45.1814 33.7495 45.409 34.1917 45.37 34.6274C45.3375 34.972 45.0969 35.2907 44.8303 35.3362C44.4726 35.3947 44.1215 35.0956 43.6338 34.6274C43.5037 34.5038 43.3737 34.3803 43.2371 34.2632C41.9951 33.1968 40.0767 33.0342 38.6721 33.8731C37.4756 34.5884 36.7148 36.1165 36.7798 37.6772C36.8383 39.0233 37.4951 40.1092 38.5876 40.6425C39.55 41.1107 40.766 41.0001 41.6244 40.3564C41.943 40.1157 42.1966 39.8296 42.4372 39.55C42.5608 39.4069 42.6713 39.2769 42.7949 39.1533C43.0485 38.8997 43.4257 38.5941 43.8158 38.6201C44.271 38.6526 44.6092 39.1663 44.6287 39.615C44.6612 40.2328 44.284 40.8115 43.9654 41.1887C43.2631 42.0211 42.2227 42.5933 41.0391 42.7884Z" fill="#5B712E"/>
</svg>
