<svg width="73" height="50" viewBox="0 0 73 50" fill="none" xmlns="http://www.w3.org/2000/svg">
<path d="M14.9481 13.7623C14.9481 14.3745 15.4461 14.8726 16.0584 14.8726H18.0816C18.6939 14.8726 19.1919 14.3745 19.1919 13.7623V6.0363H33.9256V13.7623C33.9256 14.3745 34.4236 14.8726 35.0359 14.8726H37.0591C37.6714 14.8726 38.1696 14.3745 38.1696 13.7623V6.0363H53.7384V13.7623C53.7384 14.3745 54.2366 14.8726 54.8488 14.8726H56.8721C57.4842 14.8726 57.9824 14.3745 57.9824 13.7623V6.0363H68.3773V4.90682H63.2411C63.3539 4.67496 63.4192 4.41596 63.4192 4.14144C63.4192 3.68102 63.2396 3.26279 62.9489 2.9492C63.2397 2.63546 63.4192 2.21739 63.4192 1.75697C63.4192 0.788127 62.6309 0 61.662 0H50.059C49.0901 0 48.302 0.788127 48.302 1.75697C48.302 2.21739 48.4815 2.63562 48.7721 2.9492C48.4813 3.26279 48.302 3.68102 48.302 4.14144C48.302 4.41596 48.3671 4.67496 48.4799 4.90682H43.4283C43.5411 4.67496 43.6062 4.41596 43.6062 4.14144C43.6062 3.68102 43.4267 3.26279 43.136 2.9492C43.4269 2.63546 43.6062 2.21739 43.6062 1.75697C43.6062 0.788127 42.818 0 41.8494 0H30.2461C29.2773 0 28.4891 0.788127 28.4891 1.75697C28.4891 2.21739 28.6686 2.63562 28.9593 2.9492C28.6686 3.26279 28.4891 3.68102 28.4891 4.14144C28.4891 4.41596 28.5542 4.67496 28.667 4.90682H24.4508C24.5636 4.67496 24.6287 4.41596 24.6287 4.14144C24.6287 3.68102 24.4492 3.26279 24.1585 2.9492C24.4494 2.63546 24.6287 2.21739 24.6287 1.75697C24.6287 0.788127 23.8404 0 22.8717 0H11.2685C10.2996 0 9.51148 0.788127 9.51148 1.75697C9.51148 2.21739 9.69094 2.63562 9.98163 2.9492C9.69094 3.26279 9.51148 3.68102 9.51148 4.14144C9.51148 4.41596 9.57658 4.67496 9.68937 4.90682H3.71802V6.0363H14.9481V13.7623ZM56.8533 13.7431H54.8684V6.0363H56.8533V13.7431ZM50.0591 1.12948H61.6622C62.0083 1.12948 62.2897 1.41107 62.2897 1.75697C62.2897 2.10303 62.0083 2.38446 61.6622 2.38446H50.0591C49.7131 2.38446 49.4316 2.10303 49.4316 1.75697C49.4316 1.41107 49.7131 1.12948 50.0591 1.12948ZM50.0591 3.51395H61.6622C62.0083 3.51395 62.2897 3.79553 62.2897 4.14144C62.2897 4.48734 62.0083 4.76893 61.6622 4.76893H50.0591C49.7131 4.76893 49.4316 4.48734 49.4316 4.14144C49.4316 3.79553 49.7131 3.51395 50.0591 3.51395ZM37.0403 13.7431H35.0552V6.0363H37.0403V13.7431ZM30.2461 1.12948H41.8494C42.1953 1.12948 42.4768 1.41107 42.4768 1.75697C42.4768 2.10303 42.1953 2.38446 41.8494 2.38446H30.2461C29.9001 2.38446 29.6186 2.10303 29.6186 1.75697C29.6186 1.41107 29.9002 1.12948 30.2461 1.12948ZM30.2461 3.51395H41.8494C42.1953 3.51395 42.4768 3.79553 42.4768 4.14144C42.4768 4.48734 42.1953 4.76893 41.8494 4.76893H30.2461C29.9001 4.76893 29.6186 4.48734 29.6186 4.14144C29.6186 3.79553 29.9002 3.51395 30.2461 3.51395ZM18.0626 13.7431H16.0775V6.0363H18.0626V13.7431ZM11.2685 1.12948H22.8715C23.2174 1.12948 23.499 1.41107 23.499 1.75697C23.499 2.10303 23.2174 2.38446 22.8715 2.38446H11.2685C10.9224 2.38446 10.641 2.10303 10.641 1.75697C10.641 1.41107 10.9225 1.12948 11.2685 1.12948ZM11.2685 4.76893C10.9224 4.76893 10.641 4.48734 10.641 4.14144C10.641 3.79538 10.9225 3.51395 11.2685 3.51395H22.8715C23.2174 3.51395 23.499 3.79553 23.499 4.14144C23.499 4.48734 23.2174 4.76893 22.8715 4.76893H11.2685Z" fill="#929292"/>
<path d="M70.46 19.8809H49.2613C48.281 19.8809 47.4835 20.6784 47.4835 21.6587V23.6573C47.2449 23.5383 46.9771 23.4696 46.6931 23.4696H25.4946C25.2303 23.4696 24.9801 23.5292 24.7543 23.6331V21.6587C24.7543 20.6782 23.9568 19.8809 22.9765 19.8809H1.77799C0.79754 19.8809 0 20.6784 0 21.6587V48.2224C0 49.2029 0.79754 50.0004 1.77799 50.0004H22.9765C23.468 50.0004 23.9133 49.7999 24.2356 49.4763C24.5578 49.7999 25.0031 50.0004 25.4946 50.0004H46.6931C47.1981 50.0004 47.6533 49.7878 47.9773 49.4488C48.3012 49.7877 48.7566 50.0004 49.2614 50.0004H70.46C71.4404 50.0004 72.2379 49.2029 72.2379 48.2224V21.6589C72.2379 20.6784 71.4404 19.8809 70.46 19.8809ZM23.625 48.2224C23.625 48.5799 23.3342 48.8709 22.9765 48.8709H1.77799C1.42032 48.8709 1.12948 48.5801 1.12948 48.2224V28.3641H23.625V48.2224ZM23.625 27.2346H1.12948V21.6589C1.12948 21.3013 1.42032 21.0103 1.77799 21.0103H22.9765C23.334 21.0103 23.625 21.3012 23.625 21.6589V27.2346ZM47.3418 48.2224C47.3418 48.5799 47.0508 48.8709 46.6931 48.8709H25.4946C25.137 48.8709 24.8461 48.5801 24.8461 48.2224V25.2476C24.8461 24.8901 25.137 24.5991 25.4946 24.5991H46.6931C47.0506 24.5991 47.3418 24.89 47.3418 25.2476V48.2224ZM71.1085 48.2224C71.1085 48.5799 70.8176 48.8709 70.46 48.8709H49.2613C48.9038 48.8709 48.6129 48.5801 48.6129 48.2224V28.3641H71.1083V48.2224H71.1085ZM71.1085 27.2346H48.6131V21.6589C48.6131 21.3013 48.9039 21.0103 49.2614 21.0103H70.46C70.8175 21.0103 71.1085 21.3012 71.1085 21.6589V27.2346Z" fill="#929292"/>
<path d="M42.9282 27.2344H29.2596C28.2791 27.2344 27.4816 28.0319 27.4816 29.0124V44.4573C27.4816 45.4377 28.2791 46.2353 29.2596 46.2353H42.9282C43.9086 46.2353 44.7062 45.4377 44.7062 44.4573V29.0124C44.7062 28.0319 43.9086 27.2344 42.9282 27.2344ZM43.5769 44.4573C43.5769 44.8148 43.2859 45.1058 42.9282 45.1058H29.2596C28.902 45.1058 28.611 44.8149 28.611 44.4573V29.0124C28.611 28.6549 28.9019 28.3639 29.2596 28.3639H42.9282C43.2857 28.3639 43.5769 28.6547 43.5769 29.0124V44.4573Z" fill="#929292"/>
<path d="M38.0079 30.4336H34.18V31.5631H38.0079V30.4336Z" fill="#929292"/>
</svg>
