<svg width="51" height="50" viewBox="0 0 51 50" fill="none" xmlns="http://www.w3.org/2000/svg">
<path d="M28.5698 18.3758C29.1065 18.3758 29.5813 17.9423 29.602 17.4056L30.0355 9.74708C30.0767 9.16907 29.6226 8.69429 29.0652 8.653C28.4872 8.61171 28.0124 9.06586 27.9712 9.62322L27.5377 17.2817C27.4964 17.8597 27.9505 18.3345 28.5079 18.3758C28.5285 18.3758 28.5492 18.3758 28.5698 18.3758Z" fill="#5B712E" fill-opacity="0.7"/>
<path d="M34.7214 15.5892C35.2581 15.5892 35.7329 15.1557 35.7535 14.619L36.2077 6.58887C36.249 6.01087 35.7948 5.53608 35.2375 5.4948C34.6801 5.45351 34.1847 5.90766 34.1434 6.46501L33.6892 14.4951C33.648 15.0731 34.1021 15.5479 34.6595 15.5892C34.6801 15.5892 34.7008 15.5892 34.7214 15.5892Z" fill="#5B712E" fill-opacity="0.7"/>
<path d="M49.7494 32.5568C48.7792 31.3595 47.1897 30.9673 45.786 31.5659L33.008 36.9331C32.4713 37.1601 32.2236 37.7588 32.4507 38.2955C32.6777 38.8322 33.2764 39.0799 33.8131 38.8529L46.5911 33.4857C47.1278 33.2586 47.7677 33.4238 48.1393 33.8779C48.3664 34.1669 48.4696 34.5385 48.4077 34.9101C48.3457 35.2816 48.1393 35.6119 47.809 35.8184C42.2354 39.4515 29.54 46.6352 28.9414 46.9862C28.9207 47.0068 28.9001 47.0068 28.8794 47.0275C27.3312 47.9358 25.6179 48.1835 23.4297 47.8119C23.3059 47.7913 21.1177 47.5229 13.2528 46.5527L9.7641 46.0779V32.1026C10.3421 32.0613 10.8375 32.0407 11.0646 32.0407H11.1885C16.0189 31.7311 20.6223 32.66 25.494 33.6508C26.1133 33.7747 26.7532 33.8986 27.3725 34.0224C28.0331 34.1463 28.5285 34.7449 28.5285 35.4261C28.5285 35.4674 28.5285 35.5087 28.5079 35.5913C28.4666 35.9835 28.2602 36.2725 28.095 36.417C27.8267 36.6854 27.4757 36.8299 27.0835 36.8299H17.3607C16.7827 36.8299 16.3286 37.284 16.3286 37.862C16.3286 38.44 16.7827 38.8942 17.3607 38.8942H27.1248C28.0537 38.8942 28.9414 38.5226 29.602 37.862C30.1593 37.284 30.5102 36.5821 30.5928 35.8596C30.6135 35.7151 30.6341 35.55 30.6341 35.4055C30.6341 33.7334 29.4368 32.2884 27.806 31.9788C27.1867 31.8549 26.5674 31.7311 25.9482 31.6072C21.159 30.637 16.1841 29.6255 11.1059 29.9558H11.0027C10.7756 29.9764 10.2802 29.9971 9.74346 30.0177C9.6196 29.5842 9.24803 29.2539 8.7526 29.2539H1.03215C0.454144 29.2539 0 29.7081 0 30.2861V47.7087C0 48.2867 0.454144 48.7408 1.03215 48.7408H8.73196C9.14481 48.7408 9.49574 48.4931 9.66089 48.1422L13.005 48.555C17.1543 49.0711 22.8311 49.7523 23.0788 49.7936C23.8426 49.9381 24.5857 50 25.2876 50C27.0009 50 28.5285 49.5872 29.9116 48.7821C29.9322 48.7821 29.9322 48.7615 29.9529 48.7615C30.0767 48.6789 43.2056 41.2681 48.9444 37.5317C49.7494 37.0156 50.3068 36.1693 50.4513 35.2197C50.5958 34.2701 50.3481 33.2999 49.7494 32.5568ZM7.69981 46.6972H2.06429V31.3595H7.69981V46.6972Z" fill="#5B712E" fill-opacity="0.7"/>
<path d="M24.1729 19.3865C24.6476 19.0563 24.7509 18.3957 24.4206 17.9415C22.5627 15.3405 22.7072 11.9345 24.7715 9.47795C28.9001 4.58557 35.4233 2.83093 40.5221 2.23228C40.7285 5.16358 40.3156 8.4458 39.366 11.6248C39.0151 12.7808 35.7535 22.8752 28.7762 20.7903C28.4872 20.6871 26.65 19.8613 26.2578 19.6343C26.0307 19.4691 25.7417 19.3865 25.4527 19.4278C24.1316 19.6549 22.7898 24.3821 22.6866 26.6116C22.6659 27.1896 23.0994 27.6644 23.6774 27.685C23.6981 27.685 23.7187 27.685 23.7187 27.685C24.2761 27.685 24.7302 27.2515 24.7509 26.6941C24.8334 24.7537 25.5559 22.8339 26.0101 21.8018C26.1546 21.8637 26.3197 21.9463 26.5055 22.0288C26.8358 22.1733 27.8886 22.6688 28.1569 22.7307C34.9485 24.7537 39.5105 18.3131 41.3478 12.1822C42.4831 8.38387 42.896 4.42043 42.4831 0.911135C42.3799 0.374419 41.8432 -0.0384391 41.2858 0.00284676C33.2764 0.745992 27.0216 3.55343 23.182 8.07423C20.4778 11.2739 20.292 15.6915 22.7279 19.0769C23.0581 19.6136 23.6981 19.7375 24.1729 19.3865Z" fill="#5B712E" fill-opacity="0.7"/>
</svg>
