<svg width="20" height="20" viewBox="0 0 20 20" fill="none" xmlns="http://www.w3.org/2000/svg">
<path d="M19.4999 10.0609C19.4999 14.6299 16.3154 18.4482 12.0624 19.3962V13.4692H13.8922H14.3217L14.3865 13.0446L14.83 10.1362L14.9178 9.56085H14.3358H12.0624V8.17241C12.0624 7.8467 12.1426 7.58655 12.2906 7.41438C12.4265 7.25627 12.6805 7.10122 13.1918 7.10122H14.4531H14.9531V6.60122V4.12657V3.70506L14.5377 3.63377L14.4531 4.12657L14.5376 3.63376L14.5375 3.63374L14.5371 3.63369L14.5362 3.63353L14.5331 3.633L14.522 3.63114L14.4811 3.62446C14.4458 3.61879 14.3948 3.61081 14.3304 3.60128C14.2017 3.58224 14.0192 3.55698 13.8018 3.53173C13.369 3.4815 12.7883 3.43022 12.2144 3.43022C10.97 3.43022 9.88667 3.81141 9.11417 4.58945C8.34155 5.3676 7.93738 6.48472 7.93738 7.84422V9.56085H5.89706H5.39706V10.0609V12.9692V13.4692H5.89706H7.93738V19.3962C3.68432 18.4482 0.499878 14.6299 0.499878 10.0609C0.499878 4.77632 4.75468 0.5 9.99988 0.5C15.2451 0.5 19.4999 4.77632 19.4999 10.0609Z" stroke="#333333"/>
</svg>
