<svg width="20" height="20" viewBox="0 0 20 20" fill="none" xmlns="http://www.w3.org/2000/svg">
<path fill-rule="evenodd" clip-rule="evenodd" d="M10.3464 7.2213C10.1277 7.08819 9.90904 6.82196 9.69035 6.60011C9.59663 6.51137 9.5029 6.42263 9.40918 6.33389C9.22173 6.11204 9.00304 5.97892 8.78435 5.80144C8.65939 5.7127 8.50318 5.57959 8.37821 5.49085C8.25325 5.40211 8.12828 5.35774 8.00332 5.40211C7.81587 5.49085 7.65966 5.7127 7.65966 6.02329C7.65966 6.51137 7.65966 6.99945 7.62842 7.48752C7.62842 7.9756 7.59718 8.50804 7.59718 8.99612C7.59718 9.88353 7.59718 10.7709 7.62842 11.614C7.62842 12.5014 7.65966 13.3444 7.65966 14.2318C7.65966 14.4981 7.75339 14.7199 7.90959 14.8087C7.97208 14.853 8.03456 14.8974 8.12828 14.8974C8.22201 14.8974 8.31573 14.853 8.40946 14.7643C9.8778 13.2557 11.4399 11.8802 13.0332 10.6378C13.1581 10.5491 13.2519 10.3272 13.2831 10.1054C13.2831 9.88353 13.2206 9.66168 13.0957 9.52856C12.0647 8.59678 11.2212 7.84249 10.3464 7.2213ZM8.5969 12.9895C8.5969 12.5458 8.5969 12.0577 8.5969 11.614C8.5969 10.7266 8.56566 9.88353 8.56566 8.99612C8.56566 8.50804 8.56566 8.01997 8.5969 7.53189C8.5969 7.39878 8.5969 7.26567 8.5969 7.08819C8.69063 7.17693 8.81559 7.26567 8.90932 7.35441C9.00304 7.44315 9.06552 7.53189 9.15925 7.62063C9.40918 7.88686 9.65911 8.15308 9.94028 8.33056C10.5964 8.81864 11.2212 9.30671 11.9397 9.97227C10.7838 10.9484 9.65911 11.9689 8.5969 12.9895ZM20 8.28619C20 7.79812 20 7.31004 20 6.86633C20 5.40211 19.9688 3.98225 19.4689 2.65114C19.3752 2.38491 19.2502 2.07432 19.094 1.8081C18.6566 1.09817 18.0006 0.831947 17.4382 0.698835C16.2198 0.388242 14.8452 0.299501 13.5955 0.25513L9.25297 0.0332779C8.53442 -0.0110926 7.84711 -0.0110926 6.94111 0.0332779C6.19132 0.0776484 5.1916 0.122019 4.2856 0.299501C4.19187 0.299501 4.06691 0.343871 3.94194 0.343871C2.97346 0.521353 1.69256 0.743206 0.755323 2.34054C0.724082 2.38491 0.69284 2.42928 0.69284 2.47366C0.0992544 3.53855 -0.0881938 6.51137 0.0367717 12.1908C0.0992544 14.1431 0.255461 16.3616 1.28643 17.8702C2.41111 19.5563 4.12939 19.8225 5.66022 19.9113C7.19104 19.9556 8.5969 20 9.97152 20C12.3146 20 14.4703 19.9113 16.6572 19.7781C16.9696 19.7781 17.3132 19.7338 17.6569 19.5563C18.3442 19.2457 18.9378 18.4027 19.3127 17.249C19.5939 16.3173 19.7188 15.2967 19.8126 14.3206C20 12.3239 20 10.2829 20 8.28619ZM19.0628 10.7266C18.969 10.5935 18.8441 10.4603 18.8128 10.416C18.6254 10.1941 18.3442 10.1498 18.1568 10.416C18.0006 10.6378 17.9693 11.1259 18.1568 11.3478C18.3755 11.5696 18.7191 12.0133 19.0315 12.3683C19.0315 12.7232 19.0003 13.0338 18.969 13.3888C18.5941 12.9895 18.2505 12.5901 17.8756 12.1908C17.6881 11.9689 17.407 11.9246 17.2195 12.1908C17.0633 12.4126 17.0321 12.9007 17.2195 13.1226C17.6881 13.6106 18.1255 14.1431 18.5941 14.6312C18.6566 14.7199 18.7503 14.7643 18.8441 14.8087C18.8128 15.208 18.7503 15.6517 18.6566 16.051C18.1568 15.4742 17.6569 14.853 17.1883 14.2318C16.7509 13.655 16.0948 14.5868 16.5322 15.1636C17.0321 15.8292 17.5632 16.4947 18.1255 17.1159C18.188 17.1603 18.2505 17.2047 18.2817 17.249C18.1255 17.604 17.9068 17.9146 17.6881 18.0921C17.6881 17.959 17.6257 17.8702 17.5319 17.7371C16.8759 16.9828 16.2198 16.2729 15.5325 15.5186C15.0639 14.9861 14.4078 15.9179 14.8764 16.4504C15.47 17.1159 16.0636 17.7815 16.6572 18.447C16.6259 18.447 16.6259 18.447 16.5947 18.447C16.2198 18.4914 15.8449 18.4914 15.47 18.4914C15.4388 18.4027 15.3763 18.3139 15.3138 18.2252C14.6265 17.5153 13.9392 16.761 13.2831 15.9623C12.8145 15.4298 12.1584 16.3616 12.627 16.8941C13.0957 17.4709 13.5955 18.0033 14.0954 18.5358C13.8142 18.5358 13.5018 18.5801 13.2206 18.5801C13.1894 18.4914 13.1581 18.3583 13.0957 18.2696L11.3461 15.9623C10.9088 15.3855 10.2527 16.3172 10.6901 16.8941L11.971 18.6245C11.7523 18.6245 11.5336 18.6245 11.3461 18.6245C11.3149 18.4914 11.2524 18.3583 11.1587 18.2252C10.6588 17.7371 10.1902 17.1603 9.72159 16.5391C9.28421 15.9623 8.62815 16.8941 9.06552 17.4709C9.3467 17.8702 9.65911 18.2696 10.0028 18.6245C9.65911 18.6245 9.31546 18.6245 8.94056 18.6245C8.9718 18.3583 8.87808 18.1364 8.72187 18.0033C8.53442 17.8258 8.34697 17.6484 8.15953 17.5153C7.94084 17.3378 7.62842 17.4709 7.5347 17.7371C7.40973 18.0477 7.50346 18.4027 7.69091 18.6245C7.03484 18.6245 6.37877 18.5801 5.66022 18.5801C4.31684 18.5358 2.81725 18.3139 1.94249 16.9828C1.13022 15.7848 0.974012 13.8769 0.942771 12.1464C0.817806 6.0233 1.06774 3.93788 1.34891 3.31669L1.38015 3.27232C2.0987 1.98558 3.12967 1.8081 4.03567 1.67499C4.16063 1.67499 4.2856 1.63062 4.37932 1.63062C5.25408 1.45313 6.22256 1.40876 6.94111 1.36439C7.81587 1.32002 8.53442 1.32002 9.22173 1.36439L13.5643 1.58625C14.7827 1.63062 16.1261 1.71936 17.282 1.98558C17.6881 2.07432 18.1568 2.2518 18.4067 2.65114C18.5004 2.78425 18.5629 3.0061 18.6566 3.22795C19.0628 4.33722 19.094 5.53522 19.094 6.86633C19.094 7.35441 19.094 7.84249 19.094 8.28619C19.0628 9.08486 19.0628 9.88353 19.0628 10.7266Z" fill="#4A4A4A"/>
</svg>
