<svg width="84" height="63" viewBox="0 0 84 63" fill="none" xmlns="http://www.w3.org/2000/svg">
<g clip-path="url(#clip0_2_5)">
<path d="M79.2683 25.827C79.2683 36.0732 70.9728 44.4075 60.7777 44.4075C55.1299 44.4075 50.0638 41.8493 46.6695 37.8268C46.3741 37.4773 46.4536 36.9455 46.8434 36.7059L49.4521 35.0999C49.7565 34.9131 50.1493 34.9719 50.3892 35.2385C52.9949 38.1387 56.7836 39.9466 60.9816 39.8863C68.3805 39.7793 74.4721 33.8148 74.7599 26.3845C75.0703 18.3786 68.6774 11.7663 60.7777 11.7663C57.2244 11.7663 53.9769 13.1041 51.5061 15.3052C50.8105 15.9229 50.1778 16.6099 49.6171 17.3541C48.5211 18.5443 47.4236 19.7345 46.3276 20.9247C45.8779 21.4113 45.4326 21.9009 44.9798 22.3845C44.5585 22.8365 44.5675 23.0007 45.0847 23.3578C45.6695 23.7615 46.2542 24.1653 46.8389 24.5706C48.5676 25.7638 50.2992 26.9585 52.0294 28.1517C53.0294 28.8417 52.9994 29.7983 51.9469 30.404C50.773 31.0789 49.5991 31.7539 48.4236 32.4273C47.1223 33.1761 45.8194 33.9248 44.518 34.6706C41.0547 36.6622 37.5913 38.6509 34.1265 40.6396C32.7397 41.4365 31.3544 42.232 29.9675 43.0275C29.0755 43.3966 28.1474 43.6949 27.1924 43.9209C25.837 44.2388 24.4262 44.4075 22.9749 44.4075C12.7798 44.4075 4.48431 36.0732 4.48431 25.827C4.48431 15.5809 12.7798 7.24658 22.9749 7.24658C28.8161 7.24658 34.0336 9.9825 37.4249 14.2446C37.7008 14.5926 37.6063 15.1063 37.2285 15.3383L34.6303 16.9368C34.3169 17.1296 33.9136 17.0603 33.6767 16.7786C31.0395 13.6329 27.0559 11.6623 22.6271 11.7708C15.2821 11.9501 9.276 17.8965 8.99114 25.2726C8.68379 33.277 15.0752 39.8878 22.9734 39.8878C26.5357 39.8878 29.7921 38.5424 32.2644 36.3323C32.9421 35.7282 33.5613 35.0578 34.1085 34.3316C35.6828 32.6262 37.2555 30.9192 38.8298 29.2138C39.1746 28.8402 39.1626 28.6488 38.7323 28.349C38.1266 27.9257 37.5179 27.5069 36.9107 27.0865C36.326 26.6843 35.7427 26.282 35.158 25.8783C34.0126 25.0873 32.8656 24.2964 31.7187 23.5039C30.7232 22.8169 30.7531 21.8572 31.8026 21.2516C32.9766 20.5752 34.1505 19.9017 35.3259 19.2268C36.6288 18.4795 37.9317 17.7338 39.2346 16.985C39.4205 16.8796 39.6064 16.7726 39.7923 16.6656C43.0652 14.7854 46.3366 12.9067 49.6096 11.0266C51.0069 10.2236 52.4027 9.42206 53.8 8.61906C54.6831 8.25598 55.6007 7.95919 56.5467 7.73622C57.9051 7.41682 59.3219 7.24658 60.7762 7.24658C70.9728 7.24658 79.2683 15.5809 79.2683 25.827Z" fill="#19D875"/>
<path d="M45.3231 9.57873C47.9554 9.57873 50.0893 7.43446 50.0893 4.78937C50.0893 2.14427 47.9554 0 45.3231 0C42.6908 0 40.5569 2.14427 40.5569 4.78937C40.5569 7.43446 42.6908 9.57873 45.3231 9.57873Z" fill="#19D875"/>
<path d="M0 63V55.6645H5.65227C6.4289 55.6645 6.99563 55.8197 7.35096 56.1316C7.70628 56.4434 7.8832 56.8185 7.8832 57.2585V57.6321C7.8832 57.9726 7.81123 58.2528 7.6658 58.4728C7.52187 58.6927 7.36595 58.8494 7.20103 58.9398C7.56385 59.0558 7.85321 59.2577 8.06911 59.5439C8.28351 59.8302 8.39145 60.2068 8.39145 60.6708V60.8953C8.39145 61.1439 8.36297 61.394 8.3045 61.6426C8.24602 61.8911 8.13658 62.1186 7.97615 62.322C7.81573 62.5254 7.58784 62.6896 7.29398 62.8147C7.00012 62.9397 6.61781 63.0015 6.14704 63.0015H0V63ZM2.41683 58.4908H4.89514C5.10954 58.4908 5.25796 58.4456 5.34192 58.3537C5.42438 58.2618 5.46636 58.1383 5.46636 57.9801V57.8551C5.46636 57.6803 5.42438 57.5568 5.34192 57.4814C5.25946 57.4061 5.07355 57.3699 4.78419 57.3699H2.41683V58.4908ZM2.41683 61.293H5.40339C5.61779 61.293 5.76622 61.2539 5.85018 61.174C5.93264 61.0957 5.97462 60.9691 5.97462 60.7944V60.5699C5.97462 60.4117 5.92064 60.2897 5.8142 60.2023C5.70625 60.1149 5.52034 60.0712 5.25647 60.0712H2.41683V61.293Z" fill="#19D875"/>
<path d="M10.1261 63V55.6766H12.5055V63H10.1261Z" fill="#19D875"/>
<path d="M16.6959 63V57.3579H13.7454V55.6645H22.0873V57.3579H19.1008V63H16.6959Z" fill="#19D875"/>
<path d="M25.7186 63C24.834 63 24.1938 62.8056 23.798 62.4139C23.4007 62.0237 23.2028 61.3925 23.2028 60.5202V58.2408C23.2028 57.3443 23.4217 56.6905 23.8595 56.2792C24.2973 55.8679 24.9165 55.663 25.7186 55.663H29.3379C29.9076 55.663 30.3439 55.6947 30.6452 55.7564C30.9466 55.8182 31.098 55.883 31.098 55.9493L30.7142 57.5056C30.5073 57.4799 30.104 57.4543 29.5058 57.4242C28.9061 57.3956 28.1519 57.3805 27.2434 57.3805H26.6107C26.2224 57.3805 25.96 57.4528 25.8236 57.599C25.6871 57.7436 25.6197 57.9666 25.6197 58.2649V60.3951C25.6197 60.6769 25.6796 60.8953 25.7996 61.049C25.9195 61.2027 26.1894 61.2795 26.6122 61.2795H27.1204C28.3019 61.2795 29.2029 61.2659 29.8221 61.2358C30.4413 61.2072 30.8131 61.1755 30.9376 61.1424L31.6932 62.4878C31.6932 62.5299 31.6078 62.5917 31.4383 62.6746C31.2689 62.7574 30.9841 62.8328 30.5838 62.8991C30.1835 62.9653 29.6272 62.9985 28.9166 62.9985H25.7186V63Z" fill="#19D875"/>
<path d="M35.5599 63V59.9733L31.9406 55.6766H34.9272L36.1536 57.3835L36.7233 58.2935H36.8477L37.4175 57.3835L38.6199 55.6766H41.6065L41.1237 56.4238L37.9512 60.023V63H35.5599Z" fill="#19D875"/>
<path d="M44.4221 63C43.5375 63 42.8973 62.8056 42.5015 62.4139C42.1042 62.0237 41.9063 61.3925 41.9063 60.5202V58.2408C41.9063 57.3443 42.1252 56.6905 42.563 56.2792C43.0008 55.8679 43.62 55.663 44.4221 55.663H48.0413C48.6111 55.663 49.0474 55.6947 49.3487 55.7564C49.6501 55.8182 49.8015 55.883 49.8015 55.9493L49.4177 57.5056C49.2108 57.4799 48.809 57.4543 48.2093 57.4242C47.6096 57.3956 46.8554 57.3805 45.9469 57.3805H45.3142C44.9259 57.3805 44.6635 57.4528 44.527 57.599C44.3906 57.7436 44.3216 57.9666 44.3216 58.2649V60.3951C44.3216 60.6769 44.3816 60.8953 44.5016 61.049C44.6215 61.2027 44.8914 61.2795 45.3127 61.2795H45.8209C47.0024 61.2795 47.9034 61.2659 48.5226 61.2358C49.1418 61.2072 49.5151 61.1755 49.6381 61.1424L50.3937 62.4878C50.3937 62.5299 50.3083 62.5917 50.1388 62.6746C49.9694 62.7574 49.6846 62.8328 49.2843 62.8991C48.8839 62.9653 48.3277 62.9985 47.6171 62.9985H44.4221V63Z" fill="#19D875"/>
<path d="M51.6366 63L51.761 62.0041V55.6766H54.1404V61.2946H58.5288L59.2724 62.8644C59.2724 62.8975 59.1615 62.9292 58.9381 62.9578C58.7147 62.9864 58.3309 63.0015 57.7851 63.0015H51.6366V63Z" fill="#19D875"/>
<path d="M60.2634 63V55.6766H62.6428V63H60.2634Z" fill="#19D875"/>
<path d="M64.7508 63V56.6724L64.6263 55.6766H66.9067L70.4016 59.2381L70.8843 59.7865H71.0208V55.6766H73.4001V63H71.3296L67.7343 59.4008L67.2516 58.8148H67.1271V63H64.7508V63Z" fill="#19D875"/>
<path d="M77.7765 63C76.8919 63 76.2517 62.8056 75.8559 62.4139C75.4586 62.0237 75.2607 61.3925 75.2607 60.5202V58.2408C75.2607 57.3443 75.4796 56.6905 75.9174 56.2792C76.3552 55.8679 76.9744 55.663 77.7765 55.663H81.916C82.4857 55.663 82.922 55.6947 83.2234 55.7564C83.5247 55.8182 83.6762 55.883 83.6762 55.9493L83.2923 57.5056C83.0854 57.4799 82.6821 57.4543 82.0839 57.4242C81.4842 57.3956 80.7301 57.3805 79.8215 57.3805H78.6686C78.2803 57.3805 78.0179 57.4528 77.8814 57.599C77.745 57.7436 77.6775 57.9666 77.6775 58.2649V60.3951C77.6775 60.6769 77.7375 60.8953 77.8575 61.049C77.9774 61.2027 78.2473 61.2795 78.6701 61.2795H79.6746C80.0539 61.2795 80.3972 61.278 80.7031 61.2735C81.0089 61.2689 81.2773 61.2629 81.5082 61.2554V60.3093L81.0119 60.3213L79.3882 60.4464V58.7274H83.8756V62.4757L84 62.7378C84 62.8041 83.8261 62.8644 83.4797 62.9186C83.1334 62.9729 82.5457 63 81.7196 63H77.7765V63Z" fill="#19D875"/>
</g>
<defs>
<clipPath id="clip0_2_5">
<rect width="84" height="63" fill="white"/>
</clipPath>
</defs>
</svg>
