<svg width="36" height="36" viewBox="0 0 36 36" fill="none" xmlns="http://www.w3.org/2000/svg">
<g clip-path="url(#clip0_11_2782)">
<path fill-rule="evenodd" clip-rule="evenodd" d="M7.88852 35.7612C7.26753 35.3776 7.01099 34.6301 7.27312 33.9682L11.7382 22.6929L4.8257 23.2452C4.18145 23.2967 3.57046 22.9633 3.28788 22.406C3.00529 21.8488 3.10927 21.1824 3.54958 20.7288L23.2047 0.478436C23.7013 -0.0331879 24.5007 -0.14846 25.1324 0.200478C25.7641 0.549412 26.0607 1.27013 25.8477 1.93837L22.2164 13.3276L29.6132 12.7552C30.2663 12.7047 30.8831 13.0494 31.1589 13.6189C31.4347 14.1885 31.3112 14.8625 30.8493 15.3078L9.84663 35.5578C9.32581 36.06 8.5095 36.1447 7.88852 35.7612ZM25.6427 16.0722L20.1724 16.4955C19.6557 16.5355 19.1518 16.3277 18.8268 15.9405C18.5019 15.5534 18.3981 15.0372 18.5496 14.5621L20.8678 7.29084L8.59681 19.9335L13.9525 19.5056C14.4882 19.4628 15.0093 19.6864 15.3327 20.0978C15.6561 20.5093 15.7366 21.051 15.5459 21.5326L12.8077 28.4473L25.6427 16.0722Z" fill="url(#paint0_linear_11_2782)"/>
</g>
<defs>
<linearGradient id="paint0_linear_11_2782" x1="31.3044" y1="36.0004" x2="1.73573" y2="34.8159" gradientUnits="userSpaceOnUse">
<stop stop-color="#19D875"/>
<stop offset="1" stop-color="#00AEC6"/>
</linearGradient>
<clipPath id="clip0_11_2782">
<rect width="36" height="36" fill="white"/>
</clipPath>
</defs>
</svg>
