<svg width="36" height="36" viewBox="0 0 36 36" fill="none" xmlns="http://www.w3.org/2000/svg">
<path fill-rule="evenodd" clip-rule="evenodd" d="M19.5 29.9072V28.5C19.5 27.6716 18.8284 27 18 27C17.1716 27 16.5 27.6716 16.5 28.5V29.9072C11.0719 29.2303 6.76971 24.9281 6.09284 19.5H7.5C8.32843 19.5 9 18.8284 9 18C9 17.1716 8.32843 16.5 7.5 16.5H6.09284C6.76971 11.0719 11.0719 6.76971 16.5 6.09284V7.5C16.5 8.32843 17.1716 9 18 9C18.8284 9 19.5 8.32843 19.5 7.5V6.09284C24.9281 6.76971 29.2303 11.0719 29.9072 16.5H28.5C27.6716 16.5 27 17.1716 27 18C27 18.8284 27.6716 19.5 28.5 19.5H29.9072C29.2303 24.9281 24.9281 29.2303 19.5 29.9072ZM33 18C33 26.2843 26.2843 33 18 33C9.71573 33 3 26.2843 3 18C3 9.71573 9.71573 3 18 3C26.2843 3 33 9.71573 33 18ZM18 12C17.1716 12 16.5 12.6716 16.5 13.5V16.5H13.5C12.6716 16.5 12 17.1716 12 18C12 18.8284 12.6716 19.5 13.5 19.5H16.5V22.5C16.5 23.3284 17.1716 24 18 24C18.8284 24 19.5 23.3284 19.5 22.5V19.5H22.5C23.3284 19.5 24 18.8284 24 18C24 17.1716 23.3284 16.5 22.5 16.5H19.5V13.5C19.5 12.6716 18.8284 12 18 12Z" fill="url(#paint0_linear_11_2811)"/>
<defs>
<linearGradient id="paint0_linear_11_2811" x1="3" y1="3" x2="34.4532" y2="4.60998" gradientUnits="userSpaceOnUse">
<stop stop-color="#19D875"/>
<stop offset="1" stop-color="#00AEC6"/>
</linearGradient>
</defs>
</svg>
