<?xml version="1.0" encoding="utf-8"?>
<!-- Generator: Adobe Illustrator 22.0.1, SVG Export Plug-In . SVG Version: 6.00 Build 0)  -->
<svg version="1.1" id="Layer_1" xmlns="http://www.w3.org/2000/svg" xmlns:xlink="http://www.w3.org/1999/xlink" x="0px" y="0px"
	 viewBox="0 0 64 64" style="enable-background:new 0 0 64 64;" xml:space="preserve">
<style type="text/css">
	.st0{fill:#FFFFFF;}
</style>
<g>
	<g id="Icon-Close-O" transform="translate(378.000000, 278.000000)">
		<path id="Fill-52" class="st0" d="M-346-214c-17.7,0-32-14.3-32-32c0-17.7,14.3-32,32-32c17.7,0,32,14.3,32,32
			C-314-228.5-328.3-214-346-214L-346-214z M-346-274.7c-15.7,0-28.5,12.9-28.5,28.5s12.9,28.5,28.5,28.5s28.5-12.9,28.5-28.5
			S-330.3-274.7-346-274.7L-346-274.7z"/>
		<polyline id="Fill-53" class="st0" points="-359.9,-229.7 -362.5,-232.2 -332.2,-262.5 -329.7,-259.9 -359.9,-229.7 		"/>
		<polyline id="Fill-54" class="st0" points="-332.2,-229.7 -362.5,-259.9 -359.9,-262.5 -329.7,-232.2 -332.2,-229.7 		"/>
	</g>
</g>
</svg>
