<svg width="36" height="36" viewBox="0 0 36 36" fill="none" xmlns="http://www.w3.org/2000/svg">
<path fill-rule="evenodd" clip-rule="evenodd" d="M3 4.5C3 3.67157 3.67157 3 4.5 3H10.5C11.3284 3 12 3.67157 12 4.5C12 5.32843 11.3284 6 10.5 6H6V10.5C6 11.3284 5.32843 12 4.5 12C3.67157 12 3 11.3284 3 10.5V4.5ZM31.5 3C32.3284 3 33 3.67157 33 4.5V10.5C33 11.3284 32.3284 12 31.5 12C30.6716 12 30 11.3284 30 10.5V6H25.5C24.6716 6 24 5.32843 24 4.5C24 3.67157 24.6716 3 25.5 3H31.5ZM3 31.5C3 32.3284 3.67157 33 4.5 33H10.5C11.3284 33 12 32.3284 12 31.5C12 30.6716 11.3284 30 10.5 30H6V25.5C6 24.6716 5.32843 24 4.5 24C3.67157 24 3 24.6716 3 25.5V31.5ZM31.5 33C32.3284 33 33 32.3284 33 31.5V25.5C33 24.6716 32.3284 24 31.5 24C30.6716 24 30 24.6716 30 25.5V30H25.5C24.6716 30 24 30.6716 24 31.5C24 32.3284 24.6716 33 25.5 33H31.5Z" fill="url(#paint0_linear_11_2804)"/>
<path fill-rule="evenodd" clip-rule="evenodd" d="M13.5 19.5C13.5 18.6716 12.8284 18 12 18C11.1716 18 10.5 18.6716 10.5 19.5C10.5 23.6421 13.8579 27 18 27C22.1421 27 25.5 23.6421 25.5 19.5C25.5 18.6716 24.8284 18 24 18C23.1716 18 22.5 18.6716 22.5 19.5C22.5 21.9853 20.4853 24 18 24C15.5147 24 13.5 21.9853 13.5 19.5ZM12 15C12.8284 15 13.5 14.3284 13.5 13.5C13.5 14.3284 14.1716 15 15 15C15.8284 15 16.5 14.3284 16.5 13.5C16.5 11.8431 15.1569 10.5 13.5 10.5C11.8431 10.5 10.5 11.8431 10.5 13.5C10.5 14.3284 11.1716 15 12 15ZM22.5 13.5C22.5 14.3284 21.8284 15 21 15C20.1716 15 19.5 14.3284 19.5 13.5C19.5 11.8431 20.8431 10.5 22.5 10.5C24.1569 10.5 25.5 11.8431 25.5 13.5C25.5 14.3284 24.8284 15 24 15C23.1716 15 22.5 14.3284 22.5 13.5Z" fill="url(#paint1_linear_11_2804)"/>
<defs>
<linearGradient id="paint0_linear_11_2804" x1="3" y1="3" x2="34.4532" y2="4.60998" gradientUnits="userSpaceOnUse">
<stop stop-color="#19D875"/>
<stop offset="1" stop-color="#00AEC6"/>
</linearGradient>
<linearGradient id="paint1_linear_11_2804" x1="10.5" y1="10.5" x2="26.2337" y2="11.2321" gradientUnits="userSpaceOnUse">
<stop stop-color="#19D875"/>
<stop offset="1" stop-color="#00AEC6"/>
</linearGradient>
</defs>
</svg>
